<svg width="20" height="20" viewBox="0 0 20 20" fill="none" xmlns="http://www.w3.org/2000/svg">
    <path
      d="M10 18.75C7.67936 18.75 5.45376 17.8281 3.81282 16.1872C2.17187 14.5462 1.25 12.3206 1.25 10C1.25 7.67936 2.17187 5.45376 3.81282 3.81282C5.45376 2.17187 7.67936 1.25 10 1.25C12.3206 1.25 14.5462 2.17187 16.1872 3.81282C17.8281 5.45376 18.75 7.67936 18.75 10C18.75 12.3206 17.8281 14.5462 16.1872 16.1872C14.5462 17.8281 12.3206 18.75 10 18.75ZM10 20C12.6522 20 15.1957 18.9464 17.0711 17.0711C18.9464 15.1957 20 12.6522 20 10C20 7.34784 18.9464 4.8043 17.0711 2.92893C15.1957 1.05357 12.6522 0 10 0C7.34784 0 4.8043 1.05357 2.92893 2.92893C1.05357 4.8043 0 7.34784 0 10C0 12.6522 1.05357 15.1957 2.92893 17.0711C4.8043 18.9464 7.34784 20 10 20Z"
        fill="#07E410"
    />
    <path
      d="M13.7126 6.21261C13.7037 6.22124 13.6953 6.23042 13.6876 6.24011L9.34634 11.7714L6.73009 9.15386C6.55237 8.98826 6.31731 8.8981 6.07443 8.90239C5.83156 8.90667 5.59983 9.00506 5.42806 9.17683C5.25629 9.3486 5.1579 9.58033 5.15362 9.8232C5.14933 10.0661 5.23949 10.3011 5.40509 10.4789L8.71259 13.7876C8.80169 13.8765 8.90779 13.9466 9.02457 13.9937C9.14134 14.0407 9.2664 14.0638 9.39227 14.0614C9.51814 14.0591 9.64226 14.0314 9.75721 13.9801C9.87216 13.9288 9.97559 13.8548 10.0613 13.7626L15.0513 7.52511C15.2213 7.34677 15.3141 7.10873 15.31 6.86244C15.3058 6.61616 15.2048 6.38142 15.0289 6.20897C14.853 6.03653 14.6163 5.94024 14.37 5.94092C14.1237 5.9416 13.8875 6.0392 13.7126 6.21261Z"
      fill="#07E410"
    />
  </svg>