<svg width="20" height="20" viewBox="0 0 20 20" fill="none" xmlns="http://www.w3.org/2000/svg">
    <path
      fill-rule="evenodd"
      clip-rule="evenodd"
      d="M0 10C0 7.34783 1.05357 4.8043 2.92893 2.92893C4.8043 1.05357 7.34783 0 10 0C12.6522 0 15.1957 1.05357 17.0711 2.92893C18.9464 4.8043 20 7.34783 20 10C20 12.6522 18.9464 15.1957 17.0711 17.0711C15.1957 18.9464 12.6522 20 10 20C7.34783 20 4.8043 18.9464 2.92893 17.0711C1.05357 15.1957 0 12.6522 0 10V10ZM10 1.4344C7.72826 1.4344 5.54957 2.33684 3.9432 3.9432C2.33684 5.54957 1.4344 7.72826 1.4344 10C1.4344 12.2717 2.33684 14.4504 3.9432 16.0568C5.54957 17.6632 7.72826 18.5656 10 18.5656C12.2717 18.5656 14.4504 17.6632 16.0568 16.0568C17.6632 14.4504 18.5656 12.2717 18.5656 10C18.5656 7.72826 17.6632 5.54957 16.0568 3.9432C14.4504 2.33684 12.2717 1.4344 10 1.4344V1.4344ZM13.5543 6.44723C13.6958 6.5888 13.7753 6.78079 13.7753 6.98098C13.7753 7.18116 13.6958 7.37315 13.5543 7.51472L11.0675 10L13.5543 12.4853C13.696 12.627 13.7757 12.8193 13.7757 13.0198C13.7757 13.2203 13.696 13.4125 13.5543 13.5543C13.4125 13.696 13.2203 13.7757 13.0198 13.7757C12.8193 13.7757 12.627 13.696 12.4853 13.5543L10 11.0675L7.51472 13.5543C7.44453 13.6245 7.3612 13.6802 7.26949 13.7181C7.17778 13.7561 7.07949 13.7757 6.98022 13.7757C6.88095 13.7757 6.78266 13.7561 6.69095 13.7181C6.59924 13.6802 6.51591 13.6245 6.44572 13.5543C6.37553 13.4841 6.31985 13.4008 6.28186 13.309C6.24387 13.2173 6.22432 13.119 6.22432 13.0198C6.22432 12.9205 6.24387 12.8222 6.28186 12.7305C6.31985 12.6388 6.37553 12.5555 6.44572 12.4853L8.93251 10L6.44572 7.51472C6.30396 7.37296 6.22432 7.1807 6.22432 6.98022C6.22432 6.77974 6.30396 6.58748 6.44572 6.44572C6.58748 6.30396 6.77974 6.22432 6.98022 6.22432C7.1807 6.22432 7.37296 6.30396 7.51472 6.44572L10 8.93251L12.4853 6.44572C12.5554 6.37541 12.6387 6.31963 12.7304 6.28158C12.8222 6.24352 12.9205 6.22393 13.0198 6.22393C13.1191 6.22393 13.2174 6.24352 13.3091 6.28158C13.4008 6.31963 13.4842 6.37541 13.5543 6.44572V6.44723Z"
      fill="black"
    />
  </svg>