<svg xmlns="http://www.w3.org/2000/svg" width="22" height="24" fill="none" xmlns:v="https://vecta.io/nano"><path d="M13.999 12h-6v8.5h6V12z" fill="#eac3a2"/><g fill-rule="evenodd"><path d="M16.499 6v4a5.51 5.51 0 0 1-5.5 5.5 5.51 5.51 0 0 1-5.5-5.5V6h11z" fill="#f1d9c5"/><path d="M5.499 6c0-1.657 1.268-3.452 2.827-4.009L12.029.668c.26-.093.57.031.692.276l.778 1.556c1.657 0 3 1.347 3 3v3a2.5 2.5 0 0 0-2.5-2.5h-6a2.5 2.5 0 0 0-2.5 2.5V6z" fill="#c6a279"/><path d="M22 22.005c0-.831-.614-1.773-1.375-2.106L14 17l-3.001 3-2.99-3-6.632 2.898C.616 20.231 0 21.175 0 22.005v1.494A.5.5 0 0 0 .501 24h20.998c.277 0 .501-.219.501-.502v-1.494z" fill="#444"/></g></svg>