<svg xmlns="http://www.w3.org/2000/svg" xmlns:xlink="http://www.w3.org/1999/xlink" width="304" height="272" fill="none" xmlns:v="https://vecta.io/nano"><path d="M37.227 263.466v4.118c0 2.323 2.195 4.205 4.903 4.205h220.24c2.709 0 4.903-1.882 4.903-4.205v-4.118H37.227z" fill="#939598"/><path d="M35.789 260.672h233.084l-30.502-26.764H72l-36.211 26.764z" fill="#afb1b4"/><path d="M246.38 249.447H60.474l14.702-10.866h158.82l12.384 10.866zm-64.293 9.585h-57.384l4.536-6.49h49.027l3.821 6.49z" fill="#c5c6c8"/><path d="M268.873 260.67H35.789v5.607h233.084v-5.607z" fill="#bcbec0"/><path d="M240.252 231.45c0 2.323-1.883 4.206-4.207 4.206H74.347a4.21 4.21 0 0 1-4.207-4.206V128.169a4.21 4.21 0 0 1 4.207-4.206h161.698a4.21 4.21 0 0 1 4.207 4.206V231.45z" fill="#e7e8e9"/><path d="M238.349 229.73c0 2.244-1.841 4.064-4.114 4.064H76.092c-2.272 0-4.114-1.82-4.114-4.064v-99.824c0-2.246 1.842-4.066 4.114-4.066h158.143c2.273 0 4.114 1.82 4.114 4.066v99.824z" fill="#d1d3d4"/><path d="M228.134 134.708H80.925v88.329h147.209v-88.329z" fill="#f15a29"/><path d="M131.813 223.037H80.925v-88.329h120.477c-5.82 11.387-12.389 22.39-19.55 32.92-10.788 15.857-23.19 30.638-37.043 43.903-4.18 4.001-8.525 7.83-12.996 11.506z" fill="#f68b42"/><path d="M117.602 233.795h-41.51c-2.272 0-4.114-1.82-4.114-4.064v-99.824c0-2.246 1.842-4.066 4.114-4.066h129.592l-4.349 8.877H80.859v88.329h50.888a268.16 268.16 0 0 1-8.241 6.502 137.48 137.48 0 0 1-5.904 4.246z" fill="#e5e6e7"/><path d="M159.058 130.455a2.28 2.28 0 0 1-2.28 2.278 2.28 2.28 0 0 1-2.278-2.278 2.28 2.28 0 0 1 2.278-2.277 2.28 2.28 0 0 1 2.28 2.277z" fill="#939598"/><path d="M255.196 173.474c0 3.231-2.644 5.876-5.875 5.876h-92.38c-3.232 0-5.876-2.645-5.876-5.876v-12.519c0-3.232 2.644-5.875 5.876-5.875h92.38c3.231 0 5.875 2.643 5.875 5.875v12.519z" fill="#fff"/><g fill="#121f44"><path d="M255.198 173.476h-.881c0 1.373-.56 2.618-1.468 3.527a4.98 4.98 0 0 1-3.526 1.468h-92.38a4.98 4.98 0 0 1-4.995-4.995v-12.519c.001-1.372.56-2.617 1.468-3.527s2.154-1.468 3.527-1.468h92.38c1.372 0 2.617.56 3.526 1.468a4.97 4.97 0 0 1 1.468 3.527v12.519h1.762v-12.519c-.004-3.722-3.035-6.753-6.756-6.756h-92.38c-3.722.003-6.753 3.034-6.756 6.756v12.519c.003 3.722 3.034 6.753 6.756 6.756h92.38c3.721-.003 6.752-3.034 6.756-6.756h-.881zm-89.71-10.426l1.968 6.745 1.791-6.269.426-1.343c.093-.24.265-.469.52-.686s.603-.326 1.045-.326c.449 0 .801.108 1.055.326s.434.453.537.708.247.694.431 1.321l1.791 6.269 1.991-6.745.321-1.056c.08-.217.216-.409.408-.574s.468-.249.83-.249a1.32 1.32 0 0 1 .939.376c.266.251.399.546.399.884 0 .31-.115.778-.343 1.404l-2.466 7.232-.497 1.327a1.97 1.97 0 0 1-.559.729c-.254.214-.602.321-1.045.321-.457 0-.816-.115-1.078-.343s-.455-.508-.58-.84-.262-.763-.41-1.294l-1.724-5.882-1.67 5.882c-.221.818-.461 1.436-.719 1.852s-.711.625-1.359.625c-.332 0-.614-.065-.847-.194s-.425-.312-.58-.552-.292-.523-.409-.852l-.277-.779-2.443-7.232c-.244-.678-.365-1.146-.365-1.404 0-.324.128-.615.386-.873s.576-.387.952-.387c.501 0 .84.141 1.017.425s.365.769.564 1.454zm18.374 0l1.968 6.745 1.791-6.269.425-1.343c.093-.24.265-.469.52-.686s.603-.326 1.045-.326c.45 0 .802.108 1.056.326s.433.453.536.708.248.694.432 1.321l1.791 6.269 1.99-6.745.321-1.056c.081-.217.217-.409.409-.574s.468-.249.829-.249a1.32 1.32 0 0 1 .94.376c.266.251.398.546.398.884 0 .31-.114.778-.343 1.404l-2.465 7.232-.498 1.327c-.118.272-.304.516-.558.729s-.603.321-1.045.321c-.457 0-.817-.115-1.078-.343s-.455-.508-.58-.84-.262-.763-.41-1.294l-1.725-5.882-1.669 5.882c-.221.818-.462 1.436-.72 1.852s-.71.625-1.359.625c-.333 0-.614-.065-.846-.194s-.426-.312-.58-.552-.292-.523-.41-.852l-.276-.779-2.443-7.232c-.244-.678-.365-1.146-.365-1.404 0-.324.128-.615.386-.873s.576-.387.951-.387c.502 0 .841.141 1.018.425s.365.769.564 1.454zm18.454 0l1.967 6.745 1.792-6.269.426-1.343c.092-.24.265-.469.519-.686s.603-.326 1.046-.326c.449 0 .801.108 1.055.326s.433.453.536.708.247.694.432 1.321l1.791 6.269 1.99-6.745.321-1.056c.081-.217.217-.409.409-.574s.468-.249.829-.249a1.32 1.32 0 0 1 .94.376c.266.251.399.546.399.884 0 .31-.115.778-.344 1.404l-2.465 7.232-.497 1.327c-.119.272-.305.516-.559.729s-.603.321-1.045.321c-.457 0-.817-.115-1.078-.343s-.455-.508-.581-.84-.262-.763-.409-1.294l-1.724-5.882-1.67 5.882c-.221.818-.461 1.436-.719 1.852s-.711.625-1.36.625c-.332 0-.613-.065-.846-.194a1.61 1.61 0 0 1-.58-.552c-.154-.24-.292-.523-.41-.852l-.276-.779-2.443-7.232c-.244-.678-.365-1.146-.365-1.404 0-.324.128-.615.386-.873s.575-.387.952-.387c.501 0 .839.141 1.017.425s.365.769.564 1.454z"/><path d="M219.049 159.294v16.442h1.761v-16.442m36.948 21.523c1.608-.36 1.768-1.352.362-2.205l-28.881-17.491c-1.41-.854-2.201-.254-1.76 1.332l9.037 32.534c.442 1.585 1.441 1.697 2.221.249l2.876-5.338c.781-1.449 2.234-1.561 3.227-.25l8.973 11.836c.994 1.311 2.879 1.57 4.192.576l1.12-.847c1.311-.995 1.571-2.882.576-4.193l-8.97-11.837c-.995-1.311-.495-2.679 1.113-3.038l5.914-1.328z"/></g><path d="M228.044 212.311c-4.606-8.859-16.511-8.513-20.3-1.672-.463-8.259-14.833-12.865-19.349-2.112 1.524-12.525-14.422-17.131-20.715-9.336-2.357-9.748-17.094-13.465-24.772-.72 3.071-12.391-12.874-22.312-23.384-12.863-16.066-16.89.28-47.91 1.939-54.538-2.371-.334-3.739-2.199-5.233-3.891-4.29 3.556-17.354 28.716-19.505 33.979-4.961 12.135-10.423 8.475-10.423 8.475-6.939-3.75-22.885 7.589-12.132 21.357-7.21-1.72-10.044 10.682-2.214 15.643-11.373 2.481-6.058 18.426 8.88 16.416h147.209v-10.738z" fill="#fff"/><path d="M142.311 128.633c-10.608 13.409-34.052 18.817-34.052 18.817s-.683-28.81 7.827-39.565 28.381-8.927 28.381-8.927 8.452 16.268-2.156 29.675z" fill="#fcb116"/><path d="M140.807 122.318c-7.389 9.339-23.686 13.133-23.686 13.133s-.438-20.038 5.49-27.53 19.735-6.248 19.735-6.248 5.851 11.304-1.539 20.645z" fill="#ffc906"/><path d="M162.761 140.621c-7.28-5.759-6.733-25.699-6.733-25.699s29.466-27.018 32.384-24.71c9.34 7.389-22.734 52.717-25.651 50.409z" fill="#f26521"/><path d="M189.887 92.569c-2.84 7.981-6.818 15.566-11.587 22.559-3.429 5.027-6.886 10.384-10.878 14.985-2.273 2.618-4.796 4.902-7.809 6.309.843 1.71 1.879 3.172 3.163 4.187 2.69 2.129 30.184-36.266 27.111-48.04z" fill="#f5801f"/><path d="M100.103 91.021c7.278 5.758 26.558.641 26.558.641s19.514-34.892 16.598-37.2c-9.34-7.388-46.074 34.252-43.156 36.56z" fill="#f26521"/><path d="M140.619 53.586c-7.114 4.597-13.583 10.214-19.29 16.464-4.104 4.494-8.521 9.091-12.08 14.035-2.025 2.814-3.668 5.794-4.343 9.05-1.859-.427-3.52-1.098-4.803-2.114-2.691-2.129 28.349-37.717 40.516-37.435z" fill="#f5801f"/><path d="M155.049 118.956c-1.705 2.154-4.469 2.806-6.173 1.457l-26.248-20.765c-1.705-1.35-1.708-4.189-.004-6.345l.439-.552c1.703-2.154 4.468-2.805 6.174-1.456l26.247 20.767c1.705 1.348 1.707 4.188.002 6.342l-.437.553z" fill="#f26521"/><path d="M217.65 6.285s-35.504-6.12-71.658 39.576c-17.688 22.357-24.085 47.254-24.085 47.254l16.633 13.16 16.634 13.159s22.757-11.954 40.445-34.31C231.772 39.428 217.65 6.285 217.65 6.285z" fill="#fff"/><path d="M153.548 91.571c-3.261-1.163-6.923 1.87-9.566 3.433-1.142.676-3.891 2.504-5.011.787-2.004-3.067.361-9.092 1.293-12.087 2.338-7.506 5.583-14.907 8.796-22.08 6.661-14.871 17.288-26.614 30.523-35.961 6.202-4.38 12.767-8.339 19.635-11.596 6.047-2.865 12.722-4.193 18.542-7.5l-.11-.283s-35.504-6.12-71.658 39.576c-17.688 22.357-24.085 47.254-24.085 47.254l33.267 26.319s.597-.314 1.663-.928c-6.41-6.812-8.068-17.84-3.289-26.935z" fill="#d1d3d4"/><path d="M219.346 35.947c3.141-18.418-1.646-29.664-1.646-29.664s-12.047-2.072-29.248 5.223l30.894 24.441zm-26.01 34.585c-6.938 8.767-19.668 10.252-28.436 3.315s-10.251-19.668-3.315-28.435 19.667-10.254 28.437-3.316 10.251 19.668 3.314 28.436z" fill="#f26521"/><path d="M189.598 67.588a15.51 15.51 0 0 1-21.782 2.539c-3.543-2.803-5.535-6.848-5.845-11.032a15.23 15.23 0 0 1 .112-3.284 13.76 13.76 0 0 1 .308-1.6 15.11 15.11 0 0 1 1.745-4.204c.335-.575.716-1.128 1.14-1.664 5.313-6.716 15.071-7.849 21.782-2.539a15.46 15.46 0 0 1 5.77 10.277c.185 1.504.15 3.042-.112 4.544-.089.538-.216 1.069-.363 1.59-.298 1.043-.709 2.069-1.237 3.048a14.91 14.91 0 0 1-1.518 2.324z" fill="#00b4a8"/><g fill="#61c7c8"><path d="M191.745 60.419l-29.336-6.206a15.11 15.11 0 0 1 1.745-4.204l28.393 6.01a15.43 15.43 0 0 1-.802 4.399z"/><path d="M192.846 60.145a15.58 15.58 0 0 0 .035-4.064h.002a15.64 15.64 0 0 1 .116 1.899c-.001.723-.051 1.446-.153 2.164zm-3.509 4.752l-27.366-5.792-.041-1.129a14.83 14.83 0 0 1 .152-2.154l29.032 6.143c-.473 1.021-1.064 2.005-1.777 2.933z"/></g><path d="M177.459 73.484c-3.369 0-6.762-1.093-9.611-3.346-.795-.63-1.513-1.322-2.15-2.065a15.54 15.54 0 0 0 2.15 2.063c2.848 2.254 6.241 3.347 9.611 3.347 4.576 0 9.11-2.018 12.17-5.886a14.91 14.91 0 0 0 1.518-2.323c.528-.979.939-2.005 1.237-3.048.071-.249.136-.501.195-.754-.498 2.169-1.475 4.265-2.948 6.127-3.061 3.869-7.594 5.886-12.172 5.886zm-11.764-5.414zm27.031-7.314a2.37 2.37 0 0 0 .021-.121c.028-.16.054-.32.076-.481-.028.2-.06.401-.097.601z" fill="#96471a"/><path d="M177.457 73.477a15.44 15.44 0 0 1-9.612-3.347 15.59 15.59 0 0 1-2.15-2.063l-.025-.029c-2.174-2.543-3.413-5.669-3.66-8.878.792 3.23 2.621 6.231 5.431 8.454 2.848 2.253 6.242 3.346 9.612 3.346 4.577 0 9.109-2.017 12.17-5.885l.143-.183 1.778.376c-.424.808-.931 1.582-1.517 2.324a15.48 15.48 0 0 1-12.17 5.886zm14.925-11.257l-1.239-.262c.233-.504.437-1.017.613-1.537l.988.209c-.006.041-.013.081-.02.121a16.04 16.04 0 0 1-.147.715c-.059.253-.125.505-.195.754zm.474-6.135l-.298-.063c.021-.587.009-1.174-.036-1.758.146.6.258 1.209.334 1.821z" fill="#00867f"/><path d="M192.716 60.628l-.988-.209c.484-1.433.749-2.915.802-4.399l.298.063a15.62 15.62 0 0 1-.036 4.064l-.076.481zm-1.527 4.634l-1.778-.376a15.54 15.54 0 0 0 1.777-2.933l1.239.262a15.2 15.2 0 0 1-1.238 3.048z" fill="#269096"/><g fill="#fff"><path d="M43.881 53.195v6.902a.43.43 0 0 0 .43.429.43.43 0 0 0 .429-.429v-6.902a.43.43 0 0 0-.429-.429.43.43 0 0 0-.43.429z"/><path d="M47.717 56.2h-6.841a.43.43 0 0 0-.429.429.43.43 0 0 0 .429.429h6.841a.43.43 0 0 0 .429-.429.43.43 0 0 0-.429-.429zM3.435 143.107v6.902a.43.43 0 0 0 .429.429.43.43 0 0 0 .429-.429v-6.902a.43.43 0 0 0-.429-.43.43.43 0 0 0-.429.43z"/><path d="M7.272 146.133H.429a.43.43 0 0 0-.429.429.43.43 0 0 0 .429.43h6.842a.43.43 0 0 0 .429-.43.43.43 0 0 0-.429-.429zm46.135-39.785h8.643a.43.43 0 0 0 .429-.428.43.43 0 0 0-.429-.43h-8.643a.43.43 0 0 0-.429.43.43.43 0 0 0 .429.428zm11.583 0h2.401a.43.43 0 0 0 .429-.428.43.43 0 0 0-.429-.43H64.99a.43.43 0 0 0-.429.43.43.43 0 0 0 .429.428zm4.554 0h2.401a.43.43 0 0 0 .429-.428.43.43 0 0 0-.429-.43h-2.401a.43.43 0 0 0-.429.43.43.43 0 0 0 .429.428zm-14.46 2.997h8.644a.43.43 0 0 0 .429-.43.43.43 0 0 0-.429-.429h-8.644a.43.43 0 0 0-.429.429.43.43 0 0 0 .429.43zm11.584 0h2.401a.43.43 0 0 0 .429-.43.43.43 0 0 0-.429-.429h-2.401a.43.43 0 0 0-.429.429.43.43 0 0 0 .429.43zm4.554 0h2.4a.43.43 0 0 0 .429-.43.43.43 0 0 0-.429-.429h-2.4a.43.43 0 0 0-.429.429.43.43 0 0 0 .429.43zm-59.848 98.2h8.644a.43.43 0 0 0 .429-.429.43.43 0 0 0-.429-.429h-8.643a.43.43 0 0 0-.429.429.43.43 0 0 0 .429.429z"/><use xlink:href="#B"/><path d="M27.511 207.545h2.399a.43.43 0 0 0 .429-.429.43.43 0 0 0-.429-.429h-2.399a.43.43 0 0 0-.429.429.43.43 0 0 0 .429.429z"/><use xlink:href="#C"/><use xlink:href="#B" x="1.677" y="2.995"/><use xlink:href="#B" x="6.231" y="2.995"/><path d="M188.852.429v6.902a.43.43 0 0 0 .43.429.43.43 0 0 0 .428-.429V.429a.43.43 0 0 0-.428-.429.43.43 0 0 0-.43.429z"/><path d="M192.688 3.455h-6.842a.43.43 0 0 0-.429.429.43.43 0 0 0 .429.429h6.842a.43.43 0 0 0 .428-.429.43.43 0 0 0-.428-.429zm78.207 105.653v6.902a.43.43 0 0 0 .43.428.43.43 0 0 0 .429-.428v-6.902a.43.43 0 0 0-.429-.43.43.43 0 0 0-.43.43z"/><path d="M274.731 112.133h-6.842a.43.43 0 0 0-.429.43.43.43 0 0 0 .429.429h6.842a.43.43 0 0 0 .429-.429.43.43 0 0 0-.429-.43zm-24.39-65.34v6.901a.43.43 0 0 0 .429.429.43.43 0 0 0 .429-.429v-6.901a.43.43 0 0 0-.429-.429.43.43 0 0 0-.429.429z"/><path d="M254.176 49.818h-6.841a.43.43 0 0 0-.429.429.43.43 0 0 0 .429.429h6.841a.43.43 0 0 0 .429-.429.43.43 0 0 0-.429-.429zM94.775 24.371h8.643a.43.43 0 0 0 .43-.429.43.43 0 0 0-.43-.429h-8.643a.43.43 0 0 0-.429.429.43.43 0 0 0 .429.429z"/><use xlink:href="#D"/><use xlink:href="#B" x="87.954" y="-183.174"/><path d="M96.453 27.367h8.641a.43.43 0 0 0 .43-.429.43.43 0 0 0-.43-.429h-8.641a.43.43 0 0 0-.429.429.43.43 0 0 0 .429.429z"/><use xlink:href="#D" x="1.677" y="2.996"/><path d="M112.59 27.367h2.401a.43.43 0 0 0 .43-.429.43.43 0 0 0-.43-.429h-2.401a.43.43 0 0 0-.429.429.43.43 0 0 0 .429.429zm105.93 56.765h8.642a.43.43 0 0 0 .43-.429.43.43 0 0 0-.43-.429h-8.642a.43.43 0 0 0-.43.429.43.43 0 0 0 .43.429zm11.583 0h2.4a.43.43 0 0 0 .43-.429.43.43 0 0 0-.43-.429h-2.4a.43.43 0 0 0-.429.429.43.43 0 0 0 .429.429zm4.554 0h2.399a.43.43 0 0 0 .429-.429.43.43 0 0 0-.429-.429h-2.399a.43.43 0 0 0-.43.429.43.43 0 0 0 .43.429zm-14.46 2.997h8.645a.43.43 0 0 0 .43-.429.43.43 0 0 0-.43-.429h-8.645a.43.43 0 0 0-.429.429.43.43 0 0 0 .429.429zm11.584 0h2.398a.43.43 0 0 0 .429-.429.43.43 0 0 0-.429-.429h-2.398a.43.43 0 0 0-.43.429.43.43 0 0 0 .43.429z"/><use xlink:href="#E"/><path d="M264.025 208.413v6.902a.43.43 0 0 0 .429.43.43.43 0 0 0 .43-.43v-6.902a.43.43 0 0 0-.43-.429.43.43 0 0 0-.429.429z"/><path d="M267.86 211.439h-6.841a.43.43 0 0 0-.429.43.43.43 0 0 0 .429.429h6.841a.43.43 0 0 0 .429-.429.43.43 0 0 0-.429-.43zm14.649-45.395h8.642a.43.43 0 0 0 .428-.429.43.43 0 0 0-.428-.429h-8.642a.43.43 0 0 0-.43.429.43.43 0 0 0 .43.429z"/><use xlink:href="#E" x="57.758" y="78.915"/><use xlink:href="#F"/><use xlink:href="#C" x="271.135" y="-41.5"/><use xlink:href="#F" x="-2.876" y="2.996"/><path d="M300.323 169.04h2.403a.43.43 0 0 0 .429-.429.43.43 0 0 0-.429-.429h-2.403a.43.43 0 0 0-.429.429.43.43 0 0 0 .429.429z"/></g><defs ><path id="B" d="M22.958 207.545h2.401a.43.43 0 0 0 .429-.429.43.43 0 0 0-.429-.429h-2.401a.43.43 0 0 0-.429.429.43.43 0 0 0 .429.429z"/><path id="C" d="M13.051 210.54h8.642a.43.43 0 0 0 .429-.429.43.43 0 0 0-.429-.429h-8.642a.43.43 0 0 0-.429.429.43.43 0 0 0 .429.429z"/><path id="D" d="M106.359 24.371h2.4a.43.43 0 0 0 .429-.429.43.43 0 0 0-.429-.429h-2.4a.43.43 0 0 0-.429.429.43.43 0 0 0 .429.429z"/><path id="E" d="M236.334 87.129h2.4a.43.43 0 0 0 .428-.429.43.43 0 0 0-.428-.429h-2.4a.43.43 0 0 0-.429.429.43.43 0 0 0 .429.429z"/><path id="F" d="M298.646 166.044h2.401a.43.43 0 0 0 .428-.429.43.43 0 0 0-.428-.429h-2.401a.43.43 0 0 0-.43.429.43.43 0 0 0 .43.429z"/></defs></svg>