<svg width="273" height="105" viewBox="0 0 273 105" fill="none" xmlns="http://www.w3.org/2000/svg">
<path d="M2.008 8.4H3.952L3.79 13.386H2.152L2.008 8.4ZM5.482 8.4H7.426L7.264 13.386H5.626L5.482 8.4ZM19.9195 19.02V21H9.17355V19.434L16.5895 10.38H9.29955V8.4H19.6855V9.966L12.2695 19.02H19.9195ZM22.9187 21.126C22.5107 21.126 22.1627 20.988 21.8747 20.712C21.5867 20.424 21.4427 20.064 21.4427 19.632C21.4427 19.188 21.5807 18.828 21.8567 18.552C22.1447 18.276 22.4987 18.138 22.9187 18.138C23.3387 18.138 23.6867 18.276 23.9627 18.552C24.2507 18.828 24.3947 19.188 24.3947 19.632C24.3947 20.064 24.2507 20.424 23.9627 20.712C23.6747 20.988 23.3267 21.126 22.9187 21.126ZM30.8274 21.126C29.8314 21.126 28.9374 20.916 28.1454 20.496C27.3534 20.076 26.7354 19.494 26.2914 18.75C25.8474 17.994 25.6254 17.142 25.6254 16.194C25.6254 15.246 25.8474 14.4 26.2914 13.656C26.7354 12.912 27.3474 12.33 28.1274 11.91C28.9194 11.49 29.8194 11.28 30.8274 11.28C31.7754 11.28 32.6034 11.472 33.3114 11.856C34.0314 12.24 34.5714 12.792 34.9314 13.512L33.2034 14.52C32.9274 14.076 32.5794 13.746 32.1594 13.53C31.7514 13.302 31.3014 13.188 30.8094 13.188C29.9694 13.188 29.2734 13.464 28.7214 14.016C28.1694 14.556 27.8934 15.282 27.8934 16.194C27.8934 17.106 28.1634 17.838 28.7034 18.39C29.2554 18.93 29.9574 19.2 30.8094 19.2C31.3014 19.2 31.7514 19.092 32.1594 18.876C32.5794 18.648 32.9274 18.312 33.2034 17.868L34.9314 18.876C34.5594 19.596 34.0134 20.154 33.2934 20.55C32.5854 20.934 31.7634 21.126 30.8274 21.126ZM41.0558 21.126C40.0838 21.126 39.2078 20.916 38.4278 20.496C37.6478 20.076 37.0358 19.494 36.5918 18.75C36.1598 17.994 35.9438 17.142 35.9438 16.194C35.9438 15.246 36.1598 14.4 36.5918 13.656C37.0358 12.912 37.6478 12.33 38.4278 11.91C39.2078 11.49 40.0838 11.28 41.0558 11.28C42.0398 11.28 42.9218 11.49 43.7018 11.91C44.4818 12.33 45.0878 12.912 45.5198 13.656C45.9638 14.4 46.1858 15.246 46.1858 16.194C46.1858 17.142 45.9638 17.994 45.5198 18.75C45.0878 19.494 44.4818 20.076 43.7018 20.496C42.9218 20.916 42.0398 21.126 41.0558 21.126ZM41.0558 19.2C41.8838 19.2 42.5678 18.924 43.1078 18.372C43.6478 17.82 43.9178 17.094 43.9178 16.194C43.9178 15.294 43.6478 14.568 43.1078 14.016C42.5678 13.464 41.8838 13.188 41.0558 13.188C40.2278 13.188 39.5438 13.464 39.0038 14.016C38.4758 14.568 38.2118 15.294 38.2118 16.194C38.2118 17.094 38.4758 17.82 39.0038 18.372C39.5438 18.924 40.2278 19.2 41.0558 19.2ZM60.4693 11.28C61.6813 11.28 62.6413 11.634 63.3493 12.342C64.0573 13.038 64.4113 14.088 64.4113 15.492V21H62.1613V15.78C62.1613 14.94 61.9753 14.31 61.6033 13.89C61.2313 13.458 60.6973 13.242 60.0013 13.242C59.2453 13.242 58.6393 13.494 58.1833 13.998C57.7273 14.49 57.4993 15.198 57.4993 16.122V21H55.2493V15.78C55.2493 14.94 55.0633 14.31 54.6913 13.89C54.3193 13.458 53.7853 13.242 53.0893 13.242C52.3213 13.242 51.7093 13.488 51.2533 13.98C50.8093 14.472 50.5873 15.186 50.5873 16.122V21H48.3373V11.388H50.4793V12.612C50.8393 12.18 51.2893 11.85 51.8293 11.622C52.3693 11.394 52.9693 11.28 53.6293 11.28C54.3493 11.28 54.9853 11.418 55.5373 11.694C56.1013 11.958 56.5453 12.354 56.8693 12.882C57.2653 12.378 57.7753 11.988 58.3993 11.712C59.0233 11.424 59.7133 11.28 60.4693 11.28ZM72.2612 11.388H74.5112V21H72.2612V11.388ZM73.3952 9.804C72.9872 9.804 72.6452 9.678 72.3692 9.426C72.0932 9.162 71.9552 8.838 71.9552 8.454C71.9552 8.07 72.0932 7.752 72.3692 7.5C72.6452 7.236 72.9872 7.104 73.3952 7.104C73.8032 7.104 74.1452 7.23 74.4212 7.482C74.6972 7.722 74.8352 8.028 74.8352 8.4C74.8352 8.796 74.6972 9.132 74.4212 9.408C74.1572 9.672 73.8152 9.804 73.3952 9.804ZM80.4343 21.126C79.6543 21.126 78.8923 21.024 78.1483 20.82C77.4043 20.616 76.8103 20.358 76.3663 20.046L77.2303 18.336C77.6623 18.624 78.1783 18.858 78.7783 19.038C79.3903 19.206 79.9903 19.29 80.5783 19.29C81.9223 19.29 82.5943 18.936 82.5943 18.228C82.5943 17.892 82.4203 17.658 82.0723 17.526C81.7363 17.394 81.1903 17.268 80.4343 17.148C79.6423 17.028 78.9943 16.89 78.4903 16.734C77.9983 16.578 77.5663 16.308 77.1943 15.924C76.8343 15.528 76.6543 14.982 76.6543 14.286C76.6543 13.374 77.0323 12.648 77.7883 12.108C78.5563 11.556 79.5883 11.28 80.8843 11.28C81.5443 11.28 82.2043 11.358 82.8643 11.514C83.5243 11.658 84.0643 11.856 84.4843 12.108L83.6203 13.818C82.8043 13.338 81.8863 13.098 80.8663 13.098C80.2063 13.098 79.7023 13.2 79.3543 13.404C79.0183 13.596 78.8503 13.854 78.8503 14.178C78.8503 14.538 79.0303 14.796 79.3903 14.952C79.7623 15.096 80.3323 15.234 81.1003 15.366C81.8683 15.486 82.4983 15.624 82.9903 15.78C83.4823 15.936 83.9023 16.2 84.2503 16.572C84.6103 16.944 84.7903 17.472 84.7903 18.156C84.7903 19.056 84.4003 19.776 83.6203 20.316C82.8403 20.856 81.7783 21.126 80.4343 21.126ZM103.835 11.28C105.047 11.28 106.007 11.634 106.715 12.342C107.423 13.038 107.777 14.088 107.777 15.492V21H105.527V15.78C105.527 14.94 105.341 14.31 104.969 13.89C104.597 13.458 104.063 13.242 103.367 13.242C102.611 13.242 102.005 13.494 101.549 13.998C101.093 14.49 100.865 15.198 100.865 16.122V21H98.6146V15.78C98.6146 14.94 98.4286 14.31 98.0566 13.89C97.6846 13.458 97.1506 13.242 96.4546 13.242C95.6866 13.242 95.0746 13.488 94.6186 13.98C94.1746 14.472 93.9526 15.186 93.9526 16.122V21H91.7026V11.388H93.8446V12.612C94.2046 12.18 94.6546 11.85 95.1946 11.622C95.7346 11.394 96.3346 11.28 96.9946 11.28C97.7146 11.28 98.3506 11.418 98.9026 11.694C99.4666 11.958 99.9106 12.354 100.235 12.882C100.631 12.378 101.141 11.988 101.765 11.712C102.389 11.424 103.079 11.28 103.835 11.28ZM119.476 11.388L114.976 21.774C114.556 22.818 114.046 23.55 113.446 23.97C112.846 24.402 112.12 24.618 111.268 24.618C110.788 24.618 110.314 24.54 109.846 24.384C109.378 24.228 108.994 24.012 108.694 23.736L109.594 22.08C109.81 22.284 110.062 22.446 110.35 22.566C110.65 22.686 110.95 22.746 111.25 22.746C111.646 22.746 111.97 22.644 112.222 22.44C112.486 22.236 112.726 21.894 112.942 21.414L113.104 21.036L108.91 11.388H111.25L114.274 18.498L117.316 11.388H119.476ZM133.741 16.302H136.171V17.94H133.543L133.165 21H131.527L131.905 17.94H128.863L128.485 21H126.847L127.225 17.94H124.795V16.302H127.423L127.837 13.098H125.407V11.46H128.035L128.413 8.4H130.051L129.673 11.46H132.697L133.075 8.4H134.713L134.335 11.46H136.747L136.765 13.098H134.137L133.741 16.302ZM132.103 16.302L132.499 13.098H129.475L129.061 16.302H132.103ZM142.326 8.4V21H139.986V10.362H137.322V8.4H142.326ZM154.894 21.126C153.898 21.126 153.004 20.916 152.212 20.496C151.42 20.076 150.802 19.494 150.358 18.75C149.914 17.994 149.692 17.142 149.692 16.194C149.692 15.246 149.914 14.4 150.358 13.656C150.802 12.912 151.414 12.33 152.194 11.91C152.986 11.49 153.886 11.28 154.894 11.28C155.842 11.28 156.67 11.472 157.378 11.856C158.098 12.24 158.638 12.792 158.998 13.512L157.27 14.52C156.994 14.076 156.646 13.746 156.226 13.53C155.818 13.302 155.368 13.188 154.876 13.188C154.036 13.188 153.34 13.464 152.788 14.016C152.236 14.556 151.96 15.282 151.96 16.194C151.96 17.106 152.23 17.838 152.77 18.39C153.322 18.93 154.024 19.2 154.876 19.2C155.368 19.2 155.818 19.092 156.226 18.876C156.646 18.648 156.994 18.312 157.27 17.868L158.998 18.876C158.626 19.596 158.08 20.154 157.36 20.55C156.652 20.934 155.83 21.126 154.894 21.126ZM166.309 11.28C167.521 11.28 168.493 11.634 169.225 12.342C169.957 13.05 170.323 14.1 170.323 15.492V21H168.073V15.78C168.073 14.94 167.875 14.31 167.479 13.89C167.083 13.458 166.519 13.242 165.787 13.242C164.959 13.242 164.305 13.494 163.825 13.998C163.345 14.49 163.105 15.204 163.105 16.14V21H160.855V7.644H163.105V12.504C163.477 12.108 163.933 11.808 164.473 11.604C165.025 11.388 165.637 11.28 166.309 11.28ZM177.585 21.126C176.613 21.126 175.737 20.916 174.957 20.496C174.177 20.076 173.565 19.494 173.121 18.75C172.689 17.994 172.473 17.142 172.473 16.194C172.473 15.246 172.689 14.4 173.121 13.656C173.565 12.912 174.177 12.33 174.957 11.91C175.737 11.49 176.613 11.28 177.585 11.28C178.569 11.28 179.451 11.49 180.231 11.91C181.011 12.33 181.617 12.912 182.049 13.656C182.493 14.4 182.715 15.246 182.715 16.194C182.715 17.142 182.493 17.994 182.049 18.75C181.617 19.494 181.011 20.076 180.231 20.496C179.451 20.916 178.569 21.126 177.585 21.126ZM177.585 19.2C178.413 19.2 179.097 18.924 179.637 18.372C180.177 17.82 180.447 17.094 180.447 16.194C180.447 15.294 180.177 14.568 179.637 14.016C179.097 13.464 178.413 13.188 177.585 13.188C176.757 13.188 176.073 13.464 175.533 14.016C175.005 14.568 174.741 15.294 174.741 16.194C174.741 17.094 175.005 17.82 175.533 18.372C176.073 18.924 176.757 19.2 177.585 19.2ZM184.867 11.388H187.117V21H184.867V11.388ZM186.001 9.804C185.593 9.804 185.251 9.678 184.975 9.426C184.699 9.162 184.561 8.838 184.561 8.454C184.561 8.07 184.699 7.752 184.975 7.5C185.251 7.236 185.593 7.104 186.001 7.104C186.409 7.104 186.751 7.23 187.027 7.482C187.303 7.722 187.441 8.028 187.441 8.4C187.441 8.796 187.303 9.132 187.027 9.408C186.763 9.672 186.421 9.804 186.001 9.804ZM194.48 21.126C193.484 21.126 192.59 20.916 191.798 20.496C191.006 20.076 190.388 19.494 189.944 18.75C189.5 17.994 189.278 17.142 189.278 16.194C189.278 15.246 189.5 14.4 189.944 13.656C190.388 12.912 191 12.33 191.78 11.91C192.572 11.49 193.472 11.28 194.48 11.28C195.428 11.28 196.256 11.472 196.964 11.856C197.684 12.24 198.224 12.792 198.584 13.512L196.856 14.52C196.58 14.076 196.232 13.746 195.812 13.53C195.404 13.302 194.954 13.188 194.462 13.188C193.622 13.188 192.926 13.464 192.374 14.016C191.822 14.556 191.546 15.282 191.546 16.194C191.546 17.106 191.816 17.838 192.356 18.39C192.908 18.93 193.61 19.2 194.462 19.2C194.954 19.2 195.404 19.092 195.812 18.876C196.232 18.648 196.58 18.312 196.856 17.868L198.584 18.876C198.212 19.596 197.666 20.154 196.946 20.55C196.238 20.934 195.416 21.126 194.48 21.126ZM209.424 16.248C209.424 16.404 209.412 16.626 209.388 16.914H201.846C201.978 17.622 202.32 18.186 202.872 18.606C203.436 19.014 204.132 19.218 204.96 19.218C206.016 19.218 206.886 18.87 207.57 18.174L208.776 19.56C208.344 20.076 207.798 20.466 207.138 20.73C206.478 20.994 205.734 21.126 204.906 21.126C203.85 21.126 202.92 20.916 202.116 20.496C201.312 20.076 200.688 19.494 200.244 18.75C199.812 17.994 199.596 17.142 199.596 16.194C199.596 15.258 199.806 14.418 200.226 13.674C200.658 12.918 201.252 12.33 202.008 11.91C202.764 11.49 203.616 11.28 204.564 11.28C205.5 11.28 206.334 11.49 207.066 11.91C207.81 12.318 208.386 12.9 208.794 13.656C209.214 14.4 209.424 15.264 209.424 16.248ZM204.564 13.08C203.844 13.08 203.232 13.296 202.728 13.728C202.236 14.148 201.936 14.712 201.828 15.42H207.282C207.186 14.724 206.892 14.16 206.4 13.728C205.908 13.296 205.296 13.08 204.564 13.08ZM231.554 11.388L228.008 21H225.848L223.364 14.376L220.844 21H218.684L215.156 11.388H217.28L219.818 18.48L222.464 11.388H224.354L226.946 18.516L229.556 11.388H231.554ZM238.555 11.28C239.767 11.28 240.739 11.634 241.471 12.342C242.203 13.05 242.569 14.1 242.569 15.492V21H240.319V15.78C240.319 14.94 240.121 14.31 239.725 13.89C239.329 13.458 238.765 13.242 238.033 13.242C237.205 13.242 236.551 13.494 236.071 13.998C235.591 14.49 235.351 15.204 235.351 16.14V21H233.101V7.644H235.351V12.504C235.723 12.108 236.179 11.808 236.719 11.604C237.271 11.388 237.883 11.28 238.555 11.28ZM254.547 16.248C254.547 16.404 254.535 16.626 254.511 16.914H246.969C247.101 17.622 247.443 18.186 247.995 18.606C248.559 19.014 249.255 19.218 250.083 19.218C251.139 19.218 252.009 18.87 252.693 18.174L253.899 19.56C253.467 20.076 252.921 20.466 252.261 20.73C251.601 20.994 250.857 21.126 250.029 21.126C248.973 21.126 248.043 20.916 247.239 20.496C246.435 20.076 245.811 19.494 245.367 18.75C244.935 17.994 244.719 17.142 244.719 16.194C244.719 15.258 244.929 14.418 245.349 13.674C245.781 12.918 246.375 12.33 247.131 11.91C247.887 11.49 248.739 11.28 249.687 11.28C250.623 11.28 251.457 11.49 252.189 11.91C252.933 12.318 253.509 12.9 253.917 13.656C254.337 14.4 254.547 15.264 254.547 16.248ZM249.687 13.08C248.967 13.08 248.355 13.296 247.851 13.728C247.359 14.148 247.059 14.712 246.951 15.42H252.405C252.309 14.724 252.015 14.16 251.523 13.728C251.031 13.296 250.419 13.08 249.687 13.08ZM262.162 11.28C263.374 11.28 264.346 11.634 265.078 12.342C265.81 13.05 266.176 14.1 266.176 15.492V21H263.926V15.78C263.926 14.94 263.728 14.31 263.332 13.89C262.936 13.458 262.372 13.242 261.64 13.242C260.812 13.242 260.158 13.494 259.678 13.998C259.198 14.49 258.958 15.204 258.958 16.14V21H256.708V11.388H258.85V12.63C259.222 12.186 259.69 11.85 260.254 11.622C260.818 11.394 261.454 11.28 262.162 11.28ZM2.476 41.388H4.726V51H2.476V41.388ZM3.61 39.804C3.202 39.804 2.86 39.678 2.584 39.426C2.308 39.162 2.17 38.838 2.17 38.454C2.17 38.07 2.308 37.752 2.584 37.5C2.86 37.236 3.202 37.104 3.61 37.104C4.018 37.104 4.36 37.23 4.636 37.482C4.912 37.722 5.05 38.028 5.05 38.4C5.05 38.796 4.912 39.132 4.636 39.408C4.372 39.672 4.03 39.804 3.61 39.804ZM13.4571 50.478C13.1931 50.694 12.8691 50.856 12.4851 50.964C12.1131 51.072 11.7171 51.126 11.2971 51.126C10.2411 51.126 9.42513 50.85 8.84912 50.298C8.27313 49.746 7.98513 48.942 7.98513 47.886V43.26H6.40113V41.46H7.98513V39.264H10.2351V41.46H12.8091V43.26H10.2351V47.832C10.2351 48.3 10.3491 48.66 10.5771 48.912C10.8051 49.152 11.1351 49.272 11.5671 49.272C12.0711 49.272 12.4911 49.14 12.8271 48.876L13.4571 50.478ZM24.6926 51.126C23.6966 51.126 22.8026 50.916 22.0106 50.496C21.2186 50.076 20.6006 49.494 20.1566 48.75C19.7126 47.994 19.4906 47.142 19.4906 46.194C19.4906 45.246 19.7126 44.4 20.1566 43.656C20.6006 42.912 21.2126 42.33 21.9926 41.91C22.7846 41.49 23.6846 41.28 24.6926 41.28C25.6406 41.28 26.4686 41.472 27.1766 41.856C27.8966 42.24 28.4366 42.792 28.7966 43.512L27.0686 44.52C26.7926 44.076 26.4446 43.746 26.0246 43.53C25.6166 43.302 25.1666 43.188 24.6746 43.188C23.8346 43.188 23.1386 43.464 22.5866 44.016C22.0346 44.556 21.7586 45.282 21.7586 46.194C21.7586 47.106 22.0286 47.838 22.5686 48.39C23.1206 48.93 23.8226 49.2 24.6746 49.2C25.1666 49.2 25.6166 49.092 26.0246 48.876C26.4446 48.648 26.7926 48.312 27.0686 47.868L28.7966 48.876C28.4246 49.596 27.8786 50.154 27.1586 50.55C26.4506 50.934 25.6286 51.126 24.6926 51.126ZM34.921 51.126C33.949 51.126 33.073 50.916 32.293 50.496C31.513 50.076 30.901 49.494 30.457 48.75C30.025 47.994 29.809 47.142 29.809 46.194C29.809 45.246 30.025 44.4 30.457 43.656C30.901 42.912 31.513 42.33 32.293 41.91C33.073 41.49 33.949 41.28 34.921 41.28C35.905 41.28 36.787 41.49 37.567 41.91C38.347 42.33 38.953 42.912 39.385 43.656C39.829 44.4 40.051 45.246 40.051 46.194C40.051 47.142 39.829 47.994 39.385 48.75C38.953 49.494 38.347 50.076 37.567 50.496C36.787 50.916 35.905 51.126 34.921 51.126ZM34.921 49.2C35.749 49.2 36.433 48.924 36.973 48.372C37.513 47.82 37.783 47.094 37.783 46.194C37.783 45.294 37.513 44.568 36.973 44.016C36.433 43.464 35.749 43.188 34.921 43.188C34.093 43.188 33.409 43.464 32.869 44.016C32.341 44.568 32.077 45.294 32.077 46.194C32.077 47.094 32.341 47.82 32.869 48.372C33.409 48.924 34.093 49.2 34.921 49.2ZM54.3346 41.28C55.5466 41.28 56.5066 41.634 57.2146 42.342C57.9226 43.038 58.2766 44.088 58.2766 45.492V51H56.0266V45.78C56.0266 44.94 55.8406 44.31 55.4686 43.89C55.0966 43.458 54.5626 43.242 53.8666 43.242C53.1106 43.242 52.5046 43.494 52.0486 43.998C51.5926 44.49 51.3646 45.198 51.3646 46.122V51H49.1146V45.78C49.1146 44.94 48.9286 44.31 48.5566 43.89C48.1846 43.458 47.6506 43.242 46.9546 43.242C46.1866 43.242 45.5746 43.488 45.1186 43.98C44.6746 44.472 44.4526 45.186 44.4526 46.122V51H42.2026V41.388H44.3446V42.612C44.7046 42.18 45.1546 41.85 45.6946 41.622C46.2346 41.394 46.8346 41.28 47.4946 41.28C48.2146 41.28 48.8506 41.418 49.4026 41.694C49.9666 41.958 50.4106 42.354 50.7346 42.882C51.1306 42.378 51.6406 41.988 52.2646 41.712C52.8886 41.424 53.5786 41.28 54.3346 41.28ZM70.2757 46.248C70.2757 46.404 70.2637 46.626 70.2397 46.914H62.6977C62.8297 47.622 63.1717 48.186 63.7237 48.606C64.2877 49.014 64.9837 49.218 65.8117 49.218C66.8677 49.218 67.7377 48.87 68.4217 48.174L69.6277 49.56C69.1957 50.076 68.6497 50.466 67.9897 50.73C67.3297 50.994 66.5857 51.126 65.7577 51.126C64.7017 51.126 63.7717 50.916 62.9677 50.496C62.1637 50.076 61.5397 49.494 61.0957 48.75C60.6637 47.994 60.4477 47.142 60.4477 46.194C60.4477 45.258 60.6577 44.418 61.0777 43.674C61.5097 42.918 62.1037 42.33 62.8597 41.91C63.6157 41.49 64.4677 41.28 65.4157 41.28C66.3517 41.28 67.1857 41.49 67.9177 41.91C68.6617 42.318 69.2377 42.9 69.6457 43.656C70.0657 44.4 70.2757 45.264 70.2757 46.248ZM65.4157 43.08C64.6957 43.08 64.0837 43.296 63.5797 43.728C63.0877 44.148 62.7877 44.712 62.6797 45.42H68.1337C68.0377 44.724 67.7437 44.16 67.2517 43.728C66.7597 43.296 66.1477 43.08 65.4157 43.08ZM75.4069 51.126C74.6269 51.126 73.8649 51.024 73.1209 50.82C72.3769 50.616 71.7829 50.358 71.3389 50.046L72.2029 48.336C72.6349 48.624 73.1509 48.858 73.7509 49.038C74.3629 49.206 74.9629 49.29 75.5509 49.29C76.8949 49.29 77.5669 48.936 77.5669 48.228C77.5669 47.892 77.3929 47.658 77.0449 47.526C76.7089 47.394 76.1629 47.268 75.4069 47.148C74.6149 47.028 73.9669 46.89 73.4629 46.734C72.9709 46.578 72.5389 46.308 72.1669 45.924C71.8069 45.528 71.6269 44.982 71.6269 44.286C71.6269 43.374 72.0049 42.648 72.7609 42.108C73.5289 41.556 74.5609 41.28 75.8569 41.28C76.5169 41.28 77.1769 41.358 77.8369 41.514C78.4969 41.658 79.0369 41.856 79.4569 42.108L78.5929 43.818C77.7769 43.338 76.8589 43.098 75.8389 43.098C75.1789 43.098 74.6749 43.2 74.3269 43.404C73.9909 43.596 73.8229 43.854 73.8229 44.178C73.8229 44.538 74.0029 44.796 74.3629 44.952C74.7349 45.096 75.3049 45.234 76.0729 45.366C76.8409 45.486 77.4709 45.624 77.9629 45.78C78.4549 45.936 78.8749 46.2 79.2229 46.572C79.5829 46.944 79.7629 47.472 79.7629 48.156C79.7629 49.056 79.3729 49.776 78.5929 50.316C77.8129 50.856 76.7509 51.126 75.4069 51.126ZM92.4532 50.478C92.1892 50.694 91.8652 50.856 91.4812 50.964C91.1092 51.072 90.7132 51.126 90.2932 51.126C89.2372 51.126 88.4212 50.85 87.8452 50.298C87.2692 49.746 86.9812 48.942 86.9812 47.886V43.26H85.3972V41.46H86.9812V39.264H89.2312V41.46H91.8052V43.26H89.2312V47.832C89.2312 48.3 89.3452 48.66 89.5732 48.912C89.8012 49.152 90.1312 49.272 90.5632 49.272C91.0672 49.272 91.4872 49.14 91.8232 48.876L92.4532 50.478ZM98.3077 51.126C97.3357 51.126 96.4597 50.916 95.6797 50.496C94.8997 50.076 94.2877 49.494 93.8437 48.75C93.4117 47.994 93.1957 47.142 93.1957 46.194C93.1957 45.246 93.4117 44.4 93.8437 43.656C94.2877 42.912 94.8997 42.33 95.6797 41.91C96.4597 41.49 97.3357 41.28 98.3077 41.28C99.2917 41.28 100.174 41.49 100.954 41.91C101.734 42.33 102.34 42.912 102.772 43.656C103.216 44.4 103.438 45.246 103.438 46.194C103.438 47.142 103.216 47.994 102.772 48.75C102.34 49.494 101.734 50.076 100.954 50.496C100.174 50.916 99.2917 51.126 98.3077 51.126ZM98.3077 49.2C99.1357 49.2 99.8197 48.924 100.36 48.372C100.9 47.82 101.17 47.094 101.17 46.194C101.17 45.294 100.9 44.568 100.36 44.016C99.8197 43.464 99.1357 43.188 98.3077 43.188C97.4797 43.188 96.7957 43.464 96.2557 44.016C95.7277 44.568 95.4637 45.294 95.4637 46.194C95.4637 47.094 95.7277 47.82 96.2557 48.372C96.7957 48.924 97.4797 49.2 98.3077 49.2ZM125.558 41.388L122.012 51H119.852L117.368 44.376L114.848 51H112.688L109.16 41.388H111.284L113.822 48.48L116.468 41.388H118.358L120.95 48.516L123.56 41.388H125.558ZM135.877 46.248C135.877 46.404 135.865 46.626 135.841 46.914H128.299C128.431 47.622 128.773 48.186 129.325 48.606C129.889 49.014 130.585 49.218 131.413 49.218C132.469 49.218 133.339 48.87 134.023 48.174L135.229 49.56C134.797 50.076 134.251 50.466 133.591 50.73C132.931 50.994 132.187 51.126 131.359 51.126C130.303 51.126 129.373 50.916 128.569 50.496C127.765 50.076 127.141 49.494 126.697 48.75C126.265 47.994 126.049 47.142 126.049 46.194C126.049 45.258 126.259 44.418 126.679 43.674C127.111 42.918 127.705 42.33 128.461 41.91C129.217 41.49 130.069 41.28 131.017 41.28C131.953 41.28 132.787 41.49 133.519 41.91C134.263 42.318 134.839 42.9 135.247 43.656C135.667 44.4 135.877 45.264 135.877 46.248ZM131.017 43.08C130.297 43.08 129.685 43.296 129.181 43.728C128.689 44.148 128.389 44.712 128.281 45.42H133.735C133.639 44.724 133.345 44.16 132.853 43.728C132.361 43.296 131.749 43.08 131.017 43.08ZM143.367 41.28C144.303 41.28 145.137 41.484 145.869 41.892C146.613 42.3 147.195 42.876 147.615 43.62C148.035 44.364 148.245 45.222 148.245 46.194C148.245 47.166 148.035 48.03 147.615 48.786C147.195 49.53 146.613 50.106 145.869 50.514C145.137 50.922 144.303 51.126 143.367 51.126C142.707 51.126 142.101 51.012 141.549 50.784C141.009 50.556 140.553 50.214 140.181 49.758V51H138.039V37.644H140.289V42.558C140.673 42.138 141.123 41.82 141.639 41.604C142.167 41.388 142.743 41.28 143.367 41.28ZM143.115 49.2C143.943 49.2 144.621 48.924 145.149 48.372C145.689 47.82 145.959 47.094 145.959 46.194C145.959 45.294 145.689 44.568 145.149 44.016C144.621 43.464 143.943 43.188 143.115 43.188C142.575 43.188 142.089 43.314 141.657 43.566C141.225 43.806 140.883 44.154 140.631 44.61C140.379 45.066 140.253 45.594 140.253 46.194C140.253 46.794 140.379 47.322 140.631 47.778C140.883 48.234 141.225 48.588 141.657 48.84C142.089 49.08 142.575 49.2 143.115 49.2ZM160.807 41.28C162.019 41.28 162.991 41.634 163.723 42.342C164.455 43.05 164.821 44.1 164.821 45.492V51H162.571V45.78C162.571 44.94 162.373 44.31 161.977 43.89C161.581 43.458 161.017 43.242 160.285 43.242C159.457 43.242 158.803 43.494 158.323 43.998C157.843 44.49 157.603 45.204 157.603 46.14V51H155.353V37.644H157.603V42.504C157.975 42.108 158.431 41.808 158.971 41.604C159.523 41.388 160.135 41.28 160.807 41.28ZM172.083 51.126C171.111 51.126 170.235 50.916 169.455 50.496C168.675 50.076 168.063 49.494 167.619 48.75C167.187 47.994 166.971 47.142 166.971 46.194C166.971 45.246 167.187 44.4 167.619 43.656C168.063 42.912 168.675 42.33 169.455 41.91C170.235 41.49 171.111 41.28 172.083 41.28C173.067 41.28 173.949 41.49 174.729 41.91C175.509 42.33 176.115 42.912 176.547 43.656C176.991 44.4 177.213 45.246 177.213 46.194C177.213 47.142 176.991 47.994 176.547 48.75C176.115 49.494 175.509 50.076 174.729 50.496C173.949 50.916 173.067 51.126 172.083 51.126ZM172.083 49.2C172.911 49.2 173.595 48.924 174.135 48.372C174.675 47.82 174.945 47.094 174.945 46.194C174.945 45.294 174.675 44.568 174.135 44.016C173.595 43.464 172.911 43.188 172.083 43.188C171.255 43.188 170.571 43.464 170.031 44.016C169.503 44.568 169.239 45.294 169.239 46.194C169.239 47.094 169.503 47.82 170.031 48.372C170.571 48.924 171.255 49.2 172.083 49.2ZM182.335 51.126C181.555 51.126 180.793 51.024 180.049 50.82C179.305 50.616 178.711 50.358 178.267 50.046L179.131 48.336C179.563 48.624 180.079 48.858 180.679 49.038C181.291 49.206 181.891 49.29 182.479 49.29C183.823 49.29 184.495 48.936 184.495 48.228C184.495 47.892 184.321 47.658 183.973 47.526C183.637 47.394 183.091 47.268 182.335 47.148C181.543 47.028 180.895 46.89 180.391 46.734C179.899 46.578 179.467 46.308 179.095 45.924C178.735 45.528 178.555 44.982 178.555 44.286C178.555 43.374 178.933 42.648 179.689 42.108C180.457 41.556 181.489 41.28 182.785 41.28C183.445 41.28 184.105 41.358 184.765 41.514C185.425 41.658 185.965 41.856 186.385 42.108L185.521 43.818C184.705 43.338 183.787 43.098 182.767 43.098C182.107 43.098 181.603 43.2 181.255 43.404C180.919 43.596 180.751 43.854 180.751 44.178C180.751 44.538 180.931 44.796 181.291 44.952C181.663 45.096 182.233 45.234 183.001 45.366C183.769 45.486 184.399 45.624 184.891 45.78C185.383 45.936 185.803 46.2 186.151 46.572C186.511 46.944 186.691 47.472 186.691 48.156C186.691 49.056 186.301 49.776 185.521 50.316C184.741 50.856 183.679 51.126 182.335 51.126ZM194.406 50.478C194.142 50.694 193.818 50.856 193.434 50.964C193.062 51.072 192.666 51.126 192.246 51.126C191.19 51.126 190.374 50.85 189.798 50.298C189.222 49.746 188.934 48.942 188.934 47.886V43.26H187.35V41.46H188.934V39.264H191.184V41.46H193.758V43.26H191.184V47.832C191.184 48.3 191.298 48.66 191.526 48.912C191.754 49.152 192.084 49.272 192.516 49.272C193.02 49.272 193.44 49.14 193.776 48.876L194.406 50.478ZM196.257 41.388H198.507V51H196.257V41.388ZM197.391 39.804C196.983 39.804 196.641 39.678 196.365 39.426C196.089 39.162 195.951 38.838 195.951 38.454C195.951 38.07 196.089 37.752 196.365 37.5C196.641 37.236 196.983 37.104 197.391 37.104C197.799 37.104 198.141 37.23 198.417 37.482C198.693 37.722 198.831 38.028 198.831 38.4C198.831 38.796 198.693 39.132 198.417 39.408C198.153 39.672 197.811 39.804 197.391 39.804ZM206.914 41.28C208.126 41.28 209.098 41.634 209.83 42.342C210.562 43.05 210.928 44.1 210.928 45.492V51H208.678V45.78C208.678 44.94 208.48 44.31 208.084 43.89C207.688 43.458 207.124 43.242 206.392 43.242C205.564 43.242 204.91 43.494 204.43 43.998C203.95 44.49 203.71 45.204 203.71 46.14V51H201.46V41.388H203.602V42.63C203.974 42.186 204.442 41.85 205.006 41.622C205.57 41.394 206.206 41.28 206.914 41.28ZM223.411 41.388V49.542C223.411 52.926 221.683 54.618 218.227 54.618C217.303 54.618 216.427 54.498 215.599 54.258C214.771 54.03 214.087 53.694 213.547 53.25L214.555 51.558C214.975 51.906 215.503 52.182 216.139 52.386C216.787 52.602 217.441 52.71 218.101 52.71C219.157 52.71 219.931 52.47 220.423 51.99C220.915 51.51 221.161 50.778 221.161 49.794V49.29C220.777 49.71 220.309 50.028 219.757 50.244C219.205 50.46 218.599 50.568 217.939 50.568C217.027 50.568 216.199 50.376 215.455 49.992C214.723 49.596 214.141 49.044 213.709 48.336C213.289 47.628 213.079 46.818 213.079 45.906C213.079 44.994 213.289 44.19 213.709 43.494C214.141 42.786 214.723 42.24 215.455 41.856C216.199 41.472 217.027 41.28 217.939 41.28C218.635 41.28 219.265 41.394 219.829 41.622C220.405 41.85 220.885 42.198 221.269 42.666V41.388H223.411ZM218.281 48.66C219.133 48.66 219.829 48.408 220.369 47.904C220.921 47.388 221.197 46.722 221.197 45.906C221.197 45.102 220.921 44.448 220.369 43.944C219.829 43.44 219.133 43.188 218.281 43.188C217.417 43.188 216.709 43.44 216.157 43.944C215.617 44.448 215.347 45.102 215.347 45.906C215.347 46.722 215.617 47.388 216.157 47.904C216.709 48.408 217.417 48.66 218.281 48.66ZM226.081 38.4H228.745L228.295 46.824H226.513L226.081 38.4ZM227.413 51.126C226.993 51.126 226.645 50.994 226.369 50.73C226.093 50.454 225.955 50.118 225.955 49.722C225.955 49.326 226.093 48.996 226.369 48.732C226.645 48.468 226.993 48.336 227.413 48.336C227.821 48.336 228.157 48.468 228.421 48.732C228.697 48.996 228.835 49.326 228.835 49.722C228.835 50.118 228.697 50.454 228.421 50.73C228.157 50.994 227.821 51.126 227.413 51.126ZM230.998 38.4H232.942L232.78 43.386H231.142L230.998 38.4ZM234.472 38.4H236.416L236.254 43.386H234.616L234.472 38.4Z" fill="white"/>
<path d="M4.654 96.18C7.426 96.18 8.902 94.722 8.902 91.752V83.4H2.08V85.362H6.562V91.878C6.562 93.426 5.896 94.2 4.6 94.2C3.61 94.2 2.782 93.696 2.098 92.76L0.766 94.362C1.63 95.532 3.07 96.18 4.654 96.18ZM15.6402 86.28C14.0922 86.28 12.5982 86.676 11.5722 87.468L12.4542 89.106C13.1742 88.512 14.2902 88.152 15.3702 88.152C16.9722 88.152 17.7642 88.926 17.7642 90.24V90.384H15.2802C12.3642 90.384 11.2842 91.644 11.2842 93.246C11.2842 94.92 12.6702 96.126 14.8662 96.126C16.3062 96.126 17.3502 95.658 17.8902 94.83V96H20.0142V90.366C20.0142 87.594 18.4122 86.28 15.6402 86.28ZM15.3342 94.488C14.1822 94.488 13.4982 93.966 13.4982 93.156C13.4982 92.454 13.9122 91.878 15.4422 91.878H17.7642V92.994C17.3862 93.984 16.4322 94.488 15.3342 94.488ZM24.9718 94.2L30.2638 87.81V86.388H22.2178V88.188H27.3838L22.1098 94.578V96H30.4078V94.2H24.9718ZM33.3078 93.138C32.4798 93.138 31.8498 93.732 31.8498 94.632C31.8498 95.28 32.1918 95.748 32.6958 95.964L31.9758 98.718H33.4338L34.3518 96.18C34.6758 95.352 34.7658 95.028 34.7658 94.632C34.7658 93.75 34.1538 93.138 33.3078 93.138ZM50.9683 96L50.9503 83.4H49.0243L44.1103 91.752L39.1063 83.4H37.1803V96H39.4123V87.756L43.5523 94.56H44.5963L48.7363 87.648L48.7543 96H50.9683ZM57.8277 86.28C56.2797 86.28 54.7857 86.676 53.7597 87.468L54.6417 89.106C55.3617 88.512 56.4777 88.152 57.5577 88.152C59.1597 88.152 59.9517 88.926 59.9517 90.24V90.384H57.4677C54.5517 90.384 53.4717 91.644 53.4717 93.246C53.4717 94.92 54.8577 96.126 57.0537 96.126C58.4937 96.126 59.5377 95.658 60.0777 94.83V96H62.2017V90.366C62.2017 87.594 60.5997 86.28 57.8277 86.28ZM57.5217 94.488C56.3697 94.488 55.6857 93.966 55.6857 93.156C55.6857 92.454 56.0997 91.878 57.6297 91.878H59.9517V92.994C59.5737 93.984 58.6197 94.488 57.5217 94.488ZM70.5433 86.28C69.1393 86.28 67.9693 86.748 67.2313 87.63V86.388H65.0893V96H67.3393V91.14C67.3393 89.214 68.4193 88.242 70.0213 88.242C71.4613 88.242 72.3073 89.07 72.3073 90.78V96H74.5573V90.492C74.5573 87.594 72.8473 86.28 70.5433 86.28ZM78.5455 84.804C79.3915 84.804 79.9855 84.192 79.9855 83.4C79.9855 82.662 79.3735 82.104 78.5455 82.104C77.7175 82.104 77.1055 82.698 77.1055 83.454C77.1055 84.21 77.7175 84.804 78.5455 84.804ZM77.4115 96H79.6615V86.388H77.4115V96ZM82.6147 96H84.8647V82.644H82.6147V96ZM91.4898 86.28C89.9418 86.28 88.4478 86.676 87.4218 87.468L88.3038 89.106C89.0238 88.512 90.1398 88.152 91.2198 88.152C92.8218 88.152 93.6138 88.926 93.6138 90.24V90.384H91.1298C88.2138 90.384 87.1338 91.644 87.1338 93.246C87.1338 94.92 88.5198 96.126 90.7158 96.126C92.1558 96.126 93.1998 95.658 93.7398 94.83V96H95.8638V90.366C95.8638 87.594 94.2618 86.28 91.4898 86.28ZM91.1838 94.488C90.0318 94.488 89.3478 93.966 89.3478 93.156C89.3478 92.454 89.7618 91.878 91.2918 91.878H93.6138V92.994C93.2358 93.984 92.2818 94.488 91.1838 94.488Z" fill="white"/>
</svg>
