<svg width="200" height="121" viewBox="0 0 200 121" fill="none" xmlns="http://www.w3.org/2000/svg">
<rect x="1" y="1.32178" width="198" height="118" rx="12" fill="white" stroke="#3A3A3A" stroke-width="2"/>
<path d="M0 86.3218H200V107.322C200 114.501 194.18 120.322 187 120.322H13C5.8203 120.322 0 114.501 0 107.322V86.3218Z" fill="#3A3A3A"/>
<path d="M26.36 21.6868V18.7918H31.43V17.1868H26.36V14.4568H32.075V12.8218H24.41V23.3218H32.285V21.6868H26.36ZM43.2066 23.3218L39.2616 17.8918L42.9366 12.8218H40.8216L38.1666 16.5568L35.4816 12.8218H33.2766L36.9666 17.9668L33.0666 23.3218H35.2866L38.1066 19.3318L40.9566 23.3218H43.2066ZM49.2212 23.4718C50.9462 23.4718 52.4162 22.8568 53.3912 21.7168L52.1312 20.5168C51.3662 21.3568 50.4212 21.7618 49.3262 21.7618C47.1512 21.7618 45.5762 20.2318 45.5762 18.0718C45.5762 15.9118 47.1512 14.3818 49.3262 14.3818C50.4212 14.3818 51.3662 14.7868 52.1312 15.6118L53.3912 14.4268C52.4162 13.2868 50.9462 12.6718 49.2362 12.6718C46.0112 12.6718 43.6112 14.9368 43.6112 18.0718C43.6112 21.2068 46.0112 23.4718 49.2212 23.4718ZM57.2096 21.6868V18.7918H62.2796V17.1868H57.2096V14.4568H62.9246V12.8218H55.2596V23.3218H63.1346V21.6868H57.2096ZM65.3084 23.3218H72.7484V21.6718H67.2584V12.8218H65.3084V23.3218ZM76.2379 21.6868V18.7918H81.3079V17.1868H76.2379V14.4568H81.9529V12.8218H74.2879V23.3218H82.1629V21.6868H76.2379ZM91.7318 12.8218V19.9318L85.9418 12.8218H84.3368V23.3218H86.2718V16.2118L92.0618 23.3218H93.6668V12.8218H91.7318ZM98.6103 23.3218H100.56V14.4718H104.04V12.8218H95.1303V14.4718H98.6103V23.3218ZM112.904 23.4718C115.784 23.4718 117.149 22.0318 117.149 20.3518C117.149 16.4968 110.924 17.9518 110.924 15.7168C110.924 14.9218 111.584 14.2918 113.204 14.2918C114.119 14.2918 115.154 14.5618 116.099 15.1168L116.714 13.6018C115.799 13.0018 114.479 12.6718 113.219 12.6718C110.339 12.6718 108.989 14.1118 108.989 15.8068C108.989 19.7068 115.229 18.2218 115.229 20.4868C115.229 21.2668 114.539 21.8518 112.904 21.8518C111.614 21.8518 110.279 21.3718 109.439 20.6968L108.764 22.2118C109.634 22.9618 111.269 23.4718 112.904 23.4718ZM121.033 21.6868V18.7918H126.103V17.1868H121.033V14.4568H126.748V12.8218H119.083V23.3218H126.958V21.6868H121.033ZM138.102 23.3218L135.687 19.8718C137.112 19.3168 137.922 18.1468 137.922 16.5568C137.922 14.2318 136.212 12.8218 133.452 12.8218H129.132V23.3218H131.082V20.2618H133.452C133.587 20.2618 133.722 20.2618 133.857 20.2468L136.002 23.3218H138.102ZM135.957 16.5568C135.957 17.8768 135.072 18.6568 133.362 18.6568H131.082V14.4718H133.362C135.072 14.4718 135.957 15.2368 135.957 16.5568ZM147.753 12.8218L144.228 20.9218L140.733 12.8218H138.618L143.208 23.3218H145.128L149.703 12.8218H147.753ZM150.811 23.3218H152.761V12.8218H150.811V23.3218ZM160.461 23.4718C162.186 23.4718 163.656 22.8568 164.631 21.7168L163.371 20.5168C162.606 21.3568 161.661 21.7618 160.566 21.7618C158.391 21.7618 156.816 20.2318 156.816 18.0718C156.816 15.9118 158.391 14.3818 160.566 14.3818C161.661 14.3818 162.606 14.7868 163.371 15.6118L164.631 14.4268C163.656 13.2868 162.186 12.6718 160.476 12.6718C157.251 12.6718 154.851 14.9368 154.851 18.0718C154.851 21.2068 157.251 23.4718 160.461 23.4718ZM168.45 21.6868V18.7918H173.52V17.1868H168.45V14.4568H174.165V12.8218H166.5V23.3218H174.375V21.6868H168.45Z" fill="#3A3A3A"/>
<path d="M58.5 36.3843L56.0828 41.2824L50.68 42.0633L54.59 45.8777L53.6656 51.2593L58.5 48.7199L63.3344 51.2593L62.41 45.8777L66.32 42.0687L60.9172 41.2824L58.5 36.3843Z" fill="#D46D39"/>
<path d="M79.0789 36.3843L76.6618 41.2824L71.2589 42.0633L75.1689 45.8777L74.2446 51.2593L79.0789 48.7199L83.9133 51.2593L82.9889 45.8777L86.8989 42.0687L81.4961 41.2824L79.0789 36.3843Z" fill="#D46D39"/>
<g clip-path="url(#clip0_636_403)">
<path d="M99.6579 36.3843L97.2407 41.2824L91.8379 42.0633L95.7479 45.8777L94.8235 51.2593L99.6579 48.7199L104.492 51.2593L103.568 45.8777L107.478 42.0687L102.075 41.2824L99.6579 36.3843Z" fill="#D46D39"/>
</g>
<g clip-path="url(#clip1_636_403)">
<path d="M120.237 36.3843L117.82 41.2824L112.417 42.0633L116.327 45.8777L115.402 51.2593L120.237 48.7199L125.071 51.2593L124.147 45.8777L128.057 42.0687L122.654 41.2824L120.237 36.3843Z" fill="#D46D39"/>
</g>
<g clip-path="url(#clip2_636_403)">
<path d="M140.816 36.3843L138.399 41.2824L132.996 42.0633L136.906 45.8777L135.981 51.2593L140.816 48.7199L145.65 51.2593L144.726 45.8777L148.636 42.0687L143.233 41.2824L140.816 36.3843Z" fill="#D46D39"/>
</g>
<path d="M36.304 68.5398H35.044L35.38 65.4178H39.86V64.5218H34.498L33.994 69.4358H36.08C38.572 69.4358 39.356 70.2198 39.356 71.4798C39.356 72.6698 38.474 73.4818 36.808 73.4818C35.548 73.4818 34.428 73.0058 33.798 72.3478L33.308 73.1458C34.064 73.9158 35.408 74.4058 36.822 74.4058C39.216 74.4058 40.378 73.1038 40.378 71.4378C40.378 69.7018 39.258 68.5398 36.304 68.5398ZM42.4137 74.3918C42.8197 74.3918 43.1697 74.0558 43.1697 73.6218C43.1697 73.1878 42.8197 72.8658 42.4137 72.8658C42.0077 72.8658 41.6717 73.1878 41.6717 73.6218C41.6717 74.0558 42.0077 74.3918 42.4137 74.3918ZM48.3801 74.4058C50.6481 74.4058 52.3001 72.5438 52.3001 69.4218C52.3001 66.2998 50.6481 64.4378 48.3801 64.4378C46.1121 64.4378 44.4741 66.2998 44.4741 69.4218C44.4741 72.5438 46.1121 74.4058 48.3801 74.4058ZM48.3801 73.4818C46.6721 73.4818 45.4961 72.0398 45.4961 69.4218C45.4961 66.8038 46.6721 65.3618 48.3801 65.3618C50.0881 65.3618 51.2641 66.8038 51.2641 69.4218C51.2641 72.0398 50.0881 73.4818 48.3801 73.4818ZM52.3922 75.7218H53.3022L57.9222 62.5338H57.0122L52.3922 75.7218ZM60.7356 68.5398H59.4756L59.8116 65.4178H64.2916V64.5218H58.9296L58.4256 69.4358H60.5116C63.0036 69.4358 63.7876 70.2198 63.7876 71.4798C63.7876 72.6698 62.9056 73.4818 61.2396 73.4818C59.9796 73.4818 58.8596 73.0058 58.2296 72.3478L57.7396 73.1458C58.4956 73.9158 59.8396 74.4058 61.2536 74.4058C63.6476 74.4058 64.8096 73.1038 64.8096 71.4378C64.8096 69.7018 63.6896 68.5398 60.7356 68.5398ZM66.8453 74.3918C67.2513 74.3918 67.6013 74.0558 67.6013 73.6218C67.6013 73.1878 67.2513 72.8658 66.8453 72.8658C66.4393 72.8658 66.1033 73.1878 66.1033 73.6218C66.1033 74.0558 66.4393 74.3918 66.8453 74.3918ZM72.8117 74.4058C75.0797 74.4058 76.7317 72.5438 76.7317 69.4218C76.7317 66.2998 75.0797 64.4378 72.8117 64.4378C70.5437 64.4378 68.9057 66.2998 68.9057 69.4218C68.9057 72.5438 70.5437 74.4058 72.8117 74.4058ZM72.8117 73.4818C71.1037 73.4818 69.9277 72.0398 69.9277 69.4218C69.9277 66.8038 71.1037 65.3618 72.8117 65.3618C74.5197 65.3618 75.6957 66.8038 75.6957 69.4218C75.6957 72.0398 74.5197 73.4818 72.8117 73.4818ZM81.9513 70.9618H85.6193V70.0938H81.9513V70.9618ZM92.1511 73.4258L95.4831 70.1498C96.7991 68.8618 97.0931 68.0218 97.0931 67.0838C97.0931 65.4458 95.8331 64.4378 93.8451 64.4378C92.3471 64.4378 91.1291 64.9418 90.3731 65.8378L91.0871 66.4538C91.7311 65.7118 92.6131 65.3618 93.7611 65.3618C95.2591 65.3618 96.0571 66.0618 96.0571 67.1958C96.0571 67.8678 95.8471 68.5258 94.7411 69.6178L90.6671 73.6078V74.3218H97.5411V73.4258H92.1511ZM101.382 68.5398H100.122L100.458 65.4178H104.938V64.5218H99.5761L99.0721 69.4358H101.158C103.65 69.4358 104.434 70.2198 104.434 71.4798C104.434 72.6698 103.552 73.4818 101.886 73.4818C100.626 73.4818 99.5061 73.0058 98.8761 72.3478L98.3861 73.1458C99.1421 73.9158 100.486 74.4058 101.9 74.4058C104.294 74.4058 105.456 73.1038 105.456 71.4378C105.456 69.7018 104.336 68.5398 101.382 68.5398ZM110.796 68.4558C109.438 68.4558 108.29 69.0578 107.8 70.1358C107.772 69.8418 107.758 69.5618 107.758 69.3378C107.758 66.6778 109.116 65.3198 111.23 65.3198C111.958 65.3198 112.63 65.4458 113.134 65.7818L113.54 64.9698C112.924 64.5918 112.098 64.4378 111.216 64.4378C108.556 64.4378 106.736 66.1738 106.736 69.5058C106.736 72.5998 108.15 74.4058 110.754 74.4058C112.658 74.4058 114.1 73.2298 114.1 71.3958C114.1 69.6038 112.742 68.4558 110.796 68.4558ZM110.712 73.5518C109.018 73.5518 108.122 72.5298 108.122 71.4518C108.122 70.2338 109.144 69.3098 110.642 69.3098C112.154 69.3098 113.106 70.1358 113.106 71.4238C113.106 72.7258 112.126 73.5518 110.712 73.5518ZM127.625 74.3218L125.231 70.9618C126.659 70.4998 127.471 69.4218 127.471 67.8818C127.471 65.7818 125.959 64.5218 123.467 64.5218H119.799V74.3218H120.835V71.2138H123.467C123.747 71.2138 123.999 71.1998 124.251 71.1718L126.491 74.3218H127.625ZM123.439 70.3318H120.835V65.4178H123.439C125.399 65.4178 126.435 66.3138 126.435 67.8818C126.435 69.4218 125.399 70.3318 123.439 70.3318ZM132.214 66.9018C131.052 66.9018 129.96 67.2658 129.218 67.8958L129.666 68.6378C130.268 68.1058 131.164 67.7698 132.116 67.7698C133.488 67.7698 134.202 68.4558 134.202 69.7158V70.1638H131.864C129.75 70.1638 129.022 71.1158 129.022 72.2498C129.022 73.5238 130.044 74.3918 131.71 74.3918C132.928 74.3918 133.796 73.9298 134.244 73.1738V74.3218H135.196V69.7578C135.196 67.8538 134.118 66.9018 132.214 66.9018ZM131.864 73.6078C130.688 73.6078 130.002 73.0758 130.002 72.2218C130.002 71.4658 130.464 70.9058 131.892 70.9058H134.202V72.1098C133.81 73.0758 132.984 73.6078 131.864 73.6078ZM141.424 73.1598C141.144 73.4118 140.738 73.5378 140.332 73.5378C139.506 73.5378 139.058 73.0618 139.058 72.1938V67.7978H141.298V66.9578H139.058V65.3478H138.064V66.9578H136.748V67.7978H138.064V72.2498C138.064 73.6078 138.834 74.3918 140.22 74.3918C140.794 74.3918 141.382 74.2238 141.774 73.8738L141.424 73.1598ZM144.087 65.3478C144.507 65.3478 144.815 65.0258 144.815 64.6198C144.815 64.2418 144.493 63.9338 144.087 63.9338C143.681 63.9338 143.359 64.2558 143.359 64.6338C143.359 65.0258 143.681 65.3478 144.087 65.3478ZM143.583 74.3218H144.577V66.9578H143.583V74.3218ZM151.095 66.9018C149.821 66.9018 148.827 67.4198 148.295 68.3158V66.9578H147.343V74.3218H148.337V70.4578C148.337 68.7778 149.331 67.7978 150.913 67.7978C152.313 67.7978 153.125 68.5958 153.125 70.1498V74.3218H154.119V70.0518C154.119 67.9378 152.887 66.9018 151.095 66.9018ZM162.711 66.9578V68.3718C162.095 67.4058 161.031 66.9018 159.799 66.9018C157.699 66.9018 156.103 68.3438 156.103 70.4578C156.103 72.5718 157.699 74.0418 159.799 74.0418C161.003 74.0418 162.053 73.5518 162.669 72.6138V73.5518C162.669 75.3718 161.815 76.2258 159.953 76.2258C158.819 76.2258 157.755 75.8478 157.055 75.2178L156.551 75.9738C157.321 76.7018 158.637 77.1078 159.981 77.1078C162.417 77.1078 163.663 75.9598 163.663 73.4258V66.9578H162.711ZM159.897 73.1598C158.273 73.1598 157.111 72.0538 157.111 70.4578C157.111 68.8618 158.273 67.7698 159.897 67.7698C161.521 67.7698 162.697 68.8618 162.697 70.4578C162.697 72.0538 161.521 73.1598 159.897 73.1598Z" fill="#3A3A3A"/>
<path d="M12.052 107.418C14.608 107.418 16.504 105.594 16.504 103.122C16.504 100.65 14.608 98.8258 12.052 98.8258C9.472 98.8258 7.576 100.662 7.576 103.122C7.576 105.582 9.472 107.418 12.052 107.418ZM12.052 106.35C10.168 106.35 8.776 104.982 8.776 103.122C8.776 101.262 10.168 99.8938 12.052 99.8938C13.912 99.8938 15.304 101.262 15.304 103.122C15.304 104.982 13.912 106.35 12.052 106.35ZM20.9421 107.394C22.0821 107.394 23.0301 106.914 23.5341 106.026L22.6581 105.474C22.2501 106.098 21.6261 106.386 20.9301 106.386C19.6821 106.386 18.7461 105.522 18.7461 104.142C18.7461 102.786 19.6821 101.91 20.9301 101.91C21.6261 101.91 22.2501 102.198 22.6581 102.822L23.5341 102.258C23.0301 101.37 22.0821 100.902 20.9421 100.902C18.9861 100.902 17.5821 102.246 17.5821 104.142C17.5821 106.038 18.9861 107.394 20.9421 107.394ZM28.3236 106.122C28.0836 106.314 27.7596 106.422 27.4236 106.422C26.7876 106.422 26.4276 106.038 26.4276 105.354V101.91H28.2516V100.962H26.4276V99.5698H25.2756V100.962H24.1956V101.91H25.2756V105.402C25.2756 106.686 26.0076 107.394 27.2916 107.394C27.8076 107.394 28.3356 107.25 28.6836 106.95L28.3236 106.122ZM34.379 106.278L36.947 103.806C38.087 102.714 38.327 101.982 38.327 101.166C38.327 99.7258 37.199 98.8258 35.447 98.8258C34.139 98.8258 33.023 99.2938 32.375 100.098L33.191 100.806C33.707 100.182 34.439 99.8938 35.339 99.8938C36.515 99.8938 37.127 100.422 37.127 101.286C37.127 101.814 36.959 102.342 36.071 103.206L32.651 106.506V107.322H38.687V106.278H34.379ZM43.0705 107.418C45.0265 107.418 46.4905 105.858 46.4905 103.122C46.4905 100.386 45.0265 98.8258 43.0705 98.8258C41.1025 98.8258 39.6385 100.386 39.6385 103.122C39.6385 105.858 41.1025 107.418 43.0705 107.418ZM43.0705 106.35C41.7505 106.35 40.8385 105.27 40.8385 103.122C40.8385 100.974 41.7505 99.8938 43.0705 99.8938C44.3785 99.8938 45.2905 100.974 45.2905 103.122C45.2905 105.27 44.3785 106.35 43.0705 106.35ZM49.2033 106.278L51.7713 103.806C52.9113 102.714 53.1513 101.982 53.1513 101.166C53.1513 99.7258 52.0233 98.8258 50.2713 98.8258C48.9633 98.8258 47.8473 99.2938 47.1993 100.098L48.0153 100.806C48.5312 100.182 49.2633 99.8938 50.1633 99.8938C51.3393 99.8938 51.9513 100.422 51.9513 101.286C51.9513 101.814 51.7833 102.342 50.8953 103.206L47.4753 106.506V107.322H53.5113V106.278H49.2033ZM54.0179 98.9218V99.9658H55.9139V107.322H57.1019V98.9218H54.0179Z" fill="white"/>
<path d="M79.356 98.9218L76.308 105.822L73.284 98.9218H71.988L75.684 107.322H76.872L80.556 98.9218H79.356ZM86.7267 104.178C86.7267 102.222 85.4187 100.902 83.5827 100.902C81.7467 100.902 80.3907 102.258 80.3907 104.142C80.3907 106.038 81.7587 107.394 83.8107 107.394C84.8667 107.394 85.7427 107.034 86.3187 106.362L85.6827 105.618C85.2147 106.134 84.5907 106.386 83.8467 106.386C82.5867 106.386 81.6867 105.642 81.5427 104.526H86.7027C86.7147 104.418 86.7267 104.274 86.7267 104.178ZM83.5827 101.874C84.6987 101.874 85.5027 102.63 85.6227 103.698H81.5427C81.6627 102.618 82.4787 101.874 83.5827 101.874ZM89.4304 102.03V100.962H88.3264V107.322H89.4784V104.154C89.4784 102.762 90.2464 102.006 91.4824 102.006C91.5664 102.006 91.6504 102.006 91.7464 102.018V100.902C90.6304 100.902 89.8384 101.286 89.4304 102.03ZM93.7422 99.7378C94.1982 99.7378 94.5222 99.4018 94.5222 98.9698C94.5222 98.5618 94.1862 98.2378 93.7422 98.2378C93.2982 98.2378 92.9622 98.5738 92.9622 98.9938C92.9622 99.4138 93.2982 99.7378 93.7422 99.7378ZM93.1662 107.322H94.3182V100.962H93.1662V107.322ZM102.29 99.7378C102.746 99.7378 103.07 99.4018 103.07 98.9698C103.07 98.5618 102.734 98.2378 102.29 98.2378C101.846 98.2378 101.51 98.5738 101.51 98.9938C101.51 99.4138 101.846 99.7378 102.29 99.7378ZM96.6858 100.398V100.962H95.6058V101.91H96.6858V107.322H97.8378V101.91H99.6618V100.962H97.8138V100.41C97.8138 99.6778 98.1618 99.2938 98.8458 99.2938C99.1818 99.2938 99.4938 99.4138 99.7338 99.5938L100.082 98.7178C99.7578 98.4658 99.2778 98.3458 98.7858 98.3458C97.4298 98.3458 96.6858 99.1618 96.6858 100.398ZM101.714 107.322H102.866V100.962H101.714V107.322ZM110.809 104.178C110.809 102.222 109.501 100.902 107.665 100.902C105.829 100.902 104.473 102.258 104.473 104.142C104.473 106.038 105.841 107.394 107.893 107.394C108.949 107.394 109.825 107.034 110.401 106.362L109.765 105.618C109.297 106.134 108.673 106.386 107.929 106.386C106.669 106.386 105.769 105.642 105.625 104.526H110.785C110.797 104.418 110.809 104.274 110.809 104.178ZM107.665 101.874C108.781 101.874 109.585 102.63 109.705 103.698H105.625C105.745 102.618 106.561 101.874 107.665 101.874ZM117.256 98.4178V101.922C116.728 101.238 115.936 100.902 115.036 100.902C113.176 100.902 111.82 102.198 111.82 104.142C111.82 106.086 113.176 107.394 115.036 107.394C115.972 107.394 116.788 107.034 117.304 106.314V107.322H118.408V98.4178H117.256ZM115.132 106.386C113.908 106.386 112.984 105.498 112.984 104.142C112.984 102.786 113.908 101.91 115.132 101.91C116.344 101.91 117.268 102.786 117.268 104.142C117.268 105.498 116.344 106.386 115.132 106.386ZM127.183 100.902C126.283 100.902 125.491 101.238 124.963 101.922V98.4178H123.811V107.322H124.915V106.314C125.431 107.034 126.247 107.394 127.183 107.394C129.043 107.394 130.399 106.086 130.399 104.142C130.399 102.198 129.043 100.902 127.183 100.902ZM127.087 106.386C125.875 106.386 124.951 105.498 124.951 104.142C124.951 102.786 125.875 101.91 127.087 101.91C128.311 101.91 129.235 102.786 129.235 104.142C129.235 105.498 128.311 106.386 127.087 106.386ZM136.315 100.962L134.119 106.05L131.899 100.962H130.699L133.507 107.31L133.303 107.754C132.991 108.486 132.643 108.738 132.091 108.738C131.659 108.738 131.263 108.57 130.951 108.27L130.459 109.134C130.855 109.518 131.479 109.722 132.091 109.722C133.063 109.722 133.795 109.302 134.359 107.958L137.443 100.962H136.315ZM141.908 107.322H147.656V106.278H143.108V98.9218H141.908V107.322ZM149.441 99.7378C149.897 99.7378 150.221 99.4018 150.221 98.9698C150.221 98.5618 149.885 98.2378 149.441 98.2378C148.997 98.2378 148.661 98.5738 148.661 98.9938C148.661 99.4138 148.997 99.7378 149.441 99.7378ZM148.865 107.322H150.017V100.962H148.865V107.322ZM156.717 100.962L154.485 106.062L152.301 100.962H151.101L153.885 107.322H155.061L157.845 100.962H156.717ZM164.492 104.178C164.492 102.222 163.184 100.902 161.348 100.902C159.512 100.902 158.156 102.258 158.156 104.142C158.156 106.038 159.524 107.394 161.576 107.394C162.632 107.394 163.508 107.034 164.084 106.362L163.448 105.618C162.98 106.134 162.356 106.386 161.612 106.386C160.352 106.386 159.452 105.642 159.308 104.526H164.468C164.48 104.418 164.492 104.274 164.492 104.178ZM161.348 101.874C162.464 101.874 163.268 102.63 163.388 103.698H159.308C159.428 102.618 160.244 101.874 161.348 101.874ZM168.864 107.394C170.004 107.394 170.952 106.914 171.456 106.026L170.58 105.474C170.172 106.098 169.548 106.386 168.852 106.386C167.604 106.386 166.668 105.522 166.668 104.142C166.668 102.786 167.604 101.91 168.852 101.91C169.548 101.91 170.172 102.198 170.58 102.822L171.456 102.258C170.952 101.37 170.004 100.902 168.864 100.902C166.908 100.902 165.504 102.246 165.504 104.142C165.504 106.038 166.908 107.394 168.864 107.394ZM176.261 100.902C175.289 100.902 174.497 101.25 174.017 101.862V98.4178H172.865V107.322H174.017V104.046C174.017 102.666 174.809 101.934 176.033 101.934C177.125 101.934 177.749 102.546 177.749 103.794V107.322H178.901V103.662C178.901 101.79 177.809 100.902 176.261 100.902ZM183.349 100.902C182.329 100.902 181.381 101.19 180.721 101.718L181.201 102.582C181.693 102.162 182.461 101.898 183.217 101.898C184.357 101.898 184.921 102.462 184.921 103.434V103.662H183.097C181.201 103.662 180.541 104.502 180.541 105.522C180.541 106.626 181.453 107.394 182.893 107.394C183.889 107.394 184.597 107.058 184.981 106.482V107.322H186.073V103.482C186.073 101.742 185.089 100.902 183.349 100.902ZM183.085 106.506C182.209 106.506 181.681 106.11 181.681 105.474C181.681 104.934 182.005 104.49 183.145 104.49H184.921V105.378C184.633 106.11 183.949 106.506 183.085 106.506ZM191.421 106.122C191.181 106.314 190.857 106.422 190.521 106.422C189.885 106.422 189.525 106.038 189.525 105.354V101.91H191.349V100.962H189.525V99.5698H188.373V100.962H187.293V101.91H188.373V105.402C188.373 106.686 189.105 107.394 190.389 107.394C190.905 107.394 191.433 107.25 191.781 106.95L191.421 106.122Z" fill="white"/>
<defs>
<clipPath id="clip0_636_403">
<rect width="17" height="17" fill="white" transform="translate(91.1579 35.3218)"/>
</clipPath>
<clipPath id="clip1_636_403">
<rect width="17" height="17" fill="white" transform="translate(111.737 35.3218)"/>
</clipPath>
<clipPath id="clip2_636_403">
<rect width="17" height="17" fill="white" transform="translate(132.316 35.3218)"/>
</clipPath>
</defs>
</svg>
