<svg xmlns="http://www.w3.org/2000/svg" xmlns:xlink="http://www.w3.org/1999/xlink" width="200" height="121" fill="none" xmlns:v="https://vecta.io/nano"><rect x="1" y="1.322" width="198" height="118" rx="12" fill="#fff" stroke="#3a3a3a" stroke-width="2"/><path d="M0 86.322h200v21c0 7.179-5.82 13-13 13H13c-7.18 0-13-5.821-13-13v-21zm26.36-64.635v-2.895h5.07v-1.605h-5.07v-2.73h5.715v-1.635H24.41v10.5h7.875v-1.635H26.36zm16.847 1.635l-3.945-5.43 3.675-5.07h-2.115l-2.655 3.735-2.685-3.735h-2.205l3.69 5.145-3.9 5.355h2.22l2.82-3.99 2.85 3.99h2.25zm6.015.15c1.725 0 3.195-.615 4.17-1.755l-1.26-1.2c-.765.84-1.71 1.245-2.805 1.245-2.175 0-3.75-1.53-3.75-3.69s1.575-3.69 3.75-3.69c1.095 0 2.04.405 2.805 1.23l1.26-1.185c-.975-1.14-2.445-1.755-4.155-1.755-3.225 0-5.625 2.265-5.625 5.4s2.4 5.4 5.61 5.4zm7.988-1.785v-2.895h5.07v-1.605h-5.07v-2.73h5.715v-1.635H55.26v10.5h7.875v-1.635H57.21zm8.099 1.635h7.44v-1.65h-5.49v-8.85h-1.95v10.5zm10.929-1.635v-2.895h5.07v-1.605h-5.07v-2.73h5.715v-1.635h-7.665v10.5h7.875v-1.635h-5.925zm15.494-8.865v7.11l-5.79-7.11h-1.605v10.5h1.935v-7.11l5.79 7.11h1.605v-10.5h-1.935zm6.878 10.5h1.95v-8.85h3.48v-1.65h-8.91v1.65h3.48v8.85zm14.294.15c2.88 0 4.245-1.44 4.245-3.12 0-3.855-6.225-2.4-6.225-4.635 0-.795.66-1.425 2.28-1.425.915 0 1.95.27 2.895.825l.615-1.515c-.915-.6-2.235-.93-3.495-.93-2.88 0-4.23 1.44-4.23 3.135 0 3.9 6.24 2.415 6.24 4.68 0 .78-.69 1.365-2.325 1.365-1.29 0-2.625-.48-3.465-1.155l-.675 1.515c.87.75 2.505 1.26 4.14 1.26zm8.129-1.785v-2.895h5.07v-1.605h-5.07v-2.73h5.715v-1.635h-7.665v10.5h7.875v-1.635h-5.925zm17.069 1.635l-2.415-3.45c1.425-.555 2.235-1.725 2.235-3.315 0-2.325-1.71-3.735-4.47-3.735h-4.32v10.5h1.95v-3.06h2.37l.405-.015 2.145 3.075h2.1zm-2.145-6.765c0 1.32-.885 2.1-2.595 2.1h-2.28v-4.185h2.28c1.71 0 2.595.765 2.595 2.085zm11.796-3.735l-3.525 8.1-3.495-8.1h-2.115l4.59 10.5h1.92l4.575-10.5h-1.95zm3.058 10.5h1.95v-10.5h-1.95v10.5zm9.65.15c1.725 0 3.195-.615 4.17-1.755l-1.26-1.2c-.765.84-1.71 1.245-2.805 1.245-2.175 0-3.75-1.53-3.75-3.69s1.575-3.69 3.75-3.69c1.095 0 2.04.405 2.805 1.23l1.26-1.185c-.975-1.14-2.445-1.755-4.155-1.755-3.225 0-5.625 2.265-5.625 5.4s2.4 5.4 5.61 5.4zm7.989-1.785v-2.895h5.07v-1.605h-5.07v-2.73h5.715v-1.635H166.5v10.5h7.875v-1.635h-5.925z" fill="#3a3a3a"/><g fill="#d46d39"><path d="M58.5 36.384l-2.417 4.898-5.403.781 3.91 3.814-.924 5.382L58.5 48.72l4.834 2.539-.924-5.382 3.91-3.809-5.403-.786-2.417-4.898z"/><use xlink:href="#D"/></g><g clip-path="url(#A)"><path d="M99.658 36.384l-2.417 4.898-5.403.781 3.91 3.814-.924 5.382 4.834-2.539 4.834 2.539-.924-5.382 3.91-3.809-5.403-.786-2.417-4.898z" fill="#d46d39"/></g><g clip-path="url(#B)"><use xlink:href="#E" fill="#d46d39"/></g><g clip-path="url(#C)"><path d="M140.816 36.384l-2.417 4.898-5.403.781 3.91 3.814-.925 5.382 4.835-2.539 4.834 2.539-.924-5.382 3.91-3.809-5.403-.786-2.417-4.898z" fill="#d46d39"/></g><path d="M36.304 68.54h-1.26l.336-3.122h4.48v-.896h-5.362l-.504 4.914h2.086c2.492 0 3.276.784 3.276 2.044 0 1.19-.882 2.002-2.548 2.002-1.26 0-2.38-.476-3.01-1.134l-.49.798c.756.77 2.1 1.26 3.514 1.26 2.394 0 3.556-1.302 3.556-2.968 0-1.736-1.12-2.898-4.074-2.898zm6.11 5.852c.406 0 .756-.336.756-.77s-.35-.756-.756-.756a.74.74 0 0 0-.742.756c0 .434.336.77.742.77zm5.966.014c2.268 0 3.92-1.862 3.92-4.984s-1.652-4.984-3.92-4.984-3.906 1.862-3.906 4.984 1.638 4.984 3.906 4.984zm0-.924c-1.708 0-2.884-1.442-2.884-4.06s1.176-4.06 2.884-4.06 2.884 1.442 2.884 4.06-1.176 4.06-2.884 4.06zm4.012 2.24h.91l4.62-13.188h-.91l-4.62 13.188zm8.343-7.182h-1.26l.336-3.122h4.48v-.896H58.93l-.504 4.914h2.086c2.492 0 3.276.784 3.276 2.044 0 1.19-.882 2.002-2.548 2.002-1.26 0-2.38-.476-3.01-1.134l-.49.798c.756.77 2.1 1.26 3.514 1.26 2.394 0 3.556-1.302 3.556-2.968 0-1.736-1.12-2.898-4.074-2.898zm6.11 5.852c.406 0 .756-.336.756-.77s-.35-.756-.756-.756a.74.74 0 0 0-.742.756c0 .434.336.77.742.77zm5.966.014c2.268 0 3.92-1.862 3.92-4.984s-1.652-4.984-3.92-4.984-3.906 1.862-3.906 4.984 1.638 4.984 3.906 4.984zm0-.924c-1.708 0-2.884-1.442-2.884-4.06s1.176-4.06 2.884-4.06 2.884 1.442 2.884 4.06-1.176 4.06-2.884 4.06zm9.14-2.52h3.668v-.868h-3.668v.868zm10.2 2.464l3.332-3.276c1.316-1.288 1.61-2.128 1.61-3.066 0-1.638-1.26-2.646-3.248-2.646-1.498 0-2.716.504-3.472 1.4l.714.616c.644-.742 1.526-1.092 2.674-1.092 1.498 0 2.296.7 2.296 1.834 0 .672-.21 1.33-1.316 2.422l-4.074 3.99v.714h6.874v-.896h-5.39zm9.231-4.886h-1.26l.336-3.122h4.48v-.896h-5.362l-.504 4.914h2.086c2.492 0 3.276.784 3.276 2.044 0 1.19-.882 2.002-2.548 2.002-1.26 0-2.38-.476-3.01-1.134l-.49.798c.756.77 2.1 1.26 3.514 1.26 2.394 0 3.556-1.302 3.556-2.968 0-1.736-1.12-2.898-4.074-2.898zm9.414-.084c-1.358 0-2.506.602-2.996 1.68l-.042-.798c0-2.66 1.358-4.018 3.472-4.018.728 0 1.4.126 1.904.462l.406-.812c-.616-.378-1.442-.532-2.324-.532-2.66 0-4.48 1.736-4.48 5.068 0 3.094 1.414 4.9 4.018 4.9 1.904 0 3.346-1.176 3.346-3.01 0-1.792-1.358-2.94-3.304-2.94zm-.084 5.096c-1.694 0-2.59-1.022-2.59-2.1 0-1.218 1.022-2.142 2.52-2.142 1.512 0 2.464.826 2.464 2.114 0 1.302-.98 2.128-2.394 2.128zm16.913.77l-2.394-3.36c1.428-.462 2.24-1.54 2.24-3.08 0-2.1-1.512-3.36-4.004-3.36h-3.668v9.8h1.036v-3.108h2.632c.28 0 .532-.014.784-.042l2.24 3.15h1.134zm-4.186-3.99h-2.604v-4.914h2.604c1.96 0 2.996.896 2.996 2.464 0 1.54-1.036 2.45-2.996 2.45zm8.775-3.43c-1.162 0-2.254.364-2.996.994l.448.742c.602-.532 1.498-.868 2.45-.868 1.372 0 2.086.686 2.086 1.946v.448h-2.338c-2.114 0-2.842.952-2.842 2.086 0 1.274 1.022 2.142 2.688 2.142 1.218 0 2.086-.462 2.534-1.218v1.148h.952v-4.564c0-1.904-1.078-2.856-2.982-2.856zm-.35 6.706c-1.176 0-1.862-.532-1.862-1.386 0-.756.462-1.316 1.89-1.316h2.31v1.204c-.392.966-1.218 1.498-2.338 1.498zm9.56-.448c-.28.252-.686.378-1.092.378-.826 0-1.274-.476-1.274-1.344v-4.396h2.24v-.84h-2.24v-1.61h-.994v1.61h-1.316v.84h1.316v4.452c0 1.358.77 2.142 2.156 2.142.574 0 1.162-.168 1.554-.518l-.35-.714zm2.663-7.812c.42 0 .728-.322.728-.728 0-.378-.322-.686-.728-.686s-.728.322-.728.7a.72.72 0 0 0 .728.714zm-.504 8.974h.994v-7.364h-.994v7.364zm7.512-7.42c-1.274 0-2.268.518-2.8 1.414v-1.358h-.952v7.364h.994v-3.864c0-1.68.994-2.66 2.576-2.66 1.4 0 2.212.798 2.212 2.352v4.172h.994v-4.27c0-2.114-1.232-3.15-3.024-3.15zm11.616.056v1.414c-.616-.966-1.68-1.47-2.912-1.47-2.1 0-3.696 1.442-3.696 3.556s1.596 3.584 3.696 3.584c1.204 0 2.254-.49 2.87-1.428v.938c0 1.82-.854 2.674-2.716 2.674-1.134 0-2.198-.378-2.898-1.008l-.504.756c.77.728 2.086 1.134 3.43 1.134 2.436 0 3.682-1.148 3.682-3.682v-6.468h-.952zm-2.814 6.202c-1.624 0-2.786-1.106-2.786-2.702s1.162-2.688 2.786-2.688 2.8 1.092 2.8 2.688-1.176 2.702-2.8 2.702z" fill="#3a3a3a"/><path d="M12.052 107.418c2.556 0 4.452-1.824 4.452-4.296s-1.896-4.296-4.452-4.296c-2.58 0-4.476 1.836-4.476 4.296s1.896 4.296 4.476 4.296zm0-1.068c-1.884 0-3.276-1.368-3.276-3.228s1.392-3.228 3.276-3.228c1.86 0 3.252 1.368 3.252 3.228s-1.392 3.228-3.252 3.228zm8.89 1.044c1.14 0 2.088-.48 2.592-1.368l-.876-.552c-.408.624-1.032.912-1.728.912-1.248 0-2.184-.864-2.184-2.244 0-1.356.936-2.232 2.184-2.232.696 0 1.32.288 1.728.912l.876-.564c-.504-.888-1.452-1.356-2.592-1.356-1.956 0-3.36 1.344-3.36 3.24s1.404 3.252 3.36 3.252zm7.381-1.272a1.45 1.45 0 0 1-.9.3c-.636 0-.996-.384-.996-1.068v-3.444h1.824v-.948h-1.824V99.57h-1.152v1.392h-1.08v.948h1.08v3.492c0 1.284.732 1.992 2.016 1.992.516 0 1.044-.144 1.392-.444l-.36-.828zm6.055.156l2.568-2.472c1.14-1.092 1.38-1.824 1.38-2.64 0-1.44-1.128-2.34-2.88-2.34-1.308 0-2.424.468-3.072 1.272l.816.708c.516-.624 1.248-.912 2.148-.912 1.176 0 1.788.528 1.788 1.392 0 .528-.168 1.056-1.056 1.92l-3.42 3.3v.816h6.036v-1.044h-4.308zm8.692 1.14c1.956 0 3.42-1.56 3.42-4.296s-1.464-4.296-3.42-4.296c-1.968 0-3.432 1.56-3.432 4.296s1.464 4.296 3.432 4.296zm0-1.068c-1.32 0-2.232-1.08-2.232-3.228s.912-3.228 2.232-3.228c1.308 0 2.22 1.08 2.22 3.228s-.912 3.228-2.22 3.228zm6.133-.072l2.568-2.472c1.14-1.092 1.38-1.824 1.38-2.64 0-1.44-1.128-2.34-2.88-2.34-1.308 0-2.424.468-3.072 1.272l.816.708c.516-.624 1.248-.912 2.148-.912 1.176 0 1.788.528 1.788 1.392 0 .528-.168 1.056-1.056 1.92l-3.42 3.3v.816h6.036v-1.044h-4.308zm4.815-7.356v1.044h1.896v7.356h1.188v-8.4h-3.084zm25.338 0l-3.048 6.9-3.024-6.9h-1.296l3.696 8.4h1.188l3.684-8.4h-1.2zm7.371 5.256c0-1.956-1.308-3.276-3.144-3.276s-3.192 1.356-3.192 3.24c0 1.896 1.368 3.252 3.42 3.252 1.056 0 1.932-.36 2.508-1.032l-.636-.744c-.468.516-1.092.768-1.836.768-1.26 0-2.16-.744-2.304-1.86h5.16l.024-.348zm-3.144-2.304a1.98 1.98 0 0 1 2.04 1.824h-4.08a1.98 1.98 0 0 1 2.04-1.824zm5.848.156v-1.068h-1.104v6.36h1.152v-3.168c0-1.392.768-2.148 2.004-2.148l.264.012v-1.116c-1.116 0-1.908.384-2.316 1.128zm4.312-2.292c.456 0 .78-.336.78-.768 0-.408-.336-.732-.78-.732s-.78.336-.78.756.336.744.78.744zm-.576 7.584h1.152v-6.36h-1.152v6.36zm9.124-7.584c.456 0 .78-.336.78-.768 0-.408-.336-.732-.78-.732s-.78.336-.78.756.336.744.78.744zm-5.604.66v.564h-1.08v.948h1.08v5.412h1.152v-5.412h1.824v-.948h-1.848v-.552c0-.732.348-1.116 1.032-1.116a1.49 1.49 0 0 1 .888.3l.348-.876c-.324-.252-.804-.372-1.296-.372-1.356 0-2.1.816-2.1 2.052zm5.028 6.924h1.152v-6.36h-1.152v6.36zm9.095-3.144c0-1.956-1.308-3.276-3.144-3.276s-3.192 1.356-3.192 3.24c0 1.896 1.368 3.252 3.42 3.252 1.056 0 1.932-.36 2.508-1.032l-.636-.744c-.468.516-1.092.768-1.836.768-1.26 0-2.16-.744-2.304-1.86h5.16l.024-.348zm-3.144-2.304a1.98 1.98 0 0 1 2.04 1.824h-4.08a1.98 1.98 0 0 1 2.04-1.824zm9.591-3.456v3.504c-.528-.684-1.32-1.02-2.22-1.02-1.86 0-3.216 1.296-3.216 3.24s1.356 3.252 3.216 3.252c.936 0 1.752-.36 2.268-1.08v1.008h1.104v-8.904h-1.152zm-2.124 7.968c-1.224 0-2.148-.888-2.148-2.244s.924-2.232 2.148-2.232c1.212 0 2.136.876 2.136 2.232s-.924 2.244-2.136 2.244zm12.051-5.484c-.9 0-1.692.336-2.22 1.02v-3.504h-1.152v8.904h1.104v-1.008c.516.72 1.332 1.08 2.268 1.08 1.86 0 3.216-1.308 3.216-3.252s-1.356-3.24-3.216-3.24zm-.096 5.484c-1.212 0-2.136-.888-2.136-2.244s.924-2.232 2.136-2.232c1.224 0 2.148.876 2.148 2.232s-.924 2.244-2.148 2.244zm9.228-5.424l-2.196 5.088-2.22-5.088h-1.2l2.808 6.348-.204.444c-.312.732-.66.984-1.212.984-.432 0-.828-.168-1.14-.468l-.492.864c.396.384 1.02.588 1.632.588.972 0 1.704-.42 2.268-1.764l3.084-6.996h-1.128zm5.593 6.36h5.748v-1.044h-4.548v-7.356h-1.2v8.4zm7.533-7.584c.456 0 .78-.336.78-.768 0-.408-.336-.732-.78-.732s-.78.336-.78.756.336.744.78.744zm-.576 7.584h1.152v-6.36h-1.152v6.36zm7.852-6.36l-2.232 5.1-2.184-5.1h-1.2l2.784 6.36h1.176l2.784-6.36h-1.128zm7.775 3.216c0-1.956-1.308-3.276-3.144-3.276s-3.192 1.356-3.192 3.24c0 1.896 1.368 3.252 3.42 3.252 1.056 0 1.932-.36 2.508-1.032l-.636-.744c-.468.516-1.092.768-1.836.768-1.26 0-2.16-.744-2.304-1.86h5.16l.024-.348zm-3.144-2.304a1.98 1.98 0 0 1 2.04 1.824h-4.08a1.98 1.98 0 0 1 2.04-1.824zm7.516 5.52c1.14 0 2.088-.48 2.592-1.368l-.876-.552c-.408.624-1.032.912-1.728.912-1.248 0-2.184-.864-2.184-2.244 0-1.356.936-2.232 2.184-2.232.696 0 1.32.288 1.728.912l.876-.564c-.504-.888-1.452-1.356-2.592-1.356-1.956 0-3.36 1.344-3.36 3.24s1.404 3.252 3.36 3.252zm7.397-6.492c-.972 0-1.764.348-2.244.96v-3.444h-1.152v8.904h1.152v-3.276c0-1.38.792-2.112 2.016-2.112 1.092 0 1.716.612 1.716 1.86v3.528h1.152v-3.66c0-1.872-1.092-2.76-2.64-2.76zm7.088 0c-1.02 0-1.968.288-2.628.816l.48.864c.492-.42 1.26-.684 2.016-.684 1.14 0 1.704.564 1.704 1.536v.228h-1.824c-1.896 0-2.556.84-2.556 1.86 0 1.104.912 1.872 2.352 1.872.996 0 1.704-.336 2.088-.912v.84h1.092v-3.84c0-1.74-.984-2.58-2.724-2.58zm-.264 5.604c-.876 0-1.404-.396-1.404-1.032 0-.54.324-.984 1.464-.984h1.776v.888c-.288.732-.972 1.128-1.836 1.128zm8.336-.384a1.45 1.45 0 0 1-.9.3c-.636 0-.996-.384-.996-1.068v-3.444h1.824v-.948h-1.824V99.57h-1.152v1.392h-1.08v.948h1.08v3.492c0 1.284.732 1.992 2.016 1.992.516 0 1.044-.144 1.392-.444l-.36-.828z" fill="#fff"/><defs><clipPath id="A"><path fill="#fff" transform="translate(91.158 35.322)" d="M0 0h17v17H0z"/></clipPath><clipPath id="B"><path fill="#fff" transform="translate(111.737 35.322)" d="M0 0h17v17H0z"/></clipPath><clipPath id="C"><path fill="#fff" transform="translate(132.316 35.322)" d="M0 0h17v17H0z"/></clipPath><path id="D" d="M79.079 36.384l-2.417 4.898-5.403.781 3.91 3.814-.924 5.382 4.834-2.539 4.834 2.539-.924-5.382 3.91-3.809-5.403-.786-2.417-4.898z"/><path id="E" d="M120.237 36.384l-2.417 4.898-5.403.781 3.91 3.814-.925 5.382 4.835-2.539 4.834 2.539-.924-5.382 3.91-3.809-5.403-.786-2.417-4.898z"/></defs></svg>