<svg xmlns="http://www.w3.org/2000/svg" width="250" height="30" fill="none" xmlns:v="https://vecta.io/nano"><g clip-path="url(#A)"><g fill="#d73333"><path d="M130.685 1.472h7.005c1.219 0 2.335.228 3.122.558s1.447.787 1.904 1.345.787 1.117.99 1.777.33 1.345.33 1.904c0 .66-.102 1.218-.33 1.904s-.559 1.218-.99 1.777c-.457.558-1.117.99-1.904 1.345-.787.33-1.903.558-3.122.558h-4.238v8.68h-2.665V1.472h-.102zm2.665 8.68h3.554c.558 0 .989 0 1.548-.102s.99-.228 1.345-.457c.33-.228.66-.558.99-.99.228-.457.33-.99.33-1.675s-.102-1.218-.33-1.675-.559-.787-.99-.99c-.457-.228-.888-.33-1.345-.457-.559-.102-.99-.102-1.548-.102h-3.554v6.447zM145.152.127h2.564v9.924h.101c.33-.66.889-1.345 1.675-1.675.787-.457 1.676-.66 2.665-.66a4.52 4.52 0 0 1 1.777.33c.558.228 1.117.457 1.548.888.457.457.787.888.99 1.548.228.66.457 1.447.457 2.335v8.579h-2.564v-7.792a5.11 5.11 0 0 0-.228-1.548c-.228-.457-.457-.787-.66-1.117-.33-.228-.558-.457-.99-.558-.33-.102-.786-.229-1.116-.229-.559 0-.99.102-1.447.229-.457.228-.888.457-1.218.787s-.559.787-.787 1.345-.33 1.218-.33 2.005v6.802h-2.564V.127h.127zm13.807 3.122c0-.558.229-.888.559-1.345s.787-.558 1.345-.558.888.228 1.345.558.559.787.559 1.345-.229.888-.559 1.345-.888.457-1.345.457c-.558 0-.888-.228-1.345-.558-.432-.355-.559-.812-.559-1.244zm.559 4.772h2.563V21.27h-2.563V8.02zm5.355-7.894h2.564v21.168h-2.564V.127zm4.797 3.122c0-.558.228-.888.558-1.345s.787-.558 1.346-.558.888.228 1.345.558.558.787.558 1.345-.228.888-.558 1.345-.889.457-1.447.457-.888-.228-1.345-.558c-.457-.355-.457-.812-.457-1.244zm.558 4.772h2.564V21.27h-2.564V8.02zm5.102-.001h2.563v1.904h.102c.457-.66 1.117-1.218 2.005-1.675s1.675-.558 2.665-.558 2.005.228 2.792.558 1.548.888 2.106 1.447a7.82 7.82 0 0 1 1.346 2.234c.33.888.456 1.777.456 2.792s-.101 1.904-.456 2.792c-.33.888-.787 1.548-1.346 2.234-.558.66-1.345 1.117-2.106 1.447-.787.33-1.777.558-2.792.558a6.74 6.74 0 0 1-2.665-.558c-.787-.33-1.447-.99-1.904-1.675h-.101v9.797h-2.564V8.046h-.101V8.02zm6.929 2.005a4.53 4.53 0 0 0-1.777.33 3.31 3.31 0 0 0-1.345.99c-.33.457-.66.888-.888 1.447s-.33 1.218-.33 1.903c0 .66.101 1.345.33 1.904s.457.99.888 1.447c.33.457.787.66 1.345.99a4.53 4.53 0 0 0 1.777.33 4.53 4.53 0 0 0 1.777-.33 3.32 3.32 0 0 0 1.345-.99c.33-.457.66-.888.888-1.447s.33-1.218.33-1.904c0-.66-.102-1.345-.33-1.903s-.457-.99-.888-1.447c-.33-.457-.787-.66-1.345-.99-.559-.203-1.117-.33-1.777-.33zm8.782-2.005h2.563v1.904h.102c.456-.66 1.116-1.218 2.005-1.675s1.675-.558 2.665-.558a7.49 7.49 0 0 1 2.791.558c.787.33 1.549.888 2.107 1.447a7.81 7.81 0 0 1 1.345 2.234c.33.888.457 1.777.457 2.792s-.101 1.904-.457 2.792c-.33.888-.787 1.548-1.345 2.234-.558.66-1.345 1.117-2.107 1.447-.786.33-1.776.558-2.791.558a6.74 6.74 0 0 1-2.665-.558c-.787-.33-1.447-.99-1.904-1.675h-.101v9.797h-2.564V8.046h-.101V8.02zm6.903 2.005c-.66 0-1.218.102-1.776.33a3.33 3.33 0 0 0-1.346.99c-.33.457-.66.888-.888 1.447s-.33 1.218-.33 1.903c0 .66.102 1.345.33 1.904s.457.99.888 1.447c.33.457.787.66 1.346.99.558.228 1.116.33 1.776.33a4.53 4.53 0 0 0 1.777-.33 3.31 3.31 0 0 0 1.345-.99c.33-.457.66-.888.888-1.447s.33-1.218.33-1.904c0-.66-.101-1.345-.33-1.903s-.457-.99-.888-1.447c-.33-.457-.787-.66-1.345-.99-.432-.203-1.092-.33-1.777-.33zm8.477-6.776c0-.558.229-.888.559-1.345s.787-.558 1.345-.558.888.228 1.345.558.558.787.558 1.345-.228.888-.558 1.345-.888.457-1.447.457-.888-.228-1.345-.558c-.457-.355-.457-.812-.457-1.244zm.559 4.772h2.563V21.27h-2.563V8.02zm5.127-.001h2.563v2.005h.102c.33-.66.888-1.345 1.675-1.675.787-.457 1.675-.66 2.665-.66.66 0 1.218.102 1.776.33s1.117.457 1.549.888c.456.457.786.888.989 1.548.229.66.457 1.447.457 2.335v8.579h-2.563v-7.792c0-.66-.102-1.117-.229-1.548-.228-.457-.456-.787-.659-1.117-.33-.228-.559-.457-.99-.558-.33-.101-.787-.228-1.117-.228-.558 0-.99.101-1.447.228-.457.228-.888.457-1.218.787s-.558.787-.787 1.345-.33 1.218-.33 2.005v6.802h-2.563V8.046h.127V8.02zm16.142 7.589c0 .558.101 1.117.33 1.548a3.49 3.49 0 0 0 .99 1.218c.456.33.888.558 1.446.787a4.38 4.38 0 0 0 1.675.33 3.87 3.87 0 0 0 2.005-.558c.559-.33 1.117-.888 1.549-1.447l1.903 1.447c-1.447 1.777-3.35 2.665-5.914 2.665-.989 0-2.005-.228-2.893-.558s-1.548-.888-2.107-1.447a7.84 7.84 0 0 1-1.345-2.234c-.33-.888-.457-1.777-.457-2.792s.229-1.904.559-2.792.787-1.548 1.447-2.234c.558-.66 1.345-1.117 2.106-1.447.888-.33 1.777-.558 2.792-.558 1.218 0 2.234.228 2.995.66.787.457 1.447.99 2.005 1.548.558.66.888 1.447 1.117 2.233s.33 1.675.33 2.564v.888h-10.584v.178h.051zm7.918-2.107c0-.558-.101-1.117-.228-1.548-.101-.457-.457-.888-.66-1.218-.33-.33-.66-.66-1.218-.787s-.99-.33-1.675-.33-1.219.102-1.675.33c-.559.228-.99.558-1.346.888-.329.33-.659.787-.786 1.218-.229.457-.33.888-.33 1.345h7.918v.102h0zm11.346-2.131c-.33-.33-.66-.66-1.117-.888s-.99-.33-1.548-.33-1.117.101-1.549.33a1.24 1.24 0 0 0-.659 1.117c0 .457.101.66.33.99s.558.457.888.558l1.117.33c.456.101.786.101.989.228.559.101.99.33 1.549.457.457.228.888.457 1.218.787s.66.66.787 1.117c.228.457.33.99.33 1.548 0 .787-.102 1.345-.457 1.904-.33.558-.787.99-1.218 1.345-.559.33-1.117.558-1.676.787l-1.903.228c-1.117 0-2.107-.228-2.894-.558s-1.548-.99-2.233-1.904l1.904-1.548c.456.457.888.787 1.345 1.117s1.116.457 1.903.457c.33 0 .66 0 .99-.102a8.38 8.38 0 0 0 .888-.33c.229-.102.457-.33.66-.558.102-.228.229-.457.229-.787s-.102-.66-.33-.888-.559-.457-.888-.558l-.99-.33c-.33-.101-.66-.101-.99-.228-.559-.101-.99-.33-1.548-.457l-1.346-.66c-.33-.33-.66-.66-.888-1.117s-.33-.99-.33-1.548c0-.66.102-1.345.457-1.777.33-.558.66-.888 1.117-1.218s.99-.558 1.675-.787c.558-.228 1.218-.228 1.777-.228.888 0 1.776.228 2.563.558s1.447.888 2.005 1.675l-2.157 1.269zm-209.62.888s.99 1.447.99 4.01c0 2.462-2.005 4.467-4.467 4.467H.025L26.32 1.345l-2.792 1.117c-4.568 0-12.817-.102-18.376 4.239 0 0-.457-.787-.457-1.904C4.695 2.335 6.701.33 9.162.33h30.305L13.274 19.848l2.792-1.117c8.452 0 17.259-.888 21.827-6.472zm88.884-1.548l-2.792 10.025h-6.675l2.665-9.695c.33-1.218-.33-2.005-1.777-2.005s-2.563.888-2.893 2.005l-2.665 9.695h-6.676l2.665-9.695c.33-1.218-.33-2.005-1.776-2.005s-2.564.888-2.894 2.005l-2.563 9.695h-6.675l2.792-10.025c1.218-4.67 6.345-6.345 9.568-6.345 2.564 0 4.67.558 6.345 1.548 2.234-.99 4.67-1.548 7.234-1.548 3.325 0 7.563 1.548 6.117 6.345zM43.68 21.066a3.35 3.35 0 1 0 0-6.7 3.35 3.35 0 1 0 0 6.7zm52.589-8.35c-1.218 4.569-7.69 8.35-14.264 8.35s-10.914-3.782-9.695-8.35 7.69-8.35 14.264-8.35c6.574-.127 10.914 3.655 9.695 8.35z"/></g><path d="M85.355 8.807c-2.995 0-5.914 1.675-6.472 3.782s1.345 3.782 4.34 3.782 5.914-1.675 6.472-3.782c.66-2.005-1.345-3.782-4.34-3.782z" fill="#fff"/><path d="M64.289 14.391c-1.218 1.218-3.35 2.107-5.457 2.107-2.995 0-5-1.675-4.34-3.782.558-2.107 3.452-3.782 6.472-3.782 2.005 0 3.553.787 4.112 1.904h6.904c-.228-3.68-4.239-6.472-9.797-6.472-6.574 0-13.02 3.782-14.264 8.35s3.02 8.35 9.695 8.35c5.787 0 11.371-2.893 13.579-6.675h-6.904z" fill="#d73333"/></g><defs><clipPath id="A"><path fill="#fff" d="M0 0h250v29.442H0z"/></clipPath></defs></svg>