<svg xmlns="http://www.w3.org/2000/svg" width="24" height="24" fill="none" xmlns:v="https://vecta.io/nano"><path d="M21.5 16.5h-19a1 1 0 0 0-1 1v4a1 1 0 0 0 1 1h19a1 1 0 0 0 1-1v-4a1 1 0 0 0-1-1z" fill="#444"/><path d="M16 5.5a.5.5 0 0 1-.5-.5V2.5h-7V5a.5.5 0 1 1-1 0V2a.5.5 0 0 1 .5-.5h8a.5.5 0 0 1 .5.5v3a.5.5 0 0 1-.5.5z" fill="#b3b3b3"/><path d="M22.5 4.5h-21a1 1 0 0 0-1 1v11a1 1 0 0 0 1 1h21a1 1 0 0 0 1-1v-11a1 1 0 0 0-1-1z" fill="#636363"/><path d="M14 19.5h-4a.5.5 0 0 1-.5-.5v-3a.5.5 0 0 1 .5-.5h4a.5.5 0 0 1 .5.5v3a.5.5 0 0 1-.5.5z" fill="#efd358"/></svg>