<svg xmlns="http://www.w3.org/2000/svg" xmlns:xlink="http://www.w3.org/1999/xlink" width="24" height="24" fill="none" xmlns:v="https://vecta.io/nano"><path d="M23 23.5H12.5a.5.5 0 0 1-.5-.5V1a.5.5 0 0 1 .5-.5.51.51 0 0 1 .137.019l10.5 3A.5.5 0 0 1 23.5 4v19a.5.5 0 0 1-.5.5z" fill="#58bfca"/><path d="M8.912 12.5H1a.5.5 0 0 0-.5.5v10a.5.5 0 0 0 .5.5h7.912a.5.5 0 0 0 .5-.5V13a.5.5 0 0 0-.5-.5z" fill="#aeaeae"/><path d="M21 2.908V21a.5.5 0 1 0 1 0V3.194l-1-.285zm-2.5-.714V21a.5.5 0 1 0 1 0V2.48l-1-.286zm-2 19.306a.5.5 0 0 0 .5-.5V1.765l-1-.286V21a.5.5 0 0 0 .5.5zm-2.5 0a.5.5 0 0 0 .5-.5V1.05l-1-.285V21a.5.5 0 0 0 .5.5z" fill="#a0e6ee"/><path d="M14 8.5H5a.5.5 0 0 0-.5.5v14a.5.5 0 0 0 .5.5h9a.5.5 0 0 0 .5-.5V9a.5.5 0 0 0-.5-.5z" fill="#363636"/><g fill="#a0d9f8"><use xlink:href="#B"/><path d="M12.086 13.5H6.914c-.229 0-.414.185-.414.414v1.172c0 .229.185.414.414.414h5.172c.229 0 .414-.185.414-.414v-1.172c0-.229-.185-.414-.414-.414z"/><use xlink:href="#B" y="6"/></g><path d="M10 20H9a.5.5 0 0 0-.5.5v3h2v-3a.5.5 0 0 0-.5-.5z" fill="#aeaeae"/><defs ><path id="B" d="M12.037 10.5H6.963c-.256 0-.463.207-.463.463v1.074c0 .256.207.463.463.463h5.074c.256 0 .463-.207.463-.463v-1.074c0-.256-.207-.463-.463-.463z"/></defs></svg>