<svg width="20" height="20" viewBox="0 0 20 20" fill="none" xmlns="http://www.w3.org/2000/svg">
    <circle cx="10" cy="10" r="10" fill="#02BD0A" />
    <path
      d="M13.5591 6.28878C13.5502 6.29795 13.5419 6.30771 13.5341 6.31801L9.19286 12.1972L6.57661 9.41504C6.3989 9.23903 6.16384 9.1432 5.92096 9.14776C5.67809 9.15231 5.44635 9.25689 5.27459 9.43946C5.10282 9.62203 5.00443 9.86834 5.00015 10.1265C4.99586 10.3846 5.08601 10.6345 5.25161 10.8234L8.55911 14.3403C8.64822 14.4348 8.75432 14.5093 8.87109 14.5593C8.98787 14.6093 9.11292 14.6338 9.2388 14.6313C9.36467 14.6288 9.48878 14.5994 9.60373 14.5449C9.71869 14.4903 9.82212 14.4117 9.90786 14.3137L14.8979 7.68384C15.0678 7.49428 15.1607 7.24127 15.1565 6.97949C15.1523 6.71771 15.0513 6.46821 14.8754 6.28492C14.6995 6.10163 14.4628 5.99928 14.2165 6C13.9702 6.00073 13.7341 6.10446 13.5591 6.28878Z"
      fill="white"
    />
  </svg>