<svg xmlns="http://www.w3.org/2000/svg" width="134" height="22" fill="none" xmlns:v="https://vecta.io/nano"><rect width="22" height="22" rx="2" fill="#48b065"/><path d="M10.5 3.063L8.083 7.961l-5.403.781 3.91 3.814-.924 5.382 4.834-2.539 4.834 2.539-.924-5.382 3.91-3.809-5.403-.786L10.5 3.063z" fill="#fff"/><rect x="28" width="22" height="22" rx="2" fill="#48b065"/><path d="M38.5 3.063l-2.417 4.898-5.403.781 3.91 3.814-.924 5.382 4.834-2.539 4.834 2.539-.924-5.382 3.91-3.809-5.403-.786L38.5 3.063z" fill="#fff"/><rect x="56" width="22" height="22" rx="2" fill="#48b065"/><path d="M66.5 3.063l-2.417 4.898-5.403.781 3.91 3.814-.924 5.382 4.834-2.539 4.834 2.539-.924-5.382 3.91-3.809-5.403-.786L66.5 3.063z" fill="#fff"/><rect x="84" width="22" height="22" rx="2" fill="#48b065"/><path d="M94.5 3.063l-2.417 4.898-5.403.781 3.91 3.814-.924 5.382 4.834-2.539 4.834 2.539-.924-5.382 3.91-3.809-5.403-.786L94.5 3.063z" fill="#fff"/><rect x="112" width="22" height="22" rx="2" fill="#48b065"/><path d="M122.5 3.063l-2.417 4.898-5.403.781 3.91 3.814-.924 5.382 4.834-2.539 4.834 2.539-.924-5.382 3.91-3.809-5.403-.786-2.417-4.898z" fill="#fff"/></svg>