<svg width="134" height="22" viewBox="0 0 134 22" fill="none" xmlns="http://www.w3.org/2000/svg">
<rect width="22" height="22" rx="2" fill="#48B065"/>
<path d="M10.5 3.0625L8.0828 7.96063L2.67999 8.74156L6.58999 12.5559L5.66562 17.9375L10.5 15.3981L15.3344 17.9375L14.41 12.5559L18.32 8.74687L12.9172 7.96063L10.5 3.0625Z" fill="white"/>
<rect x="28" width="22" height="22" rx="2" fill="#48B065"/>
<path d="M38.5 3.0625L36.0828 7.96063L30.68 8.74156L34.59 12.5559L33.6656 17.9375L38.5 15.3981L43.3344 17.9375L42.41 12.5559L46.32 8.74687L40.9172 7.96063L38.5 3.0625Z" fill="white"/>
<rect x="56" width="22" height="22" rx="2" fill="#48B065"/>
<path d="M66.5 3.0625L64.0828 7.96063L58.68 8.74156L62.59 12.5559L61.6656 17.9375L66.5 15.3981L71.3344 17.9375L70.41 12.5559L74.32 8.74687L68.9172 7.96063L66.5 3.0625Z" fill="white"/>
<rect x="84" width="22" height="22" rx="2" fill="#48B065"/>
<path d="M94.5 3.0625L92.0828 7.96063L86.68 8.74156L90.59 12.5559L89.6656 17.9375L94.5 15.3981L99.3344 17.9375L98.41 12.5559L102.32 8.74687L96.9172 7.96063L94.5 3.0625Z" fill="white"/>
<rect x="112" width="22" height="22" rx="2" fill="#48B065"/>
<path d="M122.5 3.0625L120.083 7.96063L114.68 8.74156L118.59 12.5559L117.666 17.9375L122.5 15.3981L127.334 17.9375L126.41 12.5559L130.32 8.74687L124.917 7.96063L122.5 3.0625Z" fill="white"/>
</svg>
