<svg width="304" height="272" viewBox="0 0 304 272" fill="none" xmlns="http://www.w3.org/2000/svg">
<path d="M37.2272 263.466V267.584C37.2272 269.907 39.4224 271.789 42.13 271.789H262.37C265.079 271.789 267.273 269.907 267.273 267.584V263.466H37.2272Z" fill="#939598"/>
<path d="M35.7891 260.672H268.873L238.371 233.908H72.0002L35.7891 260.672Z" fill="#AFB1B4"/>
<path d="M246.38 249.447H60.4741L75.1765 238.581H233.996L246.38 249.447Z" fill="#C5C6C8"/>
<path d="M182.087 259.032H124.703L129.239 252.542H178.266L182.087 259.032Z" fill="#C5C6C8"/>
<path d="M268.873 260.67H35.7892V266.277H268.873V260.67Z" fill="#BCBEC0"/>
<path d="M240.252 231.45C240.252 233.773 238.369 235.656 236.045 235.656H74.3473C72.0253 235.656 70.1403 233.773 70.1403 231.45V128.169C70.1403 125.847 72.0253 123.963 74.3473 123.963H236.045C238.369 123.963 240.252 125.847 240.252 128.169V231.45Z" fill="#E7E8E9"/>
<path d="M238.349 229.73C238.349 231.974 236.508 233.794 234.235 233.794H76.0917C73.8196 233.794 71.9777 231.974 71.9777 229.73V129.906C71.9777 127.66 73.8196 125.84 76.0917 125.84H234.235C236.508 125.84 238.349 127.66 238.349 129.906V229.73Z" fill="#D1D3D4"/>
<path d="M228.134 134.708H80.9249V223.037H228.134V134.708Z" fill="#F15A29"/>
<path d="M131.813 223.037H80.9249V134.708H201.402C195.582 146.095 189.013 157.098 181.852 167.628C171.064 183.485 158.662 198.266 144.809 211.531C140.629 215.532 136.284 219.361 131.813 223.037Z" fill="#F68B42"/>
<path d="M117.602 233.795H76.0917C73.8197 233.795 71.9777 231.975 71.9777 229.731V129.907C71.9777 127.661 73.8197 125.841 76.0917 125.841H205.684C204.286 128.825 202.835 131.784 201.335 134.718H80.8586V223.047H131.747C129.043 225.27 126.293 227.435 123.506 229.549C121.579 231.009 119.611 232.434 117.602 233.795Z" fill="#E5E6E7"/>
<path d="M159.058 130.455C159.058 131.715 158.038 132.733 156.778 132.733C155.521 132.733 154.5 131.715 154.5 130.455C154.5 129.197 155.521 128.178 156.778 128.178C158.038 128.178 159.058 129.197 159.058 130.455Z" fill="#939598"/>
<path d="M255.196 173.474C255.196 176.705 252.552 179.35 249.321 179.35H156.941C153.709 179.35 151.065 176.705 151.065 173.474V160.955C151.065 157.723 153.709 155.08 156.941 155.08H249.321C252.552 155.08 255.196 157.723 255.196 160.955V173.474Z" fill="white"/>
<path d="M255.198 173.476H254.317C254.317 174.849 253.757 176.094 252.849 177.003C251.94 177.911 250.695 178.47 249.323 178.471H156.943C155.57 178.47 154.325 177.911 153.416 177.003C152.508 176.094 151.949 174.849 151.948 173.476V160.957C151.949 159.585 152.508 158.34 153.416 157.43C154.325 156.522 155.57 155.962 156.943 155.962H249.323C250.695 155.962 251.94 156.522 252.849 157.43C253.757 158.34 254.317 159.585 254.317 160.957V173.476H256.079V160.957C256.075 157.235 253.044 154.204 249.323 154.201H156.943C153.221 154.204 150.19 157.235 150.187 160.957V173.476C150.19 177.198 153.221 180.229 156.943 180.232H249.323C253.044 180.229 256.075 177.198 256.079 173.476H255.198Z" fill="#121F44"/>
<path d="M165.488 163.05L167.456 169.795L169.247 163.526C169.439 162.87 169.58 162.422 169.673 162.183C169.766 161.943 169.938 161.714 170.193 161.497C170.447 161.279 170.796 161.171 171.238 161.171C171.687 161.171 172.039 161.279 172.293 161.497C172.548 161.714 172.727 161.95 172.83 162.205C172.933 162.459 173.077 162.899 173.261 163.526L175.052 169.795L177.043 163.05C177.175 162.563 177.282 162.212 177.364 161.994C177.444 161.777 177.58 161.585 177.772 161.42C177.964 161.254 178.24 161.171 178.602 161.171C178.963 161.171 179.276 161.296 179.541 161.547C179.807 161.798 179.94 162.093 179.94 162.431C179.94 162.741 179.825 163.209 179.597 163.835L177.131 171.067C176.917 171.679 176.751 172.121 176.634 172.394C176.516 172.666 176.33 172.91 176.075 173.123C175.821 173.337 175.473 173.444 175.03 173.444C174.573 173.444 174.214 173.329 173.952 173.101C173.691 172.873 173.497 172.593 173.372 172.261C173.246 171.929 173.11 171.498 172.962 170.967L171.238 165.085L169.568 170.967C169.347 171.785 169.107 172.403 168.849 172.819C168.591 173.236 168.138 173.444 167.49 173.444C167.158 173.444 166.876 173.379 166.643 173.25C166.411 173.121 166.218 172.938 166.063 172.698C165.908 172.458 165.771 172.175 165.654 171.846C165.536 171.519 165.444 171.258 165.377 171.067L162.934 163.835C162.69 163.157 162.569 162.689 162.569 162.431C162.569 162.107 162.697 161.816 162.955 161.558C163.214 161.3 163.531 161.171 163.907 161.171C164.408 161.171 164.747 161.312 164.924 161.596C165.101 161.881 165.289 162.365 165.488 163.05Z" fill="#121F44"/>
<path d="M183.862 163.05L185.83 169.795L187.621 163.526C187.813 162.87 187.953 162.422 188.046 162.183C188.139 161.943 188.311 161.714 188.566 161.497C188.821 161.279 189.169 161.171 189.611 161.171C190.061 161.171 190.413 161.279 190.667 161.497C190.921 161.714 191.1 161.95 191.203 162.205C191.306 162.459 191.451 162.899 191.635 163.526L193.426 169.795L195.416 163.05C195.549 162.563 195.656 162.212 195.737 161.994C195.818 161.777 195.954 161.585 196.146 161.42C196.337 161.254 196.614 161.171 196.975 161.171C197.337 161.171 197.65 161.296 197.915 161.547C198.181 161.798 198.313 162.093 198.313 162.431C198.313 162.741 198.199 163.209 197.97 163.835L195.505 171.067C195.29 171.679 195.125 172.121 195.007 172.394C194.889 172.666 194.703 172.91 194.449 173.123C194.194 173.337 193.846 173.444 193.404 173.444C192.947 173.444 192.587 173.329 192.326 173.101C192.064 172.873 191.871 172.593 191.746 172.261C191.62 171.929 191.484 171.498 191.336 170.967L189.611 165.085L187.942 170.967C187.721 171.785 187.48 172.403 187.222 172.819C186.964 173.236 186.512 173.444 185.863 173.444C185.53 173.444 185.249 173.379 185.017 173.25C184.785 173.121 184.591 172.938 184.437 172.698C184.282 172.458 184.145 172.175 184.027 171.846C183.909 171.519 183.817 171.258 183.751 171.067L181.308 163.835C181.064 163.157 180.943 162.689 180.943 162.431C180.943 162.107 181.071 161.816 181.329 161.558C181.587 161.3 181.905 161.171 182.28 161.171C182.782 161.171 183.121 161.312 183.298 161.596C183.475 161.881 183.663 162.365 183.862 163.05Z" fill="#121F44"/>
<path d="M202.316 163.05L204.283 169.795L206.075 163.526C206.267 162.87 206.408 162.422 206.501 162.183C206.593 161.943 206.766 161.714 207.02 161.497C207.274 161.279 207.623 161.171 208.066 161.171C208.515 161.171 208.867 161.279 209.121 161.497C209.375 161.714 209.554 161.95 209.657 162.205C209.761 162.459 209.904 162.899 210.089 163.526L211.88 169.795L213.87 163.05C214.003 162.563 214.11 162.212 214.191 161.994C214.272 161.777 214.408 161.585 214.6 161.42C214.791 161.254 215.068 161.171 215.429 161.171C215.791 161.171 216.104 161.296 216.369 161.547C216.635 161.798 216.768 162.093 216.768 162.431C216.768 162.741 216.653 163.209 216.424 163.835L213.959 171.067C213.745 171.679 213.579 172.121 213.462 172.394C213.343 172.666 213.157 172.91 212.903 173.123C212.648 173.337 212.3 173.444 211.858 173.444C211.401 173.444 211.041 173.329 210.78 173.101C210.518 172.873 210.325 172.593 210.199 172.261C210.073 171.929 209.937 171.498 209.79 170.967L208.066 165.085L206.396 170.967C206.175 171.785 205.935 172.403 205.677 172.819C205.419 173.236 204.966 173.444 204.317 173.444C203.985 173.444 203.704 173.379 203.471 173.25C203.239 173.121 203.045 172.938 202.891 172.698C202.736 172.458 202.599 172.175 202.481 171.846C202.363 171.519 202.272 171.258 202.205 171.067L199.762 163.835C199.518 163.157 199.397 162.689 199.397 162.431C199.397 162.107 199.525 161.816 199.783 161.558C200.041 161.3 200.358 161.171 200.735 161.171C201.236 161.171 201.574 161.312 201.752 161.596C201.928 161.881 202.117 162.365 202.316 163.05Z" fill="#121F44"/>
<path d="M219.049 159.294V175.736H220.81V159.294" fill="#121F44"/>
<path d="M257.758 180.817C259.366 180.457 259.526 179.465 258.12 178.612L229.239 161.121C227.829 160.267 227.038 160.867 227.479 162.453L236.516 194.987C236.958 196.572 237.957 196.684 238.737 195.236L241.613 189.898C242.394 188.449 243.847 188.337 244.84 189.648L253.813 201.484C254.807 202.795 256.692 203.054 258.005 202.06L259.125 201.213C260.436 200.218 260.696 198.331 259.701 197.02L250.731 185.183C249.736 183.872 250.236 182.504 251.844 182.145L257.758 180.817Z" fill="#121F44"/>
<path d="M228.044 212.311C223.438 203.452 211.533 203.798 207.744 210.639C207.281 202.38 192.911 197.774 188.395 208.527C189.919 196.002 173.973 191.396 167.68 199.191C165.323 189.443 150.586 185.726 142.908 198.471C145.979 186.08 130.034 176.159 119.524 185.608C103.458 168.718 119.804 137.698 121.463 131.07C119.092 130.736 117.724 128.871 116.23 127.179C111.94 130.735 98.8764 155.895 96.7249 161.158C91.7644 173.293 86.3016 169.633 86.3016 169.633C79.3625 165.883 63.4166 177.222 74.1693 190.99C66.9591 189.27 64.1255 201.672 71.9549 206.633C60.5815 209.114 65.8968 225.059 80.835 223.049H228.044V212.311Z" fill="white"/>
<path d="M142.311 128.633C131.703 142.042 108.259 147.45 108.259 147.45C108.259 147.45 107.576 118.64 116.086 107.885C124.595 97.1281 144.467 98.9577 144.467 98.9577C144.467 98.9577 152.919 115.226 142.311 128.633Z" fill="#FCB116"/>
<path d="M140.807 122.318C133.418 131.657 117.121 135.451 117.121 135.451C117.121 135.451 116.683 115.413 122.611 107.921C128.539 100.429 142.346 101.673 142.346 101.673C142.346 101.673 148.197 112.977 140.807 122.318Z" fill="#FFC906"/>
<path d="M162.761 140.621C155.481 134.862 156.028 114.922 156.028 114.922C156.028 114.922 185.494 87.904 188.412 90.2122C197.752 97.6014 165.678 142.929 162.761 140.621Z" fill="#F26521"/>
<path d="M189.887 92.5688C187.047 100.55 183.069 108.135 178.3 115.128C174.871 120.155 171.414 125.512 167.422 130.113C165.149 132.731 162.626 135.015 159.613 136.422C160.456 138.132 161.492 139.594 162.776 140.609C165.466 142.738 192.96 104.343 189.887 92.5688Z" fill="#F5801F"/>
<path d="M100.103 91.0211C107.381 96.7796 126.661 91.6617 126.661 91.6617C126.661 91.6617 146.175 56.7695 143.259 54.4613C133.919 47.0729 97.1852 88.7137 100.103 91.0211Z" fill="#F26521"/>
<path d="M140.619 53.5857C133.505 58.1828 127.036 63.8 121.329 70.0493C117.225 74.5436 112.808 79.1399 109.249 84.0843C107.224 86.8986 105.581 89.8781 104.906 93.1341C103.047 92.7071 101.386 92.0357 100.103 91.0203C97.4118 88.8911 128.452 53.303 140.619 53.5857Z" fill="#F5801F"/>
<path d="M155.049 118.956C153.344 121.11 150.58 121.762 148.876 120.413L122.628 99.6476C120.923 98.298 120.92 95.4583 122.624 93.303L123.063 92.7507C124.766 90.5969 127.531 89.9456 129.237 91.2944L155.484 112.061C157.189 113.409 157.191 116.249 155.486 118.403L155.049 118.956Z" fill="#F26521"/>
<path d="M217.65 6.28483C217.65 6.28483 182.146 0.165289 145.992 45.861C128.304 68.2176 121.907 93.1151 121.907 93.1151L138.54 106.275L155.174 119.434C155.174 119.434 177.931 107.48 195.619 85.1237C231.772 39.428 217.65 6.28483 217.65 6.28483Z" fill="white"/>
<path d="M153.548 91.5712C150.287 90.4083 146.625 93.4416 143.982 95.0047C142.84 95.6806 140.091 97.5087 138.971 95.792C136.967 92.7249 139.332 86.6999 140.264 83.705C142.602 76.199 145.847 68.7975 149.06 61.6249C155.721 46.7535 166.348 35.0106 179.583 25.6635C185.785 21.2837 192.35 17.3249 199.218 14.0673C205.265 11.2023 211.94 9.87421 217.76 6.56749C217.691 6.38392 217.65 6.28483 217.65 6.28483C217.65 6.28483 182.146 0.165289 145.992 45.861C128.304 68.2176 121.907 93.1151 121.907 93.1151L155.174 119.434C155.174 119.434 155.771 119.12 156.837 118.506C150.427 111.694 148.769 100.666 153.548 91.5712Z" fill="#D1D3D4"/>
<path d="M219.346 35.9472C222.487 17.5294 217.7 6.28354 217.7 6.28354C217.7 6.28354 205.653 4.21194 188.452 11.5067L219.346 35.9472Z" fill="#F26521"/>
<path d="M193.336 70.5315C186.398 79.298 173.668 80.7835 164.9 73.8467C156.132 66.9083 154.649 54.1784 161.585 45.4112C168.523 36.6432 181.252 35.1577 190.022 42.0953C198.789 49.0321 200.273 61.7635 193.336 70.5315Z" fill="#F26521"/>
<path d="M189.598 67.5875C184.284 74.3039 174.533 75.4407 167.816 70.1269C164.273 67.324 162.281 63.2792 161.971 59.0953C161.893 58.0022 161.924 56.9015 162.083 55.8116C162.155 55.2693 162.257 54.7355 162.391 54.2116C162.752 52.7553 163.328 51.342 164.136 50.0078C164.471 49.4332 164.852 48.8794 165.276 48.344C170.589 41.6284 180.347 40.4947 187.058 45.8047C190.391 48.4408 192.349 52.1731 192.828 56.082C193.013 57.5859 192.978 59.1237 192.716 60.6261C192.627 61.1638 192.5 61.6953 192.353 62.2161C192.055 63.2592 191.644 64.2846 191.116 65.264C190.692 66.072 190.185 66.8455 189.598 67.5875Z" fill="#00B4A8"/>
<path d="M191.745 60.4187L162.409 54.2131C162.77 52.7568 163.346 51.3435 164.154 50.0093L192.547 56.0197C192.495 57.5037 192.229 58.9862 191.745 60.4187Z" fill="#61C7C8"/>
<path d="M192.846 60.1446C193.036 58.7935 193.046 57.4263 192.881 56.0806L192.883 56.0813C192.96 56.7104 192.999 57.3449 192.999 57.9801C192.998 58.7029 192.948 59.4265 192.846 60.1446Z" fill="#61C7C8"/>
<path d="M189.337 64.8973L161.971 59.105C161.944 58.7294 161.93 58.353 161.93 57.9758C161.929 57.2569 161.978 56.5364 162.082 55.8213L191.114 61.9639C190.641 62.9847 190.05 63.9686 189.337 64.8973Z" fill="#61C7C8"/>
<path d="M177.459 73.4838C174.09 73.4838 170.697 72.3908 167.848 70.1379C167.053 69.5081 166.335 68.816 165.698 68.0732C166.335 68.8152 167.053 69.5073 167.848 70.1364C170.696 72.39 174.089 73.483 177.459 73.483C182.035 73.483 186.569 71.4652 189.629 67.597C190.216 66.855 190.723 66.0815 191.147 65.2735C191.675 64.2941 192.086 63.2687 192.384 62.2256C192.455 61.9767 192.52 61.7248 192.579 61.4713C192.081 63.6405 191.104 65.7359 189.631 67.5978C186.57 71.4667 182.037 73.4838 177.459 73.4838ZM165.695 68.0702C165.691 68.0663 165.688 68.0625 165.685 68.0586C165.688 68.0625 165.692 68.0663 165.695 68.0702ZM192.726 60.7562C192.734 60.7163 192.741 60.6763 192.747 60.6356C192.775 60.4759 192.801 60.3153 192.823 60.1548C192.795 60.3553 192.763 60.5557 192.726 60.7562Z" fill="#96471A"/>
<path d="M177.457 73.4767C174.087 73.4767 170.693 72.3837 167.845 70.13C167.05 69.501 166.333 68.8089 165.695 68.0669C165.695 68.0661 165.693 68.0646 165.692 68.0638C165.689 68.06 165.685 68.0561 165.682 68.0523C165.678 68.0477 165.674 68.0431 165.67 68.0377C163.496 65.4945 162.257 62.3691 162.01 59.1599C162.802 62.3898 164.631 65.3908 167.441 67.6137C170.289 69.8666 173.683 70.9596 177.053 70.9596C181.63 70.9596 186.162 68.9425 189.223 65.0743C189.271 65.0137 189.319 64.9522 189.366 64.8908L191.144 65.2671C190.72 66.0752 190.213 66.8487 189.627 67.5907C186.566 71.4589 182.033 73.4767 177.457 73.4767ZM192.382 62.2193L191.143 61.9573C191.376 61.4535 191.58 60.9404 191.756 60.4204L192.744 60.6293C192.738 60.67 192.731 60.7099 192.724 60.7499C192.681 60.9888 192.631 61.2276 192.577 61.465C192.518 61.7185 192.452 61.9704 192.382 62.2193ZM192.856 56.0844L192.558 56.0214C192.579 55.4346 192.567 54.8477 192.522 54.2632C192.668 54.8631 192.78 55.4722 192.856 56.0844Z" fill="#00867F"/>
<path d="M192.716 60.6284L191.728 60.4195C192.212 58.9869 192.477 57.5045 192.53 56.0205L192.828 56.0835C192.992 57.4292 192.982 58.7965 192.792 60.1476C192.77 60.3081 192.745 60.4686 192.716 60.6284Z" fill="#269096"/>
<path d="M191.189 65.2619L189.411 64.8856C190.124 63.9569 190.715 62.973 191.188 61.9521L192.427 62.2141C192.129 63.2572 191.718 64.2826 191.189 65.2619Z" fill="#269096"/>
<path d="M43.8809 53.1945V60.0968C43.8809 60.3333 44.0737 60.5254 44.311 60.5254C44.5476 60.5254 44.7396 60.3333 44.7396 60.0968V53.1945C44.7396 52.9572 44.5476 52.7651 44.311 52.7651C44.0737 52.7651 43.8809 52.9572 43.8809 53.1945Z" fill="white"/>
<path d="M47.7166 56.2002H40.8751C40.6385 56.2002 40.4457 56.3922 40.4457 56.6296C40.4457 56.8662 40.6385 57.0582 40.8751 57.0582H47.7166C47.9532 57.0582 48.146 56.8662 48.146 56.6296C48.146 56.3922 47.9532 56.2002 47.7166 56.2002Z" fill="white"/>
<path d="M3.43506 143.107V150.009C3.43506 150.246 3.62709 150.438 3.86443 150.438C4.10101 150.438 4.29381 150.246 4.29381 150.009V143.107C4.29381 142.869 4.10101 142.677 3.86443 142.677C3.62709 142.677 3.43506 142.869 3.43506 143.107Z" fill="white"/>
<path d="M7.2717 146.133H0.429374C0.192796 146.133 0 146.325 0 146.562C0 146.799 0.192796 146.992 0.429374 146.992H7.2717C7.50828 146.992 7.70031 146.799 7.70031 146.562C7.70031 146.325 7.50828 146.133 7.2717 146.133Z" fill="white"/>
<path d="M53.4067 106.348H62.0495C62.2861 106.348 62.4781 106.156 62.4781 105.92C62.4781 105.682 62.2861 105.49 62.0495 105.49H53.4067C53.1694 105.49 52.9774 105.682 52.9774 105.92C52.9774 106.156 53.1694 106.348 53.4067 106.348Z" fill="white"/>
<path d="M64.9903 106.348H67.3914C67.628 106.348 67.82 106.156 67.82 105.92C67.82 105.682 67.628 105.49 67.3914 105.49H64.9903C64.7537 105.49 64.5609 105.682 64.5609 105.92C64.5609 106.156 64.7537 106.348 64.9903 106.348Z" fill="white"/>
<path d="M69.5439 106.348H71.945C72.1816 106.348 72.3744 106.156 72.3744 105.92C72.3744 105.682 72.1816 105.49 71.945 105.49H69.5439C69.3073 105.49 69.1145 105.682 69.1145 105.92C69.1145 106.156 69.3073 106.348 69.5439 106.348Z" fill="white"/>
<path d="M55.0844 109.345H63.728C63.9645 109.345 64.1573 109.152 64.1573 108.915C64.1573 108.678 63.9645 108.486 63.728 108.486H55.0844C54.8478 108.486 54.655 108.678 54.655 108.915C54.655 109.152 54.8478 109.345 55.0844 109.345Z" fill="white"/>
<path d="M66.6679 109.345H69.069C69.3056 109.345 69.4984 109.152 69.4984 108.915C69.4984 108.678 69.3056 108.486 69.069 108.486H66.6679C66.4313 108.486 66.2385 108.678 66.2385 108.915C66.2385 109.152 66.4313 109.345 66.6679 109.345Z" fill="white"/>
<path d="M71.2215 109.345H73.6211C73.8576 109.345 74.0497 109.152 74.0497 108.915C74.0497 108.678 73.8576 108.486 73.6211 108.486H71.2215C70.9849 108.486 70.7921 108.678 70.7921 108.915C70.7921 109.152 70.9849 109.345 71.2215 109.345Z" fill="white"/>
<path d="M11.3738 207.545H20.0173C20.2539 207.545 20.4467 207.352 20.4467 207.116C20.4467 206.879 20.2539 206.687 20.0173 206.687H11.3738C11.1372 206.687 10.9444 206.879 10.9444 207.116C10.9444 207.352 11.1372 207.545 11.3738 207.545Z" fill="white"/>
<path d="M22.9575 207.545H25.3586C25.5951 207.545 25.7879 207.352 25.7879 207.116C25.7879 206.879 25.5951 206.687 25.3586 206.687H22.9575C22.7209 206.687 22.5281 206.879 22.5281 207.116C22.5281 207.352 22.7209 207.545 22.9575 207.545Z" fill="white"/>
<path d="M27.5109 207.545H29.9104C30.147 207.545 30.339 207.352 30.339 207.116C30.339 206.879 30.147 206.687 29.9104 206.687H27.5109C27.2743 206.687 27.0815 206.879 27.0815 207.116C27.0815 207.352 27.2743 207.545 27.5109 207.545Z" fill="white"/>
<path d="M13.0514 210.54H21.6935C21.93 210.54 22.1221 210.348 22.1221 210.111C22.1221 209.874 21.93 209.682 21.6935 209.682H13.0514C12.8149 209.682 12.6221 209.874 12.6221 210.111C12.6221 210.348 12.8149 210.54 13.0514 210.54Z" fill="white"/>
<path d="M24.6349 210.54H27.0361C27.2726 210.54 27.4647 210.348 27.4647 210.111C27.4647 209.874 27.2726 209.682 27.0361 209.682H24.6349C24.3976 209.682 24.2056 209.874 24.2056 210.111C24.2056 210.348 24.3976 210.54 24.6349 210.54Z" fill="white"/>
<path d="M29.1885 210.54H31.5896C31.8262 210.54 32.0182 210.348 32.0182 210.111C32.0182 209.874 31.8262 209.682 31.5896 209.682H29.1885C28.952 209.682 28.7592 209.874 28.7592 210.111C28.7592 210.348 28.952 210.54 29.1885 210.54Z" fill="white"/>
<path d="M188.852 0.429374V7.33162C188.852 7.56819 189.044 7.76099 189.282 7.76099C189.518 7.76099 189.71 7.56819 189.71 7.33162V0.429374C189.71 0.192796 189.518 0 189.282 0C189.044 0 188.852 0.192796 188.852 0.429374Z" fill="white"/>
<path d="M192.688 3.45508H185.846C185.609 3.45508 185.417 3.64711 185.417 3.88369C185.417 4.12103 185.609 4.31306 185.846 4.31306H192.688C192.924 4.31306 193.116 4.12103 193.116 3.88369C193.116 3.64711 192.924 3.45508 192.688 3.45508Z" fill="white"/>
<path d="M270.895 109.108V116.01C270.895 116.246 271.088 116.438 271.325 116.438C271.561 116.438 271.754 116.246 271.754 116.01V109.108C271.754 108.87 271.561 108.678 271.325 108.678C271.088 108.678 270.895 108.87 270.895 109.108Z" fill="white"/>
<path d="M274.731 112.133H267.889C267.653 112.133 267.46 112.326 267.46 112.563C267.46 112.799 267.653 112.992 267.889 112.992H274.731C274.967 112.992 275.16 112.799 275.16 112.563C275.16 112.326 274.967 112.133 274.731 112.133Z" fill="white"/>
<path d="M250.341 46.7931V53.6946C250.341 53.932 250.533 54.124 250.77 54.124C251.007 54.124 251.199 53.932 251.199 53.6946V46.7931C251.199 46.5558 251.007 46.3638 250.77 46.3638C250.533 46.3638 250.341 46.5558 250.341 46.7931Z" fill="white"/>
<path d="M254.176 49.8184H247.335C247.098 49.8184 246.906 50.0112 246.906 50.2477C246.906 50.4851 247.098 50.6771 247.335 50.6771H254.176C254.412 50.6771 254.605 50.4851 254.605 50.2477C254.605 50.0112 254.412 49.8184 254.176 49.8184Z" fill="white"/>
<path d="M94.7754 24.3714H103.418C103.655 24.3714 103.848 24.1786 103.848 23.9421C103.848 23.7055 103.655 23.5127 103.418 23.5127H94.7754C94.5381 23.5127 94.346 23.7055 94.346 23.9421C94.346 24.1786 94.5381 24.3714 94.7754 24.3714Z" fill="white"/>
<path d="M106.359 24.3714H108.759C108.996 24.3714 109.188 24.1786 109.188 23.9421C109.188 23.7055 108.996 23.5127 108.759 23.5127H106.359C106.122 23.5127 105.93 23.7055 105.93 23.9421C105.93 24.1786 106.122 24.3714 106.359 24.3714Z" fill="white"/>
<path d="M110.912 24.3714H113.313C113.55 24.3714 113.742 24.1786 113.742 23.9421C113.742 23.7055 113.55 23.5127 113.313 23.5127H110.912C110.675 23.5127 110.483 23.7055 110.483 23.9421C110.483 24.1786 110.675 24.3714 110.912 24.3714Z" fill="white"/>
<path d="M96.4529 27.3668H105.094C105.332 27.3668 105.524 27.1747 105.524 26.9374C105.524 26.7008 105.332 26.5088 105.094 26.5088H96.4529C96.2156 26.5088 96.0236 26.7008 96.0236 26.9374C96.0236 27.1747 96.2156 27.3668 96.4529 27.3668Z" fill="white"/>
<path d="M108.036 27.3668H110.436C110.673 27.3668 110.865 27.1747 110.865 26.9374C110.865 26.7008 110.673 26.5088 110.436 26.5088H108.036C107.799 26.5088 107.607 26.7008 107.607 26.9374C107.607 27.1747 107.799 27.3668 108.036 27.3668Z" fill="white"/>
<path d="M112.59 27.3668H114.991C115.228 27.3668 115.421 27.1747 115.421 26.9374C115.421 26.7008 115.228 26.5088 114.991 26.5088H112.59C112.353 26.5088 112.161 26.7008 112.161 26.9374C112.161 27.1747 112.353 27.3668 112.59 27.3668Z" fill="white"/>
<path d="M218.52 84.1324H227.162C227.399 84.1324 227.592 83.9404 227.592 83.7038C227.592 83.4664 227.399 83.2744 227.162 83.2744H218.52C218.282 83.2744 218.09 83.4664 218.09 83.7038C218.09 83.9404 218.282 84.1324 218.52 84.1324Z" fill="white"/>
<path d="M230.103 84.1324H232.503C232.74 84.1324 232.933 83.9404 232.933 83.7038C232.933 83.4664 232.74 83.2744 232.503 83.2744H230.103C229.866 83.2744 229.674 83.4664 229.674 83.7038C229.674 83.9404 229.866 84.1324 230.103 84.1324Z" fill="white"/>
<path d="M234.657 84.1324H237.056C237.293 84.1324 237.485 83.9404 237.485 83.7038C237.485 83.4664 237.293 83.2744 237.056 83.2744H234.657C234.42 83.2744 234.227 83.4664 234.227 83.7038C234.227 83.9404 234.42 84.1324 234.657 84.1324Z" fill="white"/>
<path d="M220.197 87.1288H228.842C229.079 87.1288 229.272 86.936 229.272 86.6994C229.272 86.4628 229.079 86.27 228.842 86.27H220.197C219.961 86.27 219.768 86.4628 219.768 86.6994C219.768 86.936 219.961 87.1288 220.197 87.1288Z" fill="white"/>
<path d="M231.781 87.1288H234.179C234.415 87.1288 234.608 86.936 234.608 86.6994C234.608 86.4628 234.415 86.27 234.179 86.27H231.781C231.544 86.27 231.351 86.4628 231.351 86.6994C231.351 86.936 231.544 87.1288 231.781 87.1288Z" fill="white"/>
<path d="M236.334 87.1288H238.734C238.97 87.1288 239.162 86.936 239.162 86.6994C239.162 86.4628 238.97 86.27 238.734 86.27H236.334C236.098 86.27 235.905 86.4628 235.905 86.6994C235.905 86.936 236.098 87.1288 236.334 87.1288Z" fill="white"/>
<path d="M264.025 208.413V215.315C264.025 215.553 264.217 215.745 264.454 215.745C264.691 215.745 264.884 215.553 264.884 215.315V208.413C264.884 208.176 264.691 207.984 264.454 207.984C264.217 207.984 264.025 208.176 264.025 208.413Z" fill="white"/>
<path d="M267.86 211.439H261.019C260.782 211.439 260.59 211.631 260.59 211.869C260.59 212.105 260.782 212.298 261.019 212.298H267.86C268.097 212.298 268.289 212.105 268.289 211.869C268.289 211.631 268.097 211.439 267.86 211.439Z" fill="white"/>
<path d="M282.509 166.044H291.151C291.387 166.044 291.579 165.852 291.579 165.615C291.579 165.378 291.387 165.186 291.151 165.186H282.509C282.272 165.186 282.079 165.378 282.079 165.615C282.079 165.852 282.272 166.044 282.509 166.044Z" fill="white"/>
<path d="M294.092 166.044H296.492C296.728 166.044 296.92 165.852 296.92 165.615C296.92 165.378 296.728 165.186 296.492 165.186H294.092C293.856 165.186 293.663 165.378 293.663 165.615C293.663 165.852 293.856 166.044 294.092 166.044Z" fill="white"/>
<path d="M298.646 166.044H301.047C301.283 166.044 301.475 165.852 301.475 165.615C301.475 165.378 301.283 165.186 301.047 165.186H298.646C298.409 165.186 298.216 165.378 298.216 165.615C298.216 165.852 298.409 166.044 298.646 166.044Z" fill="white"/>
<path d="M284.186 169.04H292.828C293.065 169.04 293.257 168.848 293.257 168.611C293.257 168.374 293.065 168.182 292.828 168.182H284.186C283.95 168.182 283.757 168.374 283.757 168.611C283.757 168.848 283.95 169.04 284.186 169.04Z" fill="white"/>
<path d="M295.77 169.04H298.171C298.407 169.04 298.599 168.848 298.599 168.611C298.599 168.374 298.407 168.182 298.171 168.182H295.77C295.533 168.182 295.34 168.374 295.34 168.611C295.34 168.848 295.533 169.04 295.77 169.04Z" fill="white"/>
<path d="M300.323 169.04H302.726C302.963 169.04 303.155 168.848 303.155 168.611C303.155 168.374 302.963 168.182 302.726 168.182H300.323C300.086 168.182 299.894 168.374 299.894 168.611C299.894 168.848 300.086 169.04 300.323 169.04Z" fill="white"/>
</svg>
