<svg xmlns="http://www.w3.org/2000/svg" xmlns:xlink="http://www.w3.org/1999/xlink" width="194" height="97" fill="none" xmlns:v="https://vecta.io/nano"><rect y="37.322" width="34" height="34" rx="3" fill="#48b065"/><use xlink:href="#B" fill="#fff"/><rect x="40" y="37.322" width="33" height="34" rx="3" fill="#48b065"/><use xlink:href="#B" x="40" fill="#fff"/><rect x="78" y="37.322" width="34" height="34" rx="3" fill="#48b065"/><use xlink:href="#B" x="78" fill="#fff"/><rect x="118" y="37.322" width="34" height="34" rx="3" fill="#48b065"/><use xlink:href="#B" x="118" fill="#fff"/><rect x="160" y="37.322" width="34" height="34" rx="3" fill="#dfdfdf"/><g fill="#fff"><use xlink:href="#B" x="160"/><path d="M32.472 23.322h3.888V9.69h5.376V6.522h-14.64V9.69h5.376v13.632zm14.387-11.208V10.41h-3.576v12.912h3.744v-6.096c0-2.472 1.368-3.6 3.432-3.6.288 0 .528.024.84.048v-3.456c-1.992 0-3.528.648-4.44 1.896zm16.024-1.704v6.384c0 2.376-1.248 3.48-2.976 3.48-1.656 0-2.616-.96-2.616-3.12V10.41h-3.744v7.296c0 3.984 2.28 5.808 5.52 5.808 1.584 0 3.024-.6 4.008-1.728v1.536h3.552V10.41h-3.744zm11.557 13.104c3.864 0 6.096-1.704 6.096-4.104 0-5.088-7.8-2.952-7.8-5.16 0-.672.72-1.2 2.4-1.2 1.176 0 2.448.24 3.72.96l1.248-2.664c-1.224-.72-3.192-1.128-4.968-1.128-3.768 0-5.976 1.728-5.976 4.176 0 5.16 7.8 3 7.8 5.112 0 .72-.648 1.176-2.376 1.176-1.584 0-3.336-.504-4.488-1.248l-1.248 2.688c1.2.792 3.408 1.392 5.592 1.392zm15.726-3.456c-.408.312-.96.48-1.512.48-1.008 0-1.608-.6-1.608-1.704v-5.256h3.216v-2.88h-3.216V7.554h-3.744v3.144h-1.992v2.88h1.992v5.304c0 3.072 1.776 4.632 4.824 4.632 1.152 0 2.28-.264 3.048-.816l-1.008-2.64zm10.742-9.84c-1.728 0-3.12.552-4.056 1.68V10.41h-3.576v17.568h3.744v-6.024c.96 1.056 2.28 1.56 3.888 1.56 3.624 0 6.432-2.592 6.432-6.648s-2.808-6.648-6.432-6.648zm-.648 10.224c-1.872 0-3.288-1.344-3.288-3.576s1.416-3.576 3.288-3.576 3.288 1.344 3.288 3.576-1.416 3.576-3.288 3.576zM111.717 8.61c1.392 0 2.328-.912 2.328-2.16 0-1.152-.936-2.016-2.328-2.016s-2.328.912-2.328 2.088.936 2.088 2.328 2.088zm-1.872 14.712h3.744V10.41h-3.744v12.912zm7.219 0h3.744V5.514h-3.744v17.808zm13.363.192c4.104 0 7.08-2.76 7.08-6.648s-2.976-6.648-7.08-6.648-7.104 2.76-7.104 6.648 3 6.648 7.104 6.648zm0-3.072c-1.872 0-3.312-1.344-3.312-3.576s1.44-3.576 3.312-3.576 3.288 1.344 3.288 3.576-1.416 3.576-3.288 3.576zm16.902-.384c-.408.312-.96.48-1.512.48-1.008 0-1.608-.6-1.608-1.704v-5.256h3.216v-2.88h-3.216V7.554h-3.744v3.144h-1.992v2.88h1.992v5.304c0 3.072 1.776 4.632 4.824 4.632 1.152 0 2.28-.264 3.048-.816l-1.008-2.64z"/></g><path d="M10.5 5.634l-2.986 6.051-6.674.965 4.83 4.712-1.142 6.648 5.972-3.137 5.972 3.137-1.142-6.648 4.83-4.705-6.674-.971L10.5 5.634z" fill="#48b065"/><path d="M3.304 93.322h1.82v-8.26h3.248v-1.54H.056v1.54h3.248v8.26zm7.754-6.384v-1.092H9.392v7.476h1.75v-3.626c0-1.526.84-2.31 2.17-2.31a2.22 2.22 0 0 1 .406.042v-1.666c-1.246 0-2.156.392-2.66 1.176zm9.701-1.092v3.78c0 1.498-.826 2.254-2.044 2.254-1.106 0-1.75-.644-1.75-2.002v-4.032h-1.75v4.27c0 2.254 1.302 3.304 3.22 3.304.966 0 1.848-.364 2.408-1.05v.952h1.666v-7.476h-1.75zm6.351 7.574c2.1 0 3.388-.91 3.388-2.31 0-2.926-4.62-1.582-4.62-3.094 0-.49.504-.84 1.568-.84.714 0 1.428.14 2.142.56l.672-1.33c-.672-.406-1.806-.644-2.8-.644-2.016 0-3.29.924-3.29 2.338 0 2.982 4.62 1.638 4.62 3.066 0 .518-.462.826-1.568.826-.938 0-1.946-.308-2.604-.742l-.672 1.33c.672.476 1.918.84 3.164.84zm8.899-1.75c-.266.21-.616.308-.98.308-.672 0-1.036-.392-1.036-1.12v-3.556h2.002v-1.4h-2.002v-1.708h-1.75v1.708h-1.232v1.4h1.232V90.9c0 1.652.938 2.52 2.576 2.52.63 0 1.26-.168 1.68-.504l-.49-1.246zm5.136 1.792c2.688 0 3.962-1.344 3.962-2.912 0-3.598-5.81-2.24-5.81-4.326 0-.742.616-1.33 2.128-1.33.854 0 1.82.252 2.702.77l.574-1.414c-.854-.56-2.086-.868-3.262-.868-2.688 0-3.948 1.344-3.948 2.926 0 3.64 5.824 2.254 5.824 4.368 0 .728-.644 1.274-2.17 1.274-1.204 0-2.45-.448-3.234-1.078l-.63 1.414c.812.7 2.338 1.176 3.864 1.176zm9.029-.042c1.456 0 2.618-.63 3.192-1.75l-1.344-.784c-.448.714-1.12 1.036-1.862 1.036-1.288 0-2.268-.882-2.268-2.338 0-1.442.98-2.338 2.268-2.338.742 0 1.414.322 1.862 1.036l1.344-.784c-.574-1.134-1.736-1.736-3.192-1.736-2.366 0-4.046 1.582-4.046 3.822s1.68 3.836 4.046 3.836zm7.955 0c2.324 0 3.99-1.596 3.99-3.836s-1.666-3.822-3.99-3.822c-2.296 0-3.976 1.582-3.976 3.822s1.68 3.836 3.976 3.836zm0-1.498c-1.26 0-2.212-.91-2.212-2.338s.952-2.338 2.212-2.338c1.274 0 2.226.91 2.226 2.338s-.952 2.338-2.226 2.338zm7.329-4.984v-1.092h-1.666v7.476h1.75v-3.626c0-1.526.84-2.31 2.17-2.31a2.22 2.22 0 0 1 .406.042v-1.666c-1.246 0-2.156.392-2.66 1.176zm11.104 2.688c0-2.338-1.596-3.864-3.78-3.864-2.226 0-3.864 1.596-3.864 3.822s1.624 3.836 4.13 3.836c1.288 0 2.338-.42 3.01-1.218l-.938-1.078c-.532.546-1.19.812-2.03.812-1.302 0-2.212-.7-2.422-1.792h5.866l.028-.518zm-3.78-2.464c1.148 0 1.974.742 2.114 1.82h-4.242c.168-1.092.994-1.82 2.128-1.82zm17.534 2.394H88.58v-1.974h-1.708v1.974h-3.206l4.55-6.034H86.27l-4.83 6.314v1.26h5.376v2.226h1.764v-2.226h1.736v-1.54zm2.131 3.864c.63 0 1.148-.49 1.148-1.162a1.12 1.12 0 0 0-1.148-1.162 1.12 1.12 0 0 0-1.148 1.162c0 .672.518 1.162 1.148 1.162zm4.941-1.638l2.618-2.492c1.358-1.274 1.624-2.142 1.624-3.094 0-1.736-1.372-2.814-3.5-2.814-1.61 0-2.968.602-3.724 1.624l1.274.98c.546-.7 1.344-1.022 2.296-1.022 1.204 0 1.82.518 1.82 1.414 0 .546-.168 1.12-1.12 2.03l-3.892 3.696v1.218h7.224v-1.54h-4.62zm21.584-3.612c.798-.434 1.246-1.134 1.246-2.058 0-1.68-1.484-2.73-3.668-2.73-2.17 0-3.64 1.05-3.64 2.73 0 .924.434 1.624 1.218 2.058-1.008.462-1.568 1.26-1.568 2.338 0 1.82 1.554 2.954 3.99 2.954s4.018-1.134 4.018-2.954c0-1.078-.574-1.876-1.596-2.338zm-2.422-3.36c1.12 0 1.876.504 1.876 1.386 0 .84-.714 1.372-1.876 1.372-1.148 0-1.848-.532-1.848-1.372 0-.882.728-1.386 1.848-1.386zm0 7.224c-1.344 0-2.156-.588-2.156-1.582 0-.966.812-1.568 2.156-1.568s2.184.602 2.184 1.568c0 .994-.84 1.582-2.184 1.582zm9.287 1.428c2.338 0 4.102-1.82 4.102-5.04s-1.764-5.04-4.102-5.04c-2.324 0-4.088 1.82-4.088 5.04s1.764 5.04 4.088 5.04zm0-1.582c-1.33 0-2.254-1.092-2.254-3.458s.924-3.458 2.254-3.458c1.344 0 2.268 1.092 2.268 3.458s-.924 3.458-2.268 3.458zm18.273 1.442l-2.254-3.22c1.33-.518 2.086-1.61 2.086-3.094 0-2.17-1.596-3.486-4.172-3.486h-4.032v9.8h1.82v-2.856h2.212l.378-.014 2.002 2.87h1.96zm-2.002-6.314c0 1.232-.826 1.96-2.422 1.96h-2.128v-3.906h2.128c1.596 0 2.422.714 2.422 1.946zm10.73 2.618c0-2.338-1.596-3.864-3.78-3.864-2.226 0-3.864 1.596-3.864 3.822s1.624 3.836 4.13 3.836c1.288 0 2.338-.42 3.01-1.218l-.938-1.078c-.532.546-1.19.812-2.03.812-1.302 0-2.212-.7-2.422-1.792h5.866l.028-.518zm-3.78-2.464c1.148 0 1.974.742 2.114 1.82h-4.242c.168-1.092.994-1.82 2.128-1.82zm10.644-1.316l-2.394 5.544-2.324-5.544h-1.82l3.206 7.476h1.806l3.206-7.476h-1.68zm3.656-1.232c.658 0 1.12-.476 1.12-1.092 0-.574-.476-1.008-1.12-1.008s-1.12.462-1.12 1.05.476 1.05 1.12 1.05zm-.882 8.708h1.75v-7.476h-1.75v7.476zm11.075-3.696c0-2.338-1.596-3.864-3.78-3.864-2.226 0-3.864 1.596-3.864 3.822s1.624 3.836 4.13 3.836c1.288 0 2.338-.42 3.01-1.218l-.938-1.078c-.532.546-1.19.812-2.03.812-1.302 0-2.212-.7-2.422-1.792h5.866l.028-.518zm-3.78-2.464c1.148 0 1.974.742 2.114 1.82h-4.242c.168-1.092.994-1.82 2.128-1.82zm15.432-1.316l-2.03 5.544-2.016-5.544h-1.47l-2.058 5.516-1.974-5.516h-1.652l2.744 7.476h1.68l1.96-5.152 1.932 5.152h1.68l2.758-7.476h-1.554zm4.972 7.574c2.1 0 3.388-.91 3.388-2.31 0-2.926-4.62-1.582-4.62-3.094 0-.49.504-.84 1.568-.84.714 0 1.428.14 2.142.56l.672-1.33c-.672-.406-1.806-.644-2.8-.644-2.016 0-3.29.924-3.29 2.338 0 2.982 4.62 1.638 4.62 3.066 0 .518-.462.826-1.568.826-.938 0-1.946-.308-2.604-.742l-.672 1.33c.672.476 1.918.84 3.164.84z" fill="#fff"/><path stroke="#fff" d="M107.5 79.322v16"/><defs ><path id="B" d="M16.5 44.634l-2.986 6.051-6.674.965 4.83 4.712-1.142 6.648 5.972-3.137 5.972 3.137-1.142-6.648 4.83-4.705-6.674-.971-2.986-6.051z"/></defs></svg>