<svg xmlns="http://www.w3.org/2000/svg" width="129" height="60" fill="none" xmlns:v="https://vecta.io/nano"><path d="M54.43 35.259L41.727 51.075V12.711L54.43.061v35.198z" fill="#d7df23"/><path d="M50.749.072L38.047 12.721h3.679L54.427.072h-3.678z" fill="#a6ce39"/><path d="M14.906 43.064v1.013c0 1.117-.279 2.13-.834 3.033-.554.913-1.374 1.559-2.455 1.941l-1.797.614-1.95.681-1.645.592-.875.314a6.23 6.23 0 0 0-.441.239c-.176.104-.349.257-.526.464a3.36 3.36 0 0 0-.46.703c-.132.261-.196.571-.196.921v.792V60H0V33.036c.028-1.498.636-2.751 1.819-3.756 1.184-1.017 3.061-1.516 5.633-1.516 1.316 0 2.439.139 3.376.414s1.709.66 2.325 1.142c.615.492 1.058 1.049 1.337 1.698a5.17 5.17 0 0 1 .416 2.061v1.059 8.926h-.001zm-3.684-9.147c-.028-.385-.11-.746-.242-1.102a2.43 2.43 0 0 0-.613-.924c-.276-.261-.658-.467-1.138-.617s-1.076-.218-1.778-.218c-.729 0-1.334.086-1.815.242s-.868.375-1.141.639a2.24 2.24 0 0 0-.592.86c-.119.303-.176.617-.176.945v9.322.221 5.457c.057-.325.196-.564.416-.706s.444-.25.677-.31l1.451-.5 1.401-.514 1.49-.524a4 4 0 0 0 1.054-.614c.261-.239.495-.535.699-.906.204-.364.308-.824.308-1.384v-.221-9.146h-.001zm14.682-6.153c2.571 0 4.459.5 5.656 1.516 1.198 1.006 1.796 2.279 1.796 3.799v2.115 9.631 1.277c0 .525-.094 1.106-.284 1.737s-.562 1.209-1.117 1.734-1.316.97-2.281 1.32c-.967.356-2.222.531-3.77.531s-2.805-.175-3.77-.531c-.964-.35-1.724-.792-2.278-1.32-.559-.525-.931-1.106-1.118-1.734-.194-.632-.284-1.213-.284-1.737v-2.069a5.63 5.63 0 0 1 .854-3.036c.572-.906 1.381-1.556 2.432-1.934l1.799-.617 1.949-.681 1.645-.596.878-.307.459-.246c.192-.1.373-.254.549-.457a3.63 3.63 0 0 0 .464-.706c.128-.261.194-.567.194-.927v-.835c0-.289-.061-.592-.178-.895a2.2 2.2 0 0 0-.612-.86c-.295-.264-.676-.478-1.161-.639s-1.089-.243-1.82-.243c-1.459 0-2.446.303-2.959.903s-.768 1.323-.768 2.18h-3.724v-1.059a5.12 5.12 0 0 1 .416-2.062c.278-.649.722-1.206 1.335-1.698.613-.482 1.387-.863 2.323-1.142s2.06-.413 3.375-.413zm3.77 11.65c-.061.292-.208.513-.437.66a2.63 2.63 0 0 1-.66.307l-1.419.507-1.429.507-1.493.528a4.22 4.22 0 0 0-1.005.614 4 4 0 0 0-.729.899c-.214.371-.326.835-.326 1.391 0 1.117.261 1.941.789 2.49.524.538 1.508.81 2.936.81 1.462 0 2.457-.285 2.982-.853.526-.581.789-1.395.789-2.447v-5.412h.001z" fill="#523929"/><path d="M83.94 51.424c-2.571 0-4.455-.507-5.656-1.52-1.194-1.017-1.801-2.283-1.801-3.803v-2.115-9.627-1.281c0-.531.097-1.102.29-1.734s.562-1.209 1.117-1.737 1.316-.967 2.283-1.32c.96-.357 2.219-.525 3.768-.525s2.805.168 3.768.525 1.724.792 2.279 1.32.928 1.102 1.117 1.737.285 1.202.285 1.734v2.073c0 1.109-.285 2.122-.854 3.028-.569.913-1.38 1.556-2.436 1.937l-1.796.617-1.949.685-1.65.592-.867.307-.466.243c-.192.104-.37.257-.544.464a3.17 3.17 0 0 0-.462.703c-.132.261-.196.567-.196.921v.831c0 .3.061.603.174.91s.324.592.615.856.676.471 1.155.639c.487.165 1.095.243 1.824.243 1.457 0 2.449-.307 2.954-.899.512-.607.768-1.334.768-2.18h3.726v1.056c0 .731-.138 1.424-.413 2.066s-.725 1.213-1.337 1.698c-.615.478-1.39.86-2.329 1.142-.93.273-2.054.416-3.369.416zm-3.768-11.657c.061-.292.202-.517.434-.663s.455-.249.658-.303l1.426-.507 1.426-.503 1.49-.535c.352-.143.686-.346 1.006-.614.263-.236.505-.538.725-.903s.327-.827.327-1.381c0-1.12-.263-1.944-.789-2.49s-1.5-.814-2.933-.814c-1.462 0-2.454.289-2.979.856-.526.574-.789 1.384-.789 2.447v5.409h-.002z" fill="#a6ce39"/><path d="M38.044 12.719h3.683v38.356h-3.683V12.719zm34.103 38.357h-3.721V34.178v-.396c0-.257-.038-.546-.115-.856-.071-.307-.231-.599-.48-.878s-.613-.51-1.095-.703-1.134-.289-1.946-.289c-.824 0-1.485.1-1.998.289s-.906.414-1.187.682c-.273.261-.46.546-.543.856-.089.307-.137.581-.137.81v.485 16.898h-3.723V34.178v-.396c0-.257-.037-.546-.112-.856-.068-.307-.235-.599-.477-.878-.253-.279-.62-.51-1.1-.703s-1.129-.289-1.949-.289-1.483.1-1.997.289c-.509.193-.903.414-1.184.682-.273.261-.457.546-.548.856s-.128.581-.128.81v.485 16.898h-3.68V33.878v-.799c0-.35.054-.82.172-1.406s.425-1.17.919-1.759c.501-.589 1.248-1.091 2.238-1.52s2.369-.632 4.122-.632c1.398 0 2.548.139 3.438.414s1.613.624 2.17 1.035c.557-.411 1.279-.756 2.169-1.035s2.039-.414 3.444-.414c1.755 0 3.124.207 4.119.632s1.737.931 2.236 1.52.804 1.185.921 1.78c.117.602.174 1.063.174 1.384v.446 17.551h-.001z" fill="#523929"/><path d="M106.122 34.138v-.446c0-.289-.061-.592-.175-.895-.117-.31-.32-.599-.615-.86s-.679-.478-1.159-.639-1.095-.243-1.82-.243c-1.466 0-2.45.303-2.962.903s-.761 1.323-.761 2.18v10.687c0 1.117.26 1.941.783 2.49.526.538 1.508.81 2.941.81 1.46 0 2.453-.285 2.978-.853.527-.581.79-1.395.79-2.447h3.679v1.277c0 .525-.092 1.106-.281 1.737s-.562 1.209-1.12 1.734-1.312.97-2.279 1.32c-.964.357-2.222.532-3.768.532s-2.806-.175-3.776-.532c-.957-.35-1.717-.792-2.275-1.32-.551-.525-.924-1.106-1.12-1.734-.189-.632-.284-1.213-.284-1.737v-2.069-9.896-1.059c0-.731.142-1.419.419-2.061.278-.649.718-1.206 1.34-1.698.612-.482 1.386-.863 2.318-1.142s2.059-.414 3.378-.414c2.598 0 4.49.5 5.677 1.516 1.181 1.006 1.77 2.279 1.77 3.799v1.059h-3.677zM129 45.396v.706c0 .353-.061.82-.174 1.406s-.42 1.17-.918 1.758-1.245 1.095-2.24 1.52c-.992.417-2.364.639-4.117.639s-3.125-.221-4.117-.639c-.999-.424-1.749-.931-2.24-1.52-.498-.589-.803-1.18-.921-1.784s-.177-1.063-.177-1.381v-.482-12.541c0-.321.06-.782.177-1.384.118-.596.423-1.192.921-1.78.491-.589 1.241-1.091 2.24-1.52.992-.424 2.364-.632 4.117-.632s3.125.207 4.117.632 1.742.931 2.24 1.52.8 1.173.918 1.759.174 1.056.174 1.406v12.317zm-3.722-.442v-10.73-.482c0-.264-.043-.553-.132-.86s-.273-.596-.547-.856c-.278-.268-.665-.489-1.163-.682s-1.166-.289-2.02-.289c-.786 0-1.419.1-1.898.289-.487.193-.857.424-1.12.703s-.434.574-.508.896a3.78 3.78 0 0 0-.107.838v.442 10.73.442a3.65 3.65 0 0 0 .107.831c.074.328.242.632.508.906s.633.517 1.12.706c.48.189 1.113.285 1.898.285.854 0 1.522-.096 2.02-.285s.885-.424 1.163-.685.458-.549.547-.856a3.1 3.1 0 0 0 .132-.856v-.489z" fill="#a6ce39"/></svg>