<svg xmlns="http://www.w3.org/2000/svg" width="273" height="105" fill="#fff" xmlns:v="https://vecta.io/nano"><path d="M2.008 8.4h1.944l-.162 4.986H2.152L2.008 8.4zm3.474 0h1.944l-.162 4.986H5.626L5.482 8.4zM19.92 19.02V21H9.174v-1.566l7.416-9.054H9.3V8.4h10.386v1.566L12.27 19.02h7.65zm2.999 2.106c-.408 0-.756-.138-1.044-.414-.288-.288-.432-.648-.432-1.08 0-.444.138-.804.414-1.08.288-.276.642-.414 1.062-.414s.768.138 1.044.414c.288.276.432.636.432 1.08 0 .432-.144.792-.432 1.08-.288.276-.636.414-1.044.414zm7.909 0c-.996 0-1.89-.21-2.682-.63s-1.41-1.002-1.854-1.746c-.444-.756-.666-1.608-.666-2.556s.222-1.794.666-2.538 1.056-1.326 1.836-1.746c.792-.42 1.692-.63 2.7-.63.948 0 1.776.192 2.484.576.72.384 1.26.936 1.62 1.656l-1.728 1.008c-.276-.444-.624-.774-1.044-.99a2.72 2.72 0 0 0-1.35-.342c-.84 0-1.536.276-2.088.828-.552.54-.828 1.266-.828 2.178s.27 1.644.81 2.196c.552.54 1.254.81 2.106.81a2.84 2.84 0 0 0 1.35-.324c.42-.228.768-.564 1.044-1.008l1.728 1.008c-.372.72-.918 1.278-1.638 1.674-.708.384-1.53.576-2.466.576zm10.228 0c-.972 0-1.848-.21-2.628-.63s-1.392-1.002-1.836-1.746c-.432-.756-.648-1.608-.648-2.556s.216-1.794.648-2.538c.444-.744 1.056-1.326 1.836-1.746s1.656-.63 2.628-.63c.984 0 1.866.21 2.646.63a4.55 4.55 0 0 1 1.818 1.746c.444.744.666 1.59.666 2.538s-.222 1.8-.666 2.556a4.55 4.55 0 0 1-1.818 1.746c-.78.42-1.662.63-2.646.63zm0-1.926c.828 0 1.512-.276 2.052-.828s.81-1.278.81-2.178-.27-1.626-.81-2.178-1.224-.828-2.052-.828-1.512.276-2.052.828c-.528.552-.792 1.278-.792 2.178s.264 1.626.792 2.178c.54.552 1.224.828 2.052.828zm19.414-7.92c1.212 0 2.172.354 2.88 1.062.708.696 1.062 1.746 1.062 3.15V21h-2.25v-5.22c0-.84-.186-1.47-.558-1.89-.372-.432-.906-.648-1.602-.648-.756 0-1.362.252-1.818.756-.456.492-.684 1.2-.684 2.124V21h-2.25v-5.22c0-.84-.186-1.47-.558-1.89-.372-.432-.906-.648-1.602-.648-.768 0-1.38.246-1.836.738-.444.492-.666 1.206-.666 2.142V21h-2.25v-9.612h2.142v1.224c.36-.432.81-.762 1.35-.99s1.14-.342 1.8-.342c.72 0 1.356.138 1.908.414.564.264 1.008.66 1.332 1.188.396-.504.906-.894 1.53-1.17a4.88 4.88 0 0 1 2.07-.432zm11.792.108h2.25V21h-2.25v-9.612zm1.134-1.584c-.408 0-.75-.126-1.026-.378a1.29 1.29 0 0 1-.414-.972c0-.384.138-.702.414-.954.276-.264.618-.396 1.026-.396s.75.126 1.026.378a1.16 1.16 0 0 1 .414.918 1.37 1.37 0 0 1-.414 1.008c-.264.264-.606.396-1.026.396zm7.039 11.322c-.78 0-1.542-.102-2.286-.306s-1.338-.462-1.782-.774l.864-1.71c.432.288.948.522 1.548.702a6.78 6.78 0 0 0 1.8.252c1.344 0 2.016-.354 2.016-1.062 0-.336-.174-.57-.522-.702-.336-.132-.882-.258-1.638-.378-.792-.12-1.44-.258-1.944-.414-.492-.156-.924-.426-1.296-.81-.36-.396-.54-.942-.54-1.638a2.54 2.54 0 0 1 1.134-2.178c.768-.552 1.8-.828 3.096-.828a8.58 8.58 0 0 1 1.98.234c.66.144 1.2.342 1.62.594l-.864 1.71c-.816-.48-1.734-.72-2.754-.72-.66 0-1.164.102-1.512.306-.336.192-.504.45-.504.774 0 .36.18.618.54.774.372.144.942.282 1.71.414.768.12 1.398.258 1.89.414s.912.42 1.26.792c.36.372.54.9.54 1.584 0 .9-.39 1.62-1.17 2.16s-1.842.81-3.186.81zm23.401-9.846c1.212 0 2.172.354 2.88 1.062.708.696 1.062 1.746 1.062 3.15V21h-2.25v-5.22c0-.84-.186-1.47-.558-1.89-.372-.432-.906-.648-1.602-.648-.756 0-1.362.252-1.818.756-.456.492-.684 1.2-.684 2.124V21h-2.25v-5.22c0-.84-.186-1.47-.558-1.89-.372-.432-.906-.648-1.602-.648-.768 0-1.38.246-1.836.738-.444.492-.666 1.206-.666 2.142V21h-2.25v-9.612h2.142v1.224c.36-.432.81-.762 1.35-.99s1.14-.342 1.8-.342c.72 0 1.356.138 1.908.414.564.264 1.008.66 1.332 1.188.396-.504.906-.894 1.53-1.17a4.88 4.88 0 0 1 2.07-.432zm15.641.108l-4.5 10.386c-.42 1.044-.93 1.776-1.53 2.196-.6.432-1.326.648-2.178.648a4.47 4.47 0 0 1-1.422-.234c-.468-.156-.852-.372-1.152-.648l.9-1.656c.216.204.468.366.756.486.3.12.6.18.9.18.396 0 .72-.102.972-.306.264-.204.504-.546.72-1.026l.162-.378-4.194-9.648h2.34l3.024 7.11 3.042-7.11h2.16zm14.265 4.914h2.43v1.638h-2.628l-.378 3.06h-1.638l.378-3.06h-3.042l-.378 3.06h-1.638l.378-3.06h-2.43v-1.638h2.628l.414-3.204h-2.43V11.46h2.628l.378-3.06h1.638l-.378 3.06h3.024l.378-3.06h1.638l-.378 3.06h2.412l.018 1.638h-2.628l-.396 3.204zm-1.638 0l.396-3.204h-3.024l-.414 3.204h3.042zM142.326 8.4V21h-2.34V10.362h-2.664V8.4h5.004zm12.568 12.726c-.996 0-1.89-.21-2.682-.63s-1.41-1.002-1.854-1.746c-.444-.756-.666-1.608-.666-2.556s.222-1.794.666-2.538 1.056-1.326 1.836-1.746c.792-.42 1.692-.63 2.7-.63.948 0 1.776.192 2.484.576.72.384 1.26.936 1.62 1.656l-1.728 1.008c-.276-.444-.624-.774-1.044-.99a2.72 2.72 0 0 0-1.35-.342c-.84 0-1.536.276-2.088.828-.552.54-.828 1.266-.828 2.178s.27 1.644.81 2.196c.552.54 1.254.81 2.106.81a2.84 2.84 0 0 0 1.35-.324c.42-.228.768-.564 1.044-1.008l1.728 1.008c-.372.72-.918 1.278-1.638 1.674-.708.384-1.53.576-2.466.576zm11.415-9.846c1.212 0 2.184.354 2.916 1.062s1.098 1.758 1.098 3.15V21h-2.25v-5.22c0-.84-.198-1.47-.594-1.89-.396-.432-.96-.648-1.692-.648-.828 0-1.482.252-1.962.756-.48.492-.72 1.206-.72 2.142V21h-2.25V7.644h2.25v4.86c.372-.396.828-.696 1.368-.9.552-.216 1.164-.324 1.836-.324zm11.276 9.846c-.972 0-1.848-.21-2.628-.63s-1.392-1.002-1.836-1.746c-.432-.756-.648-1.608-.648-2.556s.216-1.794.648-2.538c.444-.744 1.056-1.326 1.836-1.746s1.656-.63 2.628-.63c.984 0 1.866.21 2.646.63a4.55 4.55 0 0 1 1.818 1.746c.444.744.666 1.59.666 2.538s-.222 1.8-.666 2.556a4.55 4.55 0 0 1-1.818 1.746c-.78.42-1.662.63-2.646.63zm0-1.926c.828 0 1.512-.276 2.052-.828s.81-1.278.81-2.178-.27-1.626-.81-2.178-1.224-.828-2.052-.828-1.512.276-2.052.828c-.528.552-.792 1.278-.792 2.178s.264 1.626.792 2.178c.54.552 1.224.828 2.052.828zm7.282-7.812h2.25V21h-2.25v-9.612zm1.134-1.584c-.408 0-.75-.126-1.026-.378a1.29 1.29 0 0 1-.414-.972c0-.384.138-.702.414-.954.276-.264.618-.396 1.026-.396s.75.126 1.026.378a1.16 1.16 0 0 1 .414.918 1.37 1.37 0 0 1-.414 1.008c-.264.264-.606.396-1.026.396zm8.479 11.322c-.996 0-1.89-.21-2.682-.63s-1.41-1.002-1.854-1.746c-.444-.756-.666-1.608-.666-2.556s.222-1.794.666-2.538S191 12.33 191.78 11.91c.792-.42 1.692-.63 2.7-.63.948 0 1.776.192 2.484.576.72.384 1.26.936 1.62 1.656l-1.728 1.008c-.276-.444-.624-.774-1.044-.99a2.72 2.72 0 0 0-1.35-.342c-.84 0-1.536.276-2.088.828-.552.54-.828 1.266-.828 2.178s.27 1.644.81 2.196c.552.54 1.254.81 2.106.81a2.84 2.84 0 0 0 1.35-.324c.42-.228.768-.564 1.044-1.008l1.728 1.008c-.372.72-.918 1.278-1.638 1.674-.708.384-1.53.576-2.466.576zm14.944-4.878a8.61 8.61 0 0 1-.036.666h-7.542a2.66 2.66 0 0 0 1.026 1.692c.564.408 1.26.612 2.088.612 1.056 0 1.926-.348 2.61-1.044l1.206 1.386c-.432.516-.978.906-1.638 1.17s-1.404.396-2.232.396c-1.056 0-1.986-.21-2.79-.63s-1.428-1.002-1.872-1.746c-.432-.756-.648-1.608-.648-2.556 0-.936.21-1.776.63-2.52.432-.756 1.026-1.344 1.782-1.764s1.608-.63 2.556-.63c.936 0 1.77.21 2.502.63a4.25 4.25 0 0 1 1.728 1.746c.42.744.63 1.608.63 2.592zm-4.86-3.168c-.72 0-1.332.216-1.836.648-.492.42-.792.984-.9 1.692h5.454c-.096-.696-.39-1.26-.882-1.692s-1.104-.648-1.836-.648zm26.99-1.692L228.008 21h-2.16l-2.484-6.624-2.52 6.624h-2.16l-3.528-9.612h2.124l2.538 7.092 2.646-7.092h1.89l2.592 7.128 2.61-7.128h1.998zm7.001-.108c1.212 0 2.184.354 2.916 1.062s1.098 1.758 1.098 3.15V21h-2.25v-5.22c0-.84-.198-1.47-.594-1.89-.396-.432-.96-.648-1.692-.648-.828 0-1.482.252-1.962.756-.48.492-.72 1.206-.72 2.142V21h-2.25V7.644h2.25v4.86c.372-.396.828-.696 1.368-.9.552-.216 1.164-.324 1.836-.324zm15.992 4.968a8.61 8.61 0 0 1-.036.666h-7.542a2.66 2.66 0 0 0 1.026 1.692c.564.408 1.26.612 2.088.612 1.056 0 1.926-.348 2.61-1.044l1.206 1.386c-.432.516-.978.906-1.638 1.17s-1.404.396-2.232.396c-1.056 0-1.986-.21-2.79-.63s-1.428-1.002-1.872-1.746c-.432-.756-.648-1.608-.648-2.556 0-.936.21-1.776.63-2.52.432-.756 1.026-1.344 1.782-1.764s1.608-.63 2.556-.63c.936 0 1.77.21 2.502.63a4.25 4.25 0 0 1 1.728 1.746c.42.744.63 1.608.63 2.592zm-4.86-3.168c-.72 0-1.332.216-1.836.648-.492.42-.792.984-.9 1.692h5.454c-.096-.696-.39-1.26-.882-1.692s-1.104-.648-1.836-.648zm12.475-1.8c1.212 0 2.184.354 2.916 1.062s1.098 1.758 1.098 3.15V21h-2.25v-5.22c0-.84-.198-1.47-.594-1.89-.396-.432-.96-.648-1.692-.648-.828 0-1.482.252-1.962.756-.48.492-.72 1.206-.72 2.142V21h-2.25v-9.612h2.142v1.242c.372-.444.84-.78 1.404-1.008s1.2-.342 1.908-.342zM2.476 41.388h2.25V51h-2.25v-9.612zm1.134-1.584c-.408 0-.75-.126-1.026-.378a1.29 1.29 0 0 1-.414-.972c0-.384.138-.702.414-.954.276-.264.618-.396 1.026-.396s.75.126 1.026.378a1.16 1.16 0 0 1 .414.918 1.37 1.37 0 0 1-.414 1.008c-.264.264-.606.396-1.026.396zm9.847 10.674c-.264.216-.588.378-.972.486a4.24 4.24 0 0 1-1.188.162c-1.056 0-1.872-.276-2.448-.828s-.864-1.356-.864-2.412V43.26H6.401v-1.8h1.584v-2.196h2.25v2.196h2.574v1.8h-2.574v4.572c0 .468.114.828.342 1.08.228.24.558.36.99.36.504 0 .924-.132 1.26-.396l.63 1.602zm11.235.648c-.996 0-1.89-.21-2.682-.63s-1.41-1.002-1.854-1.746c-.444-.756-.666-1.608-.666-2.556s.222-1.794.666-2.538 1.056-1.326 1.836-1.746c.792-.42 1.692-.63 2.7-.63.948 0 1.776.192 2.484.576.72.384 1.26.936 1.62 1.656l-1.728 1.008c-.276-.444-.624-.774-1.044-.99a2.72 2.72 0 0 0-1.35-.342c-.84 0-1.536.276-2.088.828-.552.54-.828 1.266-.828 2.178s.27 1.644.81 2.196c.552.54 1.254.81 2.106.81a2.84 2.84 0 0 0 1.35-.324c.42-.228.768-.564 1.044-1.008l1.728 1.008c-.372.72-.918 1.278-1.638 1.674-.708.384-1.53.576-2.466.576zm10.228 0c-.972 0-1.848-.21-2.628-.63s-1.392-1.002-1.836-1.746c-.432-.756-.648-1.608-.648-2.556s.216-1.794.648-2.538c.444-.744 1.056-1.326 1.836-1.746s1.656-.63 2.628-.63c.984 0 1.866.21 2.646.63a4.55 4.55 0 0 1 1.818 1.746c.444.744.666 1.59.666 2.538s-.222 1.8-.666 2.556a4.55 4.55 0 0 1-1.818 1.746c-.78.42-1.662.63-2.646.63zm0-1.926c.828 0 1.512-.276 2.052-.828s.81-1.278.81-2.178-.27-1.626-.81-2.178-1.224-.828-2.052-.828-1.512.276-2.052.828c-.528.552-.792 1.278-.792 2.178s.264 1.626.792 2.178c.54.552 1.224.828 2.052.828zm19.414-7.92c1.212 0 2.172.354 2.88 1.062.708.696 1.062 1.746 1.062 3.15V51h-2.25v-5.22c0-.84-.186-1.47-.558-1.89-.372-.432-.906-.648-1.602-.648-.756 0-1.362.252-1.818.756-.456.492-.684 1.2-.684 2.124V51h-2.25v-5.22c0-.84-.186-1.47-.558-1.89-.372-.432-.906-.648-1.602-.648-.768 0-1.38.246-1.836.738-.444.492-.666 1.206-.666 2.142V51h-2.25v-9.612h2.142v1.224c.36-.432.81-.762 1.35-.99s1.14-.342 1.8-.342c.72 0 1.356.138 1.908.414.564.264 1.008.66 1.332 1.188.396-.504.906-.894 1.53-1.17a4.88 4.88 0 0 1 2.07-.432zm15.941 4.968a8.61 8.61 0 0 1-.036.666h-7.542a2.66 2.66 0 0 0 1.026 1.692c.564.408 1.26.612 2.088.612 1.056 0 1.926-.348 2.61-1.044l1.206 1.386c-.432.516-.978.906-1.638 1.17s-1.404.396-2.232.396c-1.056 0-1.986-.21-2.79-.63s-1.428-1.002-1.872-1.746c-.432-.756-.648-1.608-.648-2.556 0-.936.21-1.776.63-2.52.432-.756 1.026-1.344 1.782-1.764s1.608-.63 2.556-.63c.936 0 1.77.21 2.502.63a4.25 4.25 0 0 1 1.728 1.746c.42.744.63 1.608.63 2.592zm-4.86-3.168c-.72 0-1.332.216-1.836.648-.492.42-.792.984-.9 1.692h5.454c-.096-.696-.39-1.26-.882-1.692s-1.104-.648-1.836-.648zm9.991 8.046c-.78 0-1.542-.102-2.286-.306s-1.338-.462-1.782-.774l.864-1.71c.432.288.948.522 1.548.702a6.78 6.78 0 0 0 1.8.252c1.344 0 2.016-.354 2.016-1.062 0-.336-.174-.57-.522-.702-.336-.132-.882-.258-1.638-.378-.792-.12-1.44-.258-1.944-.414-.492-.156-.924-.426-1.296-.81-.36-.396-.54-.942-.54-1.638a2.54 2.54 0 0 1 1.134-2.178c.768-.552 1.8-.828 3.096-.828a8.58 8.58 0 0 1 1.98.234c.66.144 1.2.342 1.62.594l-.864 1.71c-.816-.48-1.734-.72-2.754-.72-.66 0-1.164.102-1.512.306-.336.192-.504.45-.504.774 0 .36.18.618.54.774.372.144.942.282 1.71.414.768.12 1.398.258 1.89.414s.912.42 1.26.792c.36.372.54.9.54 1.584 0 .9-.39 1.62-1.17 2.16s-1.842.81-3.186.81zm17.046-.648c-.264.216-.588.378-.972.486a4.24 4.24 0 0 1-1.188.162c-1.056 0-1.872-.276-2.448-.828s-.864-1.356-.864-2.412V43.26h-1.584v-1.8h1.584v-2.196h2.25v2.196h2.574v1.8h-2.574v4.572c0 .468.114.828.342 1.08.228.24.558.36.99.36.504 0 .924-.132 1.26-.396l.63 1.602zm5.855.648c-.972 0-1.848-.21-2.628-.63s-1.392-1.002-1.836-1.746c-.432-.756-.648-1.608-.648-2.556s.216-1.794.648-2.538c.444-.744 1.056-1.326 1.836-1.746s1.656-.63 2.628-.63c.984 0 1.866.21 2.646.63a4.55 4.55 0 0 1 1.818 1.746c.444.744.666 1.59.666 2.538s-.222 1.8-.666 2.556a4.55 4.55 0 0 1-1.818 1.746c-.78.42-1.662.63-2.646.63zm0-1.926c.828 0 1.512-.276 2.052-.828s.81-1.278.81-2.178-.27-1.626-.81-2.178-1.224-.828-2.052-.828-1.512.276-2.052.828c-.528.552-.792 1.278-.792 2.178s.264 1.626.792 2.178c.54.552 1.224.828 2.052.828zm27.25-7.812L122.012 51h-2.16l-2.484-6.624-2.52 6.624h-2.16l-3.528-9.612h2.124l2.538 7.092 2.646-7.092h1.89l2.592 7.128 2.61-7.128h1.998zm10.319 4.86a8.61 8.61 0 0 1-.036.666h-7.542a2.66 2.66 0 0 0 1.026 1.692c.564.408 1.26.612 2.088.612 1.056 0 1.926-.348 2.61-1.044l1.206 1.386c-.432.516-.978.906-1.638 1.17s-1.404.396-2.232.396c-1.056 0-1.986-.21-2.79-.63s-1.428-1.002-1.872-1.746c-.432-.756-.648-1.608-.648-2.556 0-.936.21-1.776.63-2.52.432-.756 1.026-1.344 1.782-1.764s1.608-.63 2.556-.63c.936 0 1.77.21 2.502.63a4.25 4.25 0 0 1 1.728 1.746c.42.744.63 1.608.63 2.592zm-4.86-3.168c-.72 0-1.332.216-1.836.648-.492.42-.792.984-.9 1.692h5.454c-.096-.696-.39-1.26-.882-1.692s-1.104-.648-1.836-.648zm12.35-1.8c.936 0 1.77.204 2.502.612.744.408 1.326.984 1.746 1.728s.63 1.602.63 2.574-.21 1.836-.63 2.592c-.42.744-1.002 1.32-1.746 1.728-.732.408-1.566.612-2.502.612-.66 0-1.266-.114-1.818-.342-.54-.228-.996-.57-1.368-1.026V51h-2.142V37.644h2.25v4.914c.384-.42.834-.738 1.35-.954a4.52 4.52 0 0 1 1.728-.324zm-.252 7.92c.828 0 1.506-.276 2.034-.828.54-.552.81-1.278.81-2.178s-.27-1.626-.81-2.178c-.528-.552-1.206-.828-2.034-.828a2.84 2.84 0 0 0-1.458.378c-.432.24-.774.588-1.026 1.044s-.378.984-.378 1.584.126 1.128.378 1.584a2.73 2.73 0 0 0 1.026 1.062 2.95 2.95 0 0 0 1.458.36zm17.692-7.92c1.212 0 2.184.354 2.916 1.062s1.098 1.758 1.098 3.15V51h-2.25v-5.22c0-.84-.198-1.47-.594-1.89-.396-.432-.96-.648-1.692-.648-.828 0-1.482.252-1.962.756-.48.492-.72 1.206-.72 2.142V51h-2.25V37.644h2.25v4.86c.372-.396.828-.696 1.368-.9.552-.216 1.164-.324 1.836-.324zm11.276 9.846c-.972 0-1.848-.21-2.628-.63s-1.392-1.002-1.836-1.746c-.432-.756-.648-1.608-.648-2.556s.216-1.794.648-2.538c.444-.744 1.056-1.326 1.836-1.746s1.656-.63 2.628-.63c.984 0 1.866.21 2.646.63a4.55 4.55 0 0 1 1.818 1.746c.444.744.666 1.59.666 2.538s-.222 1.8-.666 2.556a4.55 4.55 0 0 1-1.818 1.746c-.78.42-1.662.63-2.646.63zm0-1.926c.828 0 1.512-.276 2.052-.828s.81-1.278.81-2.178-.27-1.626-.81-2.178-1.224-.828-2.052-.828-1.512.276-2.052.828c-.528.552-.792 1.278-.792 2.178s.264 1.626.792 2.178c.54.552 1.224.828 2.052.828zm10.252 1.926c-.78 0-1.542-.102-2.286-.306s-1.338-.462-1.782-.774l.864-1.71c.432.288.948.522 1.548.702a6.78 6.78 0 0 0 1.8.252c1.344 0 2.016-.354 2.016-1.062 0-.336-.174-.57-.522-.702-.336-.132-.882-.258-1.638-.378-.792-.12-1.44-.258-1.944-.414-.492-.156-.924-.426-1.296-.81-.36-.396-.54-.942-.54-1.638a2.54 2.54 0 0 1 1.134-2.178c.768-.552 1.8-.828 3.096-.828a8.58 8.58 0 0 1 1.98.234c.66.144 1.2.342 1.62.594l-.864 1.71c-.816-.48-1.734-.72-2.754-.72-.66 0-1.164.102-1.512.306-.336.192-.504.45-.504.774 0 .36.18.618.54.774.372.144.942.282 1.71.414.768.12 1.398.258 1.89.414s.912.42 1.26.792c.36.372.54.9.54 1.584 0 .9-.39 1.62-1.17 2.16s-1.842.81-3.186.81zm12.071-.648c-.264.216-.588.378-.972.486a4.24 4.24 0 0 1-1.188.162c-1.056 0-1.872-.276-2.448-.828s-.864-1.356-.864-2.412V43.26h-1.584v-1.8h1.584v-2.196h2.25v2.196h2.574v1.8h-2.574v4.572c0 .468.114.828.342 1.08.228.24.558.36.99.36.504 0 .924-.132 1.26-.396l.63 1.602zm1.851-9.09h2.25V51h-2.25v-9.612zm1.134-1.584c-.408 0-.75-.126-1.026-.378a1.29 1.29 0 0 1-.414-.972c0-.384.138-.702.414-.954.276-.264.618-.396 1.026-.396s.75.126 1.026.378a1.16 1.16 0 0 1 .414.918 1.37 1.37 0 0 1-.414 1.008c-.264.264-.606.396-1.026.396zm9.523 1.476c1.212 0 2.184.354 2.916 1.062s1.098 1.758 1.098 3.15V51h-2.25v-5.22c0-.84-.198-1.47-.594-1.89-.396-.432-.96-.648-1.692-.648-.828 0-1.482.252-1.962.756-.48.492-.72 1.206-.72 2.142V51h-2.25v-9.612h2.142v1.242c.372-.444.84-.78 1.404-1.008s1.2-.342 1.908-.342zm16.497.108v8.154c0 3.384-1.728 5.076-5.184 5.076-.924 0-1.8-.12-2.628-.36-.828-.228-1.512-.564-2.052-1.008l1.008-1.692c.42.348.948.624 1.584.828a6.17 6.17 0 0 0 1.962.324c1.056 0 1.83-.24 2.322-.72s.738-1.212.738-2.196v-.504a3.7 3.7 0 0 1-1.404.954c-.552.216-1.158.324-1.818.324-.912 0-1.74-.192-2.484-.576a4.54 4.54 0 0 1-1.746-1.656c-.42-.708-.63-1.518-.63-2.43s.21-1.716.63-2.412a4.41 4.41 0 0 1 1.746-1.638c.744-.384 1.572-.576 2.484-.576.696 0 1.326.114 1.89.342a3.49 3.49 0 0 1 1.44 1.044v-1.278h2.142zm-5.13 7.272c.852 0 1.548-.252 2.088-.756.552-.516.828-1.182.828-1.998 0-.804-.276-1.458-.828-1.962-.54-.504-1.236-.756-2.088-.756-.864 0-1.572.252-2.124.756-.54.504-.81 1.158-.81 1.962 0 .816.27 1.482.81 1.998.552.504 1.26.756 2.124.756zm7.8-10.26h2.664l-.45 8.424h-1.782l-.432-8.424zm1.332 12.726c-.42 0-.768-.132-1.044-.396a1.37 1.37 0 0 1-.414-1.008c0-.396.138-.726.414-.99s.624-.396 1.044-.396c.408 0 .744.132 1.008.396.276.264.414.594.414.99a1.37 1.37 0 0 1-.414 1.008c-.264.264-.6.396-1.008.396zm3.585-12.726h1.944l-.162 4.986h-1.638l-.144-4.986zm3.474 0h1.944l-.162 4.986h-1.638l-.144-4.986z"/><path d="M4.654 96.18c2.772 0 4.248-1.458 4.248-4.428V83.4H2.08v1.962h4.482v6.516c0 1.548-.666 2.322-1.962 2.322-.99 0-1.818-.504-2.502-1.44L.766 94.362c.864 1.17 2.304 1.818 3.888 1.818zm10.986-9.9c-1.548 0-3.042.396-4.068 1.188l.882 1.638c.72-.594 1.836-.954 2.916-.954 1.602 0 2.394.774 2.394 2.088v.144H15.28c-2.916 0-3.996 1.26-3.996 2.862 0 1.674 1.386 2.88 3.582 2.88 1.44 0 2.484-.468 3.024-1.296V96h2.124v-5.634c0-2.772-1.602-4.086-4.374-4.086zm-.306 8.208c-1.152 0-1.836-.522-1.836-1.332 0-.702.414-1.278 1.944-1.278h2.322v1.116c-.378.99-1.332 1.494-2.43 1.494zm9.638-.288l5.292-6.39v-1.422h-8.046v1.8h5.166l-5.274 6.39V96h8.298v-1.8h-5.436zm8.336-1.062c-.828 0-1.458.594-1.458 1.494 0 .648.342 1.116.846 1.332l-.72 2.754h1.458l.918-2.538c.324-.828.414-1.152.414-1.548 0-.882-.612-1.494-1.458-1.494zM50.968 96l-.018-12.6h-1.926l-4.914 8.352-5.004-8.352H37.18V96h2.232v-8.244l4.14 6.804h1.044l4.14-6.912.018 8.352h2.214zm6.859-9.72c-1.548 0-3.042.396-4.068 1.188l.882 1.638c.72-.594 1.836-.954 2.916-.954 1.602 0 2.394.774 2.394 2.088v.144h-2.484c-2.916 0-3.996 1.26-3.996 2.862 0 1.674 1.386 2.88 3.582 2.88 1.44 0 2.484-.468 3.024-1.296V96h2.124v-5.634c0-2.772-1.602-4.086-4.374-4.086zm-.306 8.208c-1.152 0-1.836-.522-1.836-1.332 0-.702.414-1.278 1.944-1.278h2.322v1.116c-.378.99-1.332 1.494-2.43 1.494zm13.022-8.208c-1.404 0-2.574.468-3.312 1.35v-1.242h-2.142V96h2.25v-4.86c0-1.926 1.08-2.898 2.682-2.898 1.44 0 2.286.828 2.286 2.538V96h2.25v-5.508c0-2.898-1.71-4.212-4.014-4.212zm8.002-1.476c.846 0 1.44-.612 1.44-1.404 0-.738-.612-1.296-1.44-1.296s-1.44.594-1.44 1.35.612 1.35 1.44 1.35zM77.412 96h2.25v-9.612h-2.25V96zm5.203 0h2.25V82.644h-2.25V96zm8.875-9.72c-1.548 0-3.042.396-4.068 1.188l.882 1.638c.72-.594 1.836-.954 2.916-.954 1.602 0 2.394.774 2.394 2.088v.144H91.13c-2.916 0-3.996 1.26-3.996 2.862 0 1.674 1.386 2.88 3.582 2.88 1.44 0 2.484-.468 3.024-1.296V96h2.124v-5.634c0-2.772-1.602-4.086-4.374-4.086zm-.306 8.208c-1.152 0-1.836-.522-1.836-1.332 0-.702.414-1.278 1.944-1.278h2.322v1.116c-.378.99-1.332 1.494-2.43 1.494z"/></svg>